SplineFontDB: 3.2
FontName: Reijima-BlackItalic
FullName: Reijima Black Italic
FamilyName: Reijima Black
Weight: Black
Copyright: Copyright (c) 2019 by Coji Morishita. All rights reserved.
Version: 1.000
ItalicAngle: -9
UnderlinePosition: -100
UnderlineWidth: 50
Ascent: 860
Descent: 140
InvalidEm: 0
sfntRevision: 0x00010000
LayerCount: 2
Layer: 0 1 "Back" 1
Layer: 1 1 "Fore" 0
XUID: [1021 531 -1996577725 7650974]
StyleMap: 0x0001
FSType: 8
OS2Version: 4
OS2_WeightWidthSlopeOnly: 1
OS2_UseTypoMetrics: 1
CreationTime: 1575364793
ModificationTime: 1707312900
PfmFamily: 81
TTFWeight: 900
TTFWidth: 5
LineGap: 0
VLineGap: 1000
Panose: 0 0 10 0 0 0 0 0 0 0
OS2TypoAscent: 960
OS2TypoAOffset: 0
OS2TypoDescent: -230
OS2TypoDOffset: 0
OS2TypoLinegap: 200
OS2WinAscent: 1060
OS2WinAOffset: 0
OS2WinDescent: 330
OS2WinDOffset: 0
HheadAscent: 1060
HheadAOffset: 0
HheadDescent: -330
HheadDOffset: 0
OS2SubXSize: 650
OS2SubYSize: 600
OS2SubXOff: 0
OS2SubYOff: 75
OS2SupXSize: 650
OS2SupYSize: 600
OS2SupXOff: 0
OS2SupYOff: 350
OS2StrikeYSize: 50
OS2StrikeYPos: 312
OS2CapHeight: 730
OS2XHeight: 520
OS2Vendor: 'M+  '
OS2CodePages: 0000019f.00000000
OS2UnicodeRanges: a00002ff.4800204b.00000000.00000000
Lookup: 1 0 0 "'aalt' Access All Alternates in Latin lookup 0" { "'aalt' Access All Alternates in Latin lookup 0 subtable"  } ['aalt' ('DFLT' <'dflt' > 'latn' <'AZE ' 'CAT ' 'CRT ' 'KAZ ' 'MOL ' 'ROM ' 'TAT ' 'TRK ' 'dflt' > ) ]
Lookup: 3 0 0 "'aalt' Access All Alternates in Latin lookup 1" { "'aalt' Access All Alternates in Latin lookup 1 subtable"  } ['aalt' ('DFLT' <'dflt' > 'latn' <'AZE ' 'CAT ' 'CRT ' 'KAZ ' 'MOL ' 'ROM ' 'TAT ' 'TRK ' 'dflt' > ) ]
Lookup: 6 0 0 "'ccmp' Glyph Composition/Decomposition in Latin lookup 2" { "'ccmp' Glyph Composition/Decomposition in Latin lookup 2 contextual 0"  "'ccmp' Glyph Composition/Decomposition in Latin lookup 2 contextual 1"  } ['ccmp' ('DFLT' <'dflt' > 'latn' <'AZE ' 'CAT ' 'CRT ' 'KAZ ' 'MOL ' 'ROM ' 'TAT ' 'TRK ' 'dflt' > ) ]

StartChar: .notdef
Encoding: 1114112 -1 0
Width: 477
Flags: W
LayerCount: 2
Fore
SplineSet
328 -140 m 1,0,-1
 17 -140 l 1,1,-1
 176 860 l 1,2,-1
 487 860 l 1,3,-1
 328 -140 l 1,0,-1
239 793 m 1,4,-1
 234 760 l 1,5,-1
 297 760 l 1,6,-1
 291 723 l 1,7,-1
 227 723 l 1,8,-1
 221 690 l 1,9,-1
 384 690 l 1,10,-1
 389 723 l 1,11,-1
 325 723 l 1,12,-1
 331 760 l 1,13,-1
 395 760 l 1,14,-1
 400 793 l 1,15,-1
 239 793 l 1,4,-1
217 664 m 1,16,-1
 201 560 l 1,17,-1
 364 560 l 1,18,-1
 369 594 l 1,19,-1
 304 594 l 1,20,-1
 315 664 l 1,21,-1
 217 664 l 1,16,-1
271 594 m 1,22,-1
 239 594 l 1,23,-1
 244 630 l 1,24,-1
 277 630 l 1,25,-1
 271 594 l 1,22,-1
197 533 m 1,26,-1
 191 500 l 1,27,-1
 256 500 l 1,28,-1
 250 463 l 1,29,-1
 185 463 l 1,30,-1
 180 430 l 1,31,-1
 278 430 l 1,32,-1
 289 500 l 1,33,-1
 354 500 l 1,34,-1
 359 533 l 1,35,-1
 197 533 l 1,26,-1
317 473 m 1,36,-1
 307 407 l 1,37,-1
 177 407 l 1,38,-1
 171 373 l 1,39,-1
 334 373 l 1,40,-1
 350 473 l 1,41,-1
 317 473 l 1,36,-1
232 351 m 1,42,-1
 224 295 l 1,43,-1
 257 295 l 1,44,-1
 261 318 l 1,45,-1
 293 318 l 1,46,-1
 285 271 l 1,47,-1
 187 271 l 1,48,-1
 200 351 l 1,49,-1
 168 351 l 1,50,-1
 150 238 l 1,51,-1
 313 238 l 1,52,-1
 330 351 l 1,53,-1
 232 351 l 1,42,-1
140 178 m 1,54,-1
 122 65 l 1,55,-1
 285 65 l 1,56,-1
 303 178 l 1,57,-1
 140 178 l 1,54,-1
258 98 m 1,58,-1
 160 98 l 1,59,-1
 167 145 l 1,60,-1
 265 145 l 1,61,-1
 258 98 l 1,58,-1
119 42 m 1,62,-1
 114 9 l 1,63,-1
 182 9 l 1,64,-1
 106 -38 l 1,65,-1
 101 -71 l 1,66,-1
 264 -71 l 1,67,-1
 269 -38 l 1,68,-1
 169 -38 l 1,69,-1
 245 9 l 1,70,-1
 276 9 l 1,71,-1
 281 42 l 1,72,-1
 119 42 l 1,62,-1
EndSplineSet
EndChar

StartChar: A
Encoding: 65 65 2
Width: 688
GlyphClass: 2
Flags: W
AnchorPoint: "Anchor-6" 307 730 basechar 0
AnchorPoint: "Anchor-5" 652 0 basechar 0
AnchorPoint: "Anchor-4" 307 0 basechar 0
LayerCount: 2
Fore
SplineSet
422 0 m 1,0,-1
 414 135 l 1,1,-1
 228 135 l 1,2,-1
 177 0 l 1,3,-1
 -39 0 l 1,4,-1
 283 730 l 1,5,-1
 547 730 l 1,6,-1
 638 0 l 1,7,-1
 422 0 l 1,0,-1
289 300 m 1,8,-1
 405 300 l 1,9,-1
 389 560 l 1,10,-1
 387 560 l 1,11,-1
 289 300 l 1,8,-1
EndSplineSet
Substitution2: "Single Substitution lookup 21 subtable" ordfeminine
Substitution2: "'aalt' Access All Alternates in Latin lookup 0 subtable" ordfeminine
EndChar

StartChar: uni1EAE
Encoding: 7854 7854 5
Width: 688
GlyphClass: 2
Flags: W
AnchorPoint: "Anchor-6" 307 730 basechar 0
AnchorPoint: "Anchor-5" 652 0 basechar 0
AnchorPoint: "Anchor-4" 307 0 basechar 0
LayerCount: 2
Fore
SplineSet
298 788.5 m 128,-1,1
 247 817 247 817 223.5 867 c 128,-1,2
 200 917 200 917 210 980 c 1,3,-1
 346 980 l 1,4,-1
 433 1180 l 1,5,-1
 659 1180 l 1,6,-1
 508 970 l 1,7,-1
 376 970 l 1,8,9
 376 929 376 929 391.5 909.5 c 128,-1,10
 407 890 407 890 440 890 c 0,11,12
 474 890 474 890 497 912 c 128,-1,13
 520 934 520 934 533 980 c 1,14,-1
 700 980 l 1,15,16
 690 917 690 917 650.5 867 c 128,-1,17
 611 817 611 817 550.5 788.5 c 128,-1,18
 490 760 490 760 420 760 c 256,19,0
 349 760 349 760 298 788.5 c 128,-1,1
422 0 m 1,20,-1
 414 135 l 1,21,-1
 228 135 l 1,22,-1
 177 0 l 1,23,-1
 -39 0 l 1,24,-1
 283 730 l 1,25,-1
 547 730 l 1,26,-1
 638 0 l 1,27,-1
 422 0 l 1,20,-1
289 300 m 1,28,-1
 405 300 l 1,29,-1
 389 560 l 1,30,-1
 387 560 l 1,31,-1
 289 300 l 1,28,-1
EndSplineSet
EndChar

StartChar: uni1EB0
Encoding: 7856 7856 7
Width: 688
GlyphClass: 2
Flags: W
AnchorPoint: "Anchor-6" 307 730 basechar 0
AnchorPoint: "Anchor-5" 652 0 basechar 0
AnchorPoint: "Anchor-4" 307 0 basechar 0
LayerCount: 2
Fore
SplineSet
495 909.5 m 128,-1,1
 517 929 517 929 531 970 c 1,2,-1
 398 970 l 1,3,-1
 314 1180 l 1,4,-1
 539 1180 l 1,5,-1
 563 980 l 1,6,-1
 700 980 l 1,7,8
 690 917 690 917 650.5 867 c 128,-1,9
 611 817 611 817 550.5 788.5 c 128,-1,10
 490 760 490 760 420 760 c 256,11,12
 349 760 349 760 298 788.5 c 128,-1,13
 247 817 247 817 223.5 867 c 128,-1,14
 200 917 200 917 210 980 c 1,15,-1
 376 980 l 1,16,17
 374 934 374 934 389.5 912 c 128,-1,18
 405 890 405 890 440 890 c 0,19,0
 473 890 473 890 495 909.5 c 128,-1,1
422 0 m 1,20,-1
 414 135 l 1,21,-1
 228 135 l 1,22,-1
 177 0 l 1,23,-1
 -39 0 l 1,24,-1
 283 730 l 1,25,-1
 547 730 l 1,26,-1
 638 0 l 1,27,-1
 422 0 l 1,20,-1
289 300 m 1,28,-1
 405 300 l 1,29,-1
 389 560 l 1,30,-1
 387 560 l 1,31,-1
 289 300 l 1,28,-1
EndSplineSet
EndChar

StartChar: uni1EB2
Encoding: 7858 7858 8
Width: 688
GlyphClass: 2
Flags: W
AnchorPoint: "Anchor-6" 307 1190 basechar 0
AnchorPoint: "Anchor-5" 652 0 basechar 0
AnchorPoint: "Anchor-4" 307 0 basechar 0
LayerCount: 2
Fore
SplineSet
495 909.5 m 128,-1,1
 517 929 517 929 531 970 c 1,2,-1
 463 970 l 1,3,4
 479 1007 479 1007 482 1030 c 0,5,6
 485 1048 485 1048 477 1054 c 128,-1,7
 469 1060 469 1060 443 1060 c 0,8,9
 410 1060 410 1060 368 1053.5 c 128,-1,10
 326 1047 326 1047 287 1035 c 1,11,-1
 294 1170 l 1,12,13
 337 1179 337 1179 390 1184.5 c 128,-1,14
 443 1190 443 1190 488 1190 c 0,15,16
 564 1190 564 1190 603.5 1181.5 c 128,-1,17
 643 1173 643 1173 656.5 1153 c 128,-1,18
 670 1133 670 1133 664 1095 c 0,19,20
 660 1069 660 1069 649.5 1037.5 c 128,-1,21
 639 1006 639 1006 625 980 c 1,22,-1
 700 980 l 1,23,24
 690 917 690 917 650.5 867 c 128,-1,25
 611 817 611 817 550.5 788.5 c 128,-1,26
 490 760 490 760 420 760 c 256,27,28
 349 760 349 760 298 788.5 c 128,-1,29
 247 817 247 817 223.5 867 c 128,-1,30
 200 917 200 917 210 980 c 1,31,-1
 376 980 l 1,32,33
 374 934 374 934 389.5 912 c 128,-1,34
 405 890 405 890 440 890 c 0,35,0
 473 890 473 890 495 909.5 c 128,-1,1
422 0 m 1,36,-1
 414 135 l 1,37,-1
 228 135 l 1,38,-1
 177 0 l 1,39,-1
 -39 0 l 1,40,-1
 283 730 l 1,41,-1
 547 730 l 1,42,-1
 638 0 l 1,43,-1
 422 0 l 1,36,-1
289 300 m 1,44,-1
 405 300 l 1,45,-1
 389 560 l 1,46,-1
 387 560 l 1,47,-1
 289 300 l 1,44,-1
EndSplineSet
EndChar

StartChar: uni1EA4
Encoding: 7844 7844 11
Width: 693
GlyphClass: 2
Flags: W
AnchorPoint: "Anchor-6" 307 730 basechar 0
AnchorPoint: "Anchor-5" 652 0 basechar 0
AnchorPoint: "Anchor-4" 307 0 basechar 0
LayerCount: 2
Fore
SplineSet
443 910 m 1,0,-1
 363 770 l 1,1,-1
 157 770 l 1,2,-1
 308 980 l 1,3,-1
 581 980 l 1,4,-1
 660 1160 l 1,5,-1
 885 1160 l 1,6,-1
 734 950 l 1,7,-1
 614 950 l 1,8,-1
 686 770 l 1,9,-1
 480 770 l 1,10,-1
 445 910 l 1,11,-1
 443 910 l 1,0,-1
283 730 m 1,12,-1
 547 730 l 1,13,-1
 638 0 l 1,14,-1
 422 0 l 1,15,-1
 414 135 l 1,16,-1
 228 135 l 1,17,-1
 177 0 l 1,18,-1
 -39 0 l 1,19,-1
 283 730 l 1,12,-1
289 300 m 1,20,-1
 405 300 l 1,21,-1
 389 560 l 1,22,-1
 387 560 l 1,23,-1
 289 300 l 1,20,-1
EndSplineSet
EndChar

StartChar: uni1EA6
Encoding: 7846 7846 13
Width: 693
GlyphClass: 2
Flags: W
AnchorPoint: "Anchor-6" 307 730 basechar 0
AnchorPoint: "Anchor-5" 652 0 basechar 0
AnchorPoint: "Anchor-4" 307 0 basechar 0
LayerCount: 2
Fore
SplineSet
291 950 m 1,0,-1
 170 950 l 1,1,-1
 86 1160 l 1,2,-1
 311 1160 l 1,3,-1
 333 980 l 1,4,-1
 606 980 l 1,5,-1
 691 770 l 1,6,-1
 485 770 l 1,7,-1
 449 910 l 1,8,-1
 447 910 l 1,9,-1
 367 770 l 1,10,-1
 161 770 l 1,11,-1
 291 950 l 1,0,-1
427 0 m 1,12,-1
 419 135 l 1,13,-1
 232 135 l 1,14,-1
 182 0 l 1,15,-1
 -34 0 l 1,16,-1
 287 730 l 1,17,-1
 552 730 l 1,18,-1
 642 0 l 1,19,-1
 427 0 l 1,12,-1
294 300 m 1,20,-1
 409 300 l 1,21,-1
 394 560 l 1,22,-1
 392 560 l 1,23,-1
 294 300 l 1,20,-1
EndSplineSet
EndChar

StartChar: uni1EA8
Encoding: 7848 7848 14
Width: 688
GlyphClass: 2
Flags: W
AnchorPoint: "Anchor-6" 421 1170 basechar 0
AnchorPoint: "Anchor-5" 652 0 basechar 0
AnchorPoint: "Anchor-4" 307 0 basechar 0
LayerCount: 2
Fore
SplineSet
363 770 m 1,0,-1
 157 770 l 1,1,-1
 308 980 l 1,2,-1
 583 980 l 1,3,4
 589 997 589 997 591 1010 c 0,5,6
 594 1028 594 1028 586 1034 c 128,-1,7
 578 1040 578 1040 551 1040 c 0,8,9
 518 1040 518 1040 476.5 1033.5 c 128,-1,10
 435 1027 435 1027 396 1015 c 1,11,-1
 402 1150 l 1,12,13
 445 1159 445 1159 498 1164.5 c 128,-1,14
 551 1170 551 1170 596 1170 c 0,15,16
 672 1170 672 1170 712 1161.5 c 128,-1,17
 752 1153 752 1153 765.5 1133 c 128,-1,18
 779 1113 779 1113 773 1075 c 0,19,20
 769 1047 769 1047 756 1012 c 128,-1,21
 743 977 743 977 728 950 c 1,22,-1
 614 950 l 1,23,-1
 686 770 l 1,24,-1
 480 770 l 1,25,-1
 445 910 l 1,26,-1
 443 910 l 1,27,-1
 363 770 l 1,0,-1
422 0 m 1,28,-1
 414 135 l 1,29,-1
 228 135 l 1,30,-1
 177 0 l 1,31,-1
 -39 0 l 1,32,-1
 283 730 l 1,33,-1
 547 730 l 1,34,-1
 638 0 l 1,35,-1
 422 0 l 1,28,-1
289 300 m 1,36,-1
 405 300 l 1,37,-1
 389 560 l 1,38,-1
 387 560 l 1,39,-1
 289 300 l 1,36,-1
EndSplineSet
EndChar

StartChar: Aogonek
Encoding: 260 260 23
Width: 695
GlyphClass: 2
Flags: W
AnchorPoint: "Anchor-6" 307 730 basechar 0
AnchorPoint: "Anchor-5" 652 0 basechar 0
AnchorPoint: "Anchor-4" 307 0 basechar 0
LayerCount: 2
Fore
SplineSet
696 -200 m 1,0,1
 640 -220 640 -220 570 -220 c 0,2,3
 469 -220 469 -220 420 -184 c 128,-1,4
 371 -148 371 -148 382 -82 c 0,5,6
 389 -39 389 -39 422 1 c 1,7,-1
 414 135 l 1,8,-1
 228 135 l 1,9,-1
 177 0 l 1,10,-1
 -39 0 l 1,11,-1
 283 730 l 1,12,-1
 547 730 l 1,13,-1
 638 0 l 1,14,15
 563 -28 563 -28 558 -57 c 0,16,17
 556 -71 556 -71 567.5 -78 c 128,-1,18
 579 -85 579 -85 604 -85 c 0,19,20
 626 -85 626 -85 652.5 -79.5 c 128,-1,21
 679 -74 679 -74 703 -65 c 1,22,-1
 696 -200 l 1,0,1
289 300 m 1,23,-1
 405 300 l 1,24,-1
 389 560 l 1,25,-1
 387 560 l 1,26,-1
 289 300 l 1,23,-1
EndSplineSet
EndChar

StartChar: Aring
Encoding: 197 197 24
Width: 688
GlyphClass: 2
Flags: W
AnchorPoint: "Anchor-6" 308 915 basechar 0
AnchorPoint: "Anchor-5" 652 0 basechar 0
AnchorPoint: "Anchor-4" 307 0 basechar 0
LayerCount: 2
Fore
SplineSet
414 135 m 1,0,-1
 228 135 l 1,1,-1
 177 0 l 1,2,-1
 -39 0 l 1,3,-1
 282 728 l 1,4,5
 256 773 256 773 265 830 c 0,6,7
 272 876 272 876 301 915 c 128,-1,8
 330 954 330 954 372 977 c 128,-1,9
 414 1000 414 1000 459 1000 c 256,10,11
 504 1000 504 1000 538.5 977 c 128,-1,12
 573 954 573 954 589.5 915 c 128,-1,13
 606 876 606 876 599 830 c 0,14,15
 590 772 590 772 548 727 c 1,16,-1
 638 0 l 1,17,-1
 422 0 l 1,18,-1
 414 135 l 1,0,-1
400 869 m 128,-1,20
 382 853 382 853 378 830 c 256,21,22
 374 807 374 807 387.5 791 c 128,-1,23
 401 775 401 775 423 775 c 256,24,25
 446 775 446 775 464 791 c 128,-1,26
 482 807 482 807 486 830 c 256,27,28
 490 853 490 853 476.5 869 c 128,-1,29
 463 885 463 885 441 885 c 256,30,19
 418 885 418 885 400 869 c 128,-1,20
289 300 m 1,31,-1
 405 300 l 1,32,-1
 389 560 l 1,33,-1
 387 560 l 1,34,-1
 289 300 l 1,31,-1
EndSplineSet
EndChar

StartChar: Aringacute
Encoding: 506 506 25
Width: 688
GlyphClass: 2
Flags: W
AnchorPoint: "Anchor-6" 308 915 basechar 0
AnchorPoint: "Anchor-5" 652 0 basechar 0
AnchorPoint: "Anchor-4" 307 0 basechar 0
LayerCount: 2
Fore
SplineSet
414 135 m 1,0,-1
 228 135 l 1,1,-1
 177 0 l 1,2,-1
 -39 0 l 1,3,-1
 282 728 l 1,4,5
 256 773 256 773 265 830 c 0,6,7
 271 867 271 867 291 899.5 c 128,-1,8
 311 932 311 932 340 957 c 1,9,-1
 432 1165 l 1,10,-1
 657 1165 l 1,11,-1
 527 984 l 1,12,13
 567 963 567 963 586.5 921.5 c 128,-1,14
 606 880 606 880 599 830 c 0,15,16
 590 772 590 772 548 727 c 1,17,-1
 638 0 l 1,18,-1
 422 0 l 1,19,-1
 414 135 l 1,0,-1
400 869 m 128,-1,21
 382 853 382 853 378 830 c 256,22,23
 374 807 374 807 387.5 791 c 128,-1,24
 401 775 401 775 423 775 c 256,25,26
 446 775 446 775 464 791 c 128,-1,27
 482 807 482 807 486 830 c 256,28,29
 490 853 490 853 476.5 869 c 128,-1,30
 463 885 463 885 441 885 c 256,31,20
 418 885 418 885 400 869 c 128,-1,21
289 300 m 1,32,-1
 405 300 l 1,33,-1
 389 560 l 1,34,-1
 387 560 l 1,35,-1
 289 300 l 1,32,-1
EndSplineSet
EndChar

StartChar: AE
Encoding: 198 198 27
AltUni2: 0004d4.ffffffff.0
Width: 889
GlyphClass: 2
Flags: W
AnchorPoint: "Anchor-6" 435 730 basechar 0
AnchorPoint: "Anchor-4" 435 0 basechar 0
LayerCount: 2
Fore
SplineSet
885 570 m 1,0,-1
 640 570 l 1,1,-1
 621 453 l 1,2,-1
 847 453 l 1,3,-1
 822 298 l 1,4,-1
 597 298 l 1,5,-1
 575 160 l 1,6,-1
 820 160 l 1,7,-1
 794 0 l 1,8,-1
 353 0 l 1,9,-1
 375 135 l 1,10,-1
 234 135 l 1,11,-1
 177 0 l 1,12,-1
 -39 0 l 1,13,-1
 312 730 l 1,14,-1
 910 730 l 1,15,-1
 885 570 l 1,0,-1
302 300 m 1,16,-1
 401 300 l 1,17,-1
 444 570 l 1,18,-1
 414 570 l 1,19,-1
 302 300 l 1,16,-1
EndSplineSet
EndChar

StartChar: B
Encoding: 66 66 29
Width: 657
Flags: W
LayerCount: 2
Fore
SplineSet
592 329 m 128,-1,1
 628 285 628 285 616 210 c 0,2,3
 600 107 600 107 511 53.5 c 128,-1,4
 422 0 422 0 269 0 c 2,5,-1
 14 0 l 1,6,-1
 130 730 l 1,7,-1
 375 730 l 2,8,9
 524 730 524 730 594 684 c 128,-1,10
 664 638 664 638 650 550 c 0,11,12
 639 483 639 483 593.5 440 c 128,-1,13
 548 397 548 397 477 386 c 1,14,-1
 477 384 l 1,15,0
 556 373 556 373 592 329 c 128,-1,1
301 575 m 1,16,-1
 281 450 l 1,17,-1
 340 450 l 2,18,19
 395 450 395 450 419 464 c 128,-1,20
 443 478 443 478 448 512 c 256,21,22
 453 546 453 546 433.5 560.5 c 128,-1,23
 414 575 414 575 360 575 c 2,24,-1
 301 575 l 1,16,-1
381.5 172.5 m 128,-1,26
 412 190 412 190 418 228 c 256,27,28
 424 266 424 266 399.5 283 c 128,-1,29
 375 300 375 300 316 300 c 2,30,-1
 258 300 l 1,31,-1
 235 155 l 1,32,-1
 293 155 l 2,33,25
 351 155 351 155 381.5 172.5 c 128,-1,26
EndSplineSet
EndChar

StartChar: C
Encoding: 67 67 30
Width: 677
GlyphClass: 2
Flags: W
AnchorPoint: "Anchor-6" 335 730 basechar 0
AnchorPoint: "Anchor-4" 335 0 basechar 0
LayerCount: 2
Fore
SplineSet
92 87 m 128,-1,1
 13 184 13 184 42 365 c 256,2,3
 71 546 71 546 180 643 c 128,-1,4
 289 740 289 740 464 740 c 0,5,6
 605 740 605 740 703 674 c 1,7,-1
 600 519 l 1,8,9
 559 545 559 545 522.5 557.5 c 128,-1,10
 486 570 486 570 447 570 c 0,11,12
 364 570 364 570 311.5 517 c 128,-1,13
 259 464 259 464 243 365 c 256,14,15
 227 266 227 266 263 213 c 128,-1,16
 299 160 299 160 382 160 c 0,17,18
 421 160 421 160 461.5 172.5 c 128,-1,19
 502 185 502 185 552 211 c 1,20,-1
 605 56 l 1,21,22
 486 -10 486 -10 345 -10 c 0,23,0
 171 -10 171 -10 92 87 c 128,-1,1
EndSplineSet
EndChar

StartChar: Ccedilla
Encoding: 199 199 33
Width: 677
GlyphClass: 2
Flags: W
AnchorPoint: "Anchor-6" 335 730 basechar 0
AnchorPoint: "Anchor-4" 335 0 basechar 0
LayerCount: 2
Fore
SplineSet
605 56 m 1,0,1
 537 18 537 18 464 2 c 1,2,3
 486 -37 486 -37 479 -82 c 0,4,5
 469 -148 469 -148 408 -184 c 128,-1,6
 347 -220 347 -220 246 -220 c 0,7,8
 176 -220 176 -220 127 -200 c 1,9,-1
 163 -65 l 1,10,11
 184 -74 184 -74 209 -79.5 c 128,-1,12
 234 -85 234 -85 256 -85 c 0,13,14
 280 -85 280 -85 294 -78 c 128,-1,15
 308 -71 308 -71 310 -57 c 0,16,17
 315 -28 315 -28 253 -2 c 1,18,19
 125 22 125 22 71 116 c 128,-1,20
 17 210 17 210 42 365 c 0,21,22
 71 546 71 546 180 643 c 128,-1,23
 289 740 289 740 464 740 c 0,24,25
 605 740 605 740 703 674 c 1,26,-1
 600 519 l 1,27,28
 559 545 559 545 522.5 557.5 c 128,-1,29
 486 570 486 570 447 570 c 0,30,31
 364 570 364 570 311.5 517 c 128,-1,32
 259 464 259 464 243 365 c 256,33,34
 227 266 227 266 263 213 c 128,-1,35
 299 160 299 160 382 160 c 0,36,37
 421 160 421 160 461.5 172.5 c 128,-1,38
 502 185 502 185 552 211 c 1,39,-1
 605 56 l 1,0,1
EndSplineSet
EndChar

StartChar: D
Encoding: 68 68 36
Width: 676
GlyphClass: 2
Flags: W
AnchorPoint: "Anchor-6" 304 730 basechar 0
AnchorPoint: "Anchor-4" 304 0 basechar 0
LayerCount: 2
Fore
SplineSet
355 730 m 2,0,1
 482 730 482 730 556 692 c 128,-1,2
 630 654 630 654 655 574 c 128,-1,3
 680 494 680 494 660 365 c 256,4,5
 640 236 640 236 589.5 156 c 128,-1,6
 539 76 539 76 453 38 c 128,-1,7
 367 0 367 0 240 0 c 2,8,-1
 14 0 l 1,9,-1
 130 730 l 1,10,-1
 355 730 l 2,0,1
371 178.5 m 128,-1,12
 406 197 406 197 426 240.5 c 128,-1,13
 446 284 446 284 459 365 c 256,14,15
 472 446 472 446 465.5 489.5 c 128,-1,16
 459 533 459 533 430 551.5 c 128,-1,17
 401 570 401 570 343 570 c 2,18,-1
 300 570 l 1,19,-1
 235 160 l 1,20,-1
 278 160 l 2,21,11
 336 160 336 160 371 178.5 c 128,-1,12
EndSplineSet
EndChar

StartChar: Eth
Encoding: 208 208 38
Width: 740
GlyphClass: 2
Flags: W
CounterMasks: 1 e0
AnchorPoint: "Anchor-6" 366 730 basechar 0
AnchorPoint: "Anchor-4" 366 0 basechar 0
LayerCount: 2
Fore
SplineSet
620 692 m 128,-1,1
 694 654 694 654 719 574 c 128,-1,2
 744 494 744 494 724 365 c 256,3,4
 704 236 704 236 653 156 c 128,-1,5
 602 76 602 76 516.5 38 c 128,-1,6
 431 0 431 0 303 0 c 2,7,-1
 78 0 l 1,8,-1
 125 295 l 1,9,-1
 22 295 l 1,10,-1
 44 435 l 1,11,-1
 147 435 l 1,12,-1
 194 730 l 1,13,-1
 419 730 l 2,14,0
 546 730 546 730 620 692 c 128,-1,1
435 178.5 m 128,-1,16
 470 197 470 197 490 240.5 c 128,-1,17
 510 284 510 284 523 365 c 256,18,19
 536 446 536 446 529.5 489.5 c 128,-1,20
 523 533 523 533 494 551.5 c 128,-1,21
 465 570 465 570 406 570 c 2,22,-1
 364 570 l 1,23,-1
 343 435 l 1,24,-1
 461 435 l 1,25,-1
 439 295 l 1,26,-1
 321 295 l 1,27,-1
 299 160 l 1,28,-1
 341 160 l 2,29,15
 400 160 400 160 435 178.5 c 128,-1,16
EndSplineSet
EndChar

StartChar: E
Encoding: 69 69 42
Width: 589
GlyphClass: 2
Flags: W
AnchorPoint: "Anchor-6" 265 730 basechar 0
AnchorPoint: "Anchor-5" 510 0 basechar 0
AnchorPoint: "Anchor-4" 265 0 basechar 0
LayerCount: 2
Fore
SplineSet
130 730 m 1,0,-1
 610 730 l 1,1,-1
 585 570 l 1,2,-1
 300 570 l 1,3,-1
 282 453 l 1,4,-1
 546 453 l 1,5,-1
 522 298 l 1,6,-1
 257 298 l 1,7,-1
 235 160 l 1,8,-1
 520 160 l 1,9,-1
 494 0 l 1,10,-1
 14 0 l 1,11,-1
 130 730 l 1,0,-1
EndSplineSet
EndChar

StartChar: uni1EBE
Encoding: 7870 7870 47
Width: 602
GlyphClass: 2
Flags: W
AnchorPoint: "Anchor-6" 265 730 basechar 0
AnchorPoint: "Anchor-5" 510 0 basechar 0
AnchorPoint: "Anchor-4" 265 0 basechar 0
LayerCount: 2
Fore
SplineSet
842 1160 m 1,0,-1
 691 950 l 1,1,-1
 570 950 l 1,2,-1
 643 770 l 1,3,-1
 437 770 l 1,4,-1
 401 910 l 1,5,-1
 399 910 l 1,6,-1
 319 770 l 1,7,-1
 113 770 l 1,8,-1
 264 980 l 1,9,-1
 538 980 l 1,10,-1
 616 1160 l 1,11,-1
 842 1160 l 1,0,-1
16 0 m 1,12,-1
 132 730 l 1,13,-1
 612 730 l 1,14,-1
 586 570 l 1,15,-1
 302 570 l 1,16,-1
 284 453 l 1,17,-1
 548 453 l 1,18,-1
 524 298 l 1,19,-1
 259 298 l 1,20,-1
 237 160 l 1,21,-1
 521 160 l 1,22,-1
 496 0 l 1,23,-1
 16 0 l 1,12,-1
EndSplineSet
EndChar

StartChar: uni1EC0
Encoding: 7872 7872 49
Width: 602
GlyphClass: 2
Flags: W
AnchorPoint: "Anchor-6" 265 730 basechar 0
AnchorPoint: "Anchor-5" 510 0 basechar 0
AnchorPoint: "Anchor-4" 265 0 basechar 0
LayerCount: 2
Fore
SplineSet
329 770 m 1,0,-1
 123 770 l 1,1,-1
 253 950 l 1,2,-1
 132 950 l 1,3,-1
 48 1160 l 1,4,-1
 273 1160 l 1,5,-1
 295 980 l 1,6,-1
 568 980 l 1,7,-1
 652 770 l 1,8,-1
 447 770 l 1,9,-1
 411 910 l 1,10,-1
 409 910 l 1,11,-1
 329 770 l 1,0,-1
26 0 m 1,12,-1
 141 730 l 1,13,-1
 622 730 l 1,14,-1
 596 570 l 1,15,-1
 312 570 l 1,16,-1
 293 453 l 1,17,-1
 558 453 l 1,18,-1
 533 298 l 1,19,-1
 269 298 l 1,20,-1
 247 160 l 1,21,-1
 531 160 l 1,22,-1
 506 0 l 1,23,-1
 26 0 l 1,12,-1
EndSplineSet
EndChar

StartChar: uni1EC2
Encoding: 7874 7874 50
Width: 595
GlyphClass: 2
Flags: W
AnchorPoint: "Anchor-6" 379 1170 basechar 0
AnchorPoint: "Anchor-5" 510 0 basechar 0
AnchorPoint: "Anchor-4" 265 0 basechar 0
LayerCount: 2
Fore
SplineSet
712.5 1012 m 128,-1,1
 700 977 700 977 685 950 c 1,2,-1
 570 950 l 1,3,-1
 643 770 l 1,4,-1
 437 770 l 1,5,-1
 401 910 l 1,6,-1
 399 910 l 1,7,-1
 319 770 l 1,8,-1
 113 770 l 1,9,-1
 264 980 l 1,10,-1
 540 980 l 1,11,12
 546 997 546 997 547 1010 c 0,13,14
 550 1028 550 1028 542 1034 c 128,-1,15
 534 1040 534 1040 508 1040 c 0,16,17
 475 1040 475 1040 433 1033.5 c 128,-1,18
 391 1027 391 1027 352 1015 c 1,19,-1
 359 1150 l 1,20,21
 402 1159 402 1159 455 1164.5 c 128,-1,22
 508 1170 508 1170 553 1170 c 0,23,24
 629 1170 629 1170 668.5 1161.5 c 128,-1,25
 708 1153 708 1153 721.5 1133 c 128,-1,26
 735 1113 735 1113 729 1075 c 0,27,0
 725 1047 725 1047 712.5 1012 c 128,-1,1
16 0 m 1,28,-1
 132 730 l 1,29,-1
 612 730 l 1,30,-1
 586 570 l 1,31,-1
 302 570 l 1,32,-1
 284 453 l 1,33,-1
 548 453 l 1,34,-1
 524 298 l 1,35,-1
 259 298 l 1,36,-1
 237 160 l 1,37,-1
 521 160 l 1,38,-1
 496 0 l 1,39,-1
 16 0 l 1,28,-1
EndSplineSet
EndChar

StartChar: Eogonek
Encoding: 280 280 60
Width: 595
GlyphClass: 2
Flags: W
AnchorPoint: "Anchor-6" 265 730 basechar 0
AnchorPoint: "Anchor-5" 510 0 basechar 0
AnchorPoint: "Anchor-4" 265 0 basechar 0
LayerCount: 2
Fore
SplineSet
553 -200 m 1,0,1
 497 -220 497 -220 427 -220 c 0,2,3
 326 -220 326 -220 277 -184 c 128,-1,4
 228 -148 228 -148 238 -82 c 0,5,6
 245 -40 245 -40 279 0 c 1,7,-1
 14 0 l 1,8,-1
 130 730 l 1,9,-1
 610 730 l 1,10,-1
 585 570 l 1,11,-1
 300 570 l 1,12,-1
 282 453 l 1,13,-1
 546 453 l 1,14,-1
 522 298 l 1,15,-1
 257 298 l 1,16,-1
 235 160 l 1,17,-1
 520 160 l 1,18,-1
 494 0 l 1,19,20
 419 -28 419 -28 415 -57 c 0,21,22
 413 -71 413 -71 424.5 -78 c 128,-1,23
 436 -85 436 -85 460 -85 c 0,24,25
 482 -85 482 -85 509 -79.5 c 128,-1,26
 536 -74 536 -74 560 -65 c 1,27,-1
 553 -200 l 1,0,1
EndSplineSet
EndChar

StartChar: F
Encoding: 70 70 62
Width: 583
Flags: W
LayerCount: 2
Fore
SplineSet
130 730 m 1,0,-1
 610 730 l 1,1,-1
 584 565 l 1,2,-1
 300 565 l 1,3,-1
 278 430 l 1,4,-1
 543 430 l 1,5,-1
 518 270 l 1,6,-1
 253 270 l 1,7,-1
 210 0 l 1,8,-1
 14 0 l 1,9,-1
 130 730 l 1,0,-1
EndSplineSet
EndChar

StartChar: G
Encoding: 71 71 63
Width: 745
GlyphClass: 2
Flags: W
AnchorPoint: "Anchor-6" 355 730 basechar 0
AnchorPoint: "Anchor-4" 355 0 basechar 0
LayerCount: 2
Fore
SplineSet
722 452 m 1,0,-1
 658 50 l 1,1,2
 598 21 598 21 525.5 5.5 c 128,-1,3
 453 -10 453 -10 375 -10 c 0,4,5
 253 -10 253 -10 171.5 34.5 c 128,-1,6
 90 79 90 79 56.5 163.5 c 128,-1,7
 23 248 23 248 42 365 c 256,8,9
 61 482 61 482 120.5 566.5 c 128,-1,10
 180 651 180 651 275.5 695.5 c 128,-1,11
 371 740 371 740 493 740 c 0,12,13
 645 740 645 740 733 674 c 1,14,-1
 636 524 l 1,15,16
 559 575 559 575 467 575 c 0,17,18
 276 575 276 575 243 365 c 256,19,20
 210 155 210 155 401 155 c 0,21,22
 441 155 441 155 481 166 c 1,23,-1
 500 287 l 1,24,-1
 358 287 l 1,25,-1
 384 452 l 1,26,-1
 722 452 l 1,0,-1
EndSplineSet
EndChar

StartChar: H
Encoding: 72 72 69
Width: 706
GlyphClass: 2
Flags: W
AnchorPoint: "Anchor-6" 320 730 basechar 0
AnchorPoint: "Anchor-4" 320 0 basechar 0
LayerCount: 2
Fore
SplineSet
522 730 m 1,0,-1
 718 730 l 1,1,-1
 602 0 l 1,2,-1
 406 0 l 1,3,-1
 453 295 l 1,4,-1
 257 295 l 1,5,-1
 210 0 l 1,6,-1
 14 0 l 1,7,-1
 130 730 l 1,8,-1
 326 730 l 1,9,-1
 284 465 l 1,10,-1
 480 465 l 1,11,-1
 522 730 l 1,0,-1
EndSplineSet
EndChar

StartChar: Hbar
Encoding: 294 294 70
Width: 802
GlyphClass: 2
Flags: W
AnchorPoint: "Anchor-6" 366 730 basechar 0
AnchorPoint: "Anchor-4" 366 0 basechar 0
LayerCount: 2
Fore
SplineSet
844 666 m 1,0,-1
 822 526 l 1,1,-1
 734 526 l 1,2,-1
 650 0 l 1,3,-1
 454 0 l 1,4,-1
 501 295 l 1,5,-1
 305 295 l 1,6,-1
 258 0 l 1,7,-1
 62 0 l 1,8,-1
 146 526 l 1,9,-1
 57 526 l 1,10,-1
 80 666 l 1,11,-1
 168 666 l 1,12,-1
 178 730 l 1,13,-1
 374 730 l 1,14,-1
 364 666 l 1,15,-1
 560 666 l 1,16,-1
 570 730 l 1,17,-1
 766 730 l 1,18,-1
 756 666 l 1,19,-1
 844 666 l 1,0,-1
528 465 m 1,20,-1
 538 526 l 1,21,-1
 342 526 l 1,22,-1
 332 465 l 1,23,-1
 528 465 l 1,20,-1
EndSplineSet
EndChar

StartChar: I
Encoding: 73 73 72
Width: 336
GlyphClass: 2
Flags: W
AnchorPoint: "Anchor-6" 132 730 basechar 0
AnchorPoint: "Anchor-5" 237 0 basechar 0
AnchorPoint: "Anchor-4" 132 0 basechar 0
LayerCount: 2
Fore
SplineSet
136 730 m 1,0,-1
 342 730 l 1,1,-1
 226 0 l 1,2,-1
 21 0 l 1,3,-1
 136 730 l 1,0,-1
EndSplineSet
EndChar

StartChar: Iogonek
Encoding: 302 302 84
Width: 345
GlyphClass: 2
Flags: W
AnchorPoint: "Anchor-6" 132 730 basechar 0
AnchorPoint: "Anchor-5" 237 0 basechar 0
AnchorPoint: "Anchor-4" 132 0 basechar 0
LayerCount: 2
Fore
SplineSet
287 -200 m 1,0,1
 231 -220 231 -220 162 -220 c 0,2,3
 61 -220 61 -220 12 -184 c 128,-1,4
 -37 -148 -37 -148 -27 -82 c 0,5,6
 -19 -33 -19 -33 25 14 c 1,7,-1
 139 730 l 1,8,-1
 345 730 l 1,9,-1
 229 0 l 1,10,11
 154 -28 154 -28 149 -57 c 0,12,13
 147 -71 147 -71 158.5 -78 c 128,-1,14
 170 -85 170 -85 195 -85 c 0,15,16
 217 -85 217 -85 243.5 -79.5 c 128,-1,17
 270 -74 270 -74 294 -65 c 1,18,-1
 287 -200 l 1,0,1
EndSplineSet
EndChar

StartChar: J
Encoding: 74 74 86
Width: 568
GlyphClass: 2
Flags: W
AnchorPoint: "Anchor-6" 248 730 basechar 0
AnchorPoint: "Anchor-4" 248 0 basechar 0
LayerCount: 2
Fore
SplineSet
72 2.5 m 128,-1,1
 12 15 12 15 -36 39 c 1,2,-1
 35 209 l 1,3,4
 135 165 135 165 198 165 c 0,5,6
 248 165 248 165 276 193 c 128,-1,7
 304 221 304 221 314 280 c 2,8,-1
 385 730 l 1,9,-1
 586 730 l 1,10,-1
 515 280 l 2,11,12
 491 128 491 128 413 59 c 128,-1,13
 335 -10 335 -10 189 -10 c 0,14,0
 132 -10 132 -10 72 2.5 c 128,-1,1
EndSplineSet
EndChar

StartChar: K
Encoding: 75 75 88
Width: 688
GlyphClass: 2
Flags: W
AnchorPoint: "Anchor-6" 295 730 basechar 0
AnchorPoint: "Anchor-4" 295 0 basechar 0
LayerCount: 2
Fore
SplineSet
130 730 m 1,0,-1
 326 730 l 1,1,-1
 277 420 l 1,2,-1
 279 420 l 1,3,-1
 512 730 l 1,4,-1
 737 730 l 1,5,-1
 457 380 l 1,6,-1
 632 0 l 1,7,-1
 406 0 l 1,8,-1
 266 340 l 1,9,-1
 264 340 l 1,10,-1
 210 0 l 1,11,-1
 14 0 l 1,12,-1
 130 730 l 1,0,-1
EndSplineSet
EndChar

StartChar: L
Encoding: 76 76 90
Width: 572
GlyphClass: 2
Flags: W
AnchorPoint: "Anchor-7" 526 730 basechar 0
AnchorPoint: "Anchor-6" 251 730 basechar 0
AnchorPoint: "Anchor-4" 251 0 basechar 0
LayerCount: 2
Fore
SplineSet
130 730 m 1,0,-1
 331 730 l 1,1,-1
 242 170 l 1,2,-1
 531 170 l 1,3,-1
 504 0 l 1,4,-1
 14 0 l 1,5,-1
 130 730 l 1,0,-1
EndSplineSet
EndChar

StartChar: Lslash
Encoding: 321 321 97
Width: 673
GlyphClass: 2
Flags: W
AnchorPoint: "Anchor-7" 625 730 basechar 0
AnchorPoint: "Anchor-6" 350 730 basechar 0
AnchorPoint: "Anchor-4" 350 0 basechar 0
LayerCount: 2
Fore
SplineSet
343 170 m 1,0,-1
 632 170 l 1,1,-1
 605 0 l 1,2,-1
 115 0 l 1,3,-1
 154 247 l 1,4,-1
 48 207 l 1,5,-1
 15 337 l 1,6,-1
 178 399 l 1,7,-1
 231 730 l 1,8,-1
 432 730 l 1,9,-1
 392 481 l 1,10,-1
 504 523 l 1,11,-1
 537 393 l 1,12,-1
 368 329 l 1,13,-1
 343 170 l 1,0,-1
EndSplineSet
EndChar

StartChar: M
Encoding: 77 77 98
Width: 863
Flags: W
LayerCount: 2
Fore
SplineSet
130 730 m 1,0,-1
 373 730 l 1,1,-1
 439 340 l 1,2,-1
 441 340 l 1,3,-1
 632 730 l 1,4,-1
 875 730 l 1,5,-1
 759 0 l 1,6,-1
 563 0 l 1,7,-1
 629 420 l 1,8,-1
 628 420 l 1,9,-1
 499 155 l 1,10,-1
 323 155 l 1,11,-1
 279 420 l 1,12,-1
 277 420 l 1,13,-1
 210 0 l 1,14,-1
 14 0 l 1,15,-1
 130 730 l 1,0,-1
EndSplineSet
EndChar

StartChar: N
Encoding: 78 78 99
Width: 716
GlyphClass: 2
Flags: W
AnchorPoint: "Anchor-6" 325 730 basechar 0
AnchorPoint: "Anchor-4" 325 0 basechar 0
LayerCount: 2
Fore
SplineSet
130 730 m 1,0,-1
 326 730 l 1,1,-1
 466 330 l 1,2,-1
 468 330 l 1,3,-1
 532 730 l 1,4,-1
 728 730 l 1,5,-1
 612 0 l 1,6,-1
 416 0 l 1,7,-1
 275 400 l 1,8,-1
 274 400 l 1,9,-1
 210 0 l 1,10,-1
 14 0 l 1,11,-1
 130 730 l 1,0,-1
EndSplineSet
EndChar

StartChar: Eng
Encoding: 330 330 104
Width: 716
GlyphClass: 2
Flags: W
AnchorPoint: "Anchor-6" 325 730 basechar 0
AnchorPoint: "Anchor-4" 325 0 basechar 0
LayerCount: 2
Fore
SplineSet
728 730 m 1,0,-1
 612 0 l 2,1,2
 598 -85 598 -85 569.5 -134.5 c 128,-1,3
 541 -184 541 -184 492.5 -206.5 c 128,-1,4
 444 -229 444 -229 368 -229 c 0,5,6
 303 -229 303 -229 227 -214 c 1,7,-1
 271 -59 l 1,8,9
 312 -70 312 -70 351 -70 c 0,10,11
 381 -70 381 -70 394.5 -55.5 c 128,-1,12
 408 -41 408 -41 416 1 c 1,13,-1
 272 380 l 1,14,-1
 270 380 l 1,15,-1
 210 0 l 1,16,-1
 14 0 l 1,17,-1
 130 730 l 1,18,-1
 326 730 l 1,19,-1
 469 350 l 1,20,-1
 471 350 l 1,21,-1
 532 730 l 1,22,-1
 728 730 l 1,0,-1
EndSplineSet
EndChar

StartChar: O
Encoding: 79 79 107
Width: 793
GlyphClass: 2
Flags: W
AnchorPoint: "Anchor-7" 559 690 basechar 0
AnchorPoint: "Anchor-6" 362 730 basechar 0
AnchorPoint: "Anchor-5" 435 0 basechar 0
AnchorPoint: "Anchor-4" 362 0 basechar 0
LayerCount: 2
Fore
SplineSet
159.5 34.5 m 128,-1,1
 84 79 84 79 53.5 163.5 c 128,-1,2
 23 248 23 248 42 365 c 256,3,4
 61 482 61 482 117.5 566.5 c 128,-1,5
 174 651 174 651 264 695.5 c 128,-1,6
 354 740 354 740 469 740 c 256,7,8
 584 740 584 740 659.5 695.5 c 128,-1,9
 735 651 735 651 765 566.5 c 128,-1,10
 795 482 795 482 777 365 c 256,11,12
 758 248 758 248 701 163.5 c 128,-1,13
 644 79 644 79 554.5 34.5 c 128,-1,14
 465 -10 465 -10 350 -10 c 256,15,0
 235 -10 235 -10 159.5 34.5 c 128,-1,1
576 365 m 256,17,18
 608 570 608 570 442 570 c 256,19,20
 275 570 275 570 243 365 c 256,21,22
 211 160 211 160 377 160 c 256,23,16
 544 160 544 160 576 365 c 256,17,18
EndSplineSet
Substitution2: "Single Substitution lookup 21 subtable" ordmasculine
Substitution2: "'aalt' Access All Alternates in Latin lookup 0 subtable" ordmasculine
EndChar

StartChar: uni1ED0
Encoding: 7888 7888 111
Width: 795
GlyphClass: 2
Flags: W
AnchorPoint: "Anchor-7" 559 690 basechar 0
AnchorPoint: "Anchor-6" 362 730 basechar 0
AnchorPoint: "Anchor-5" 435 0 basechar 0
AnchorPoint: "Anchor-4" 362 0 basechar 0
LayerCount: 2
Fore
SplineSet
495 910 m 1,0,-1
 415 770 l 1,1,-1
 209 770 l 1,2,-1
 360 980 l 1,3,-1
 633 980 l 1,4,-1
 712 1160 l 1,5,-1
 937 1160 l 1,6,-1
 786 950 l 1,7,-1
 666 950 l 1,8,-1
 738 770 l 1,9,-1
 532 770 l 1,10,-1
 497 910 l 1,11,-1
 495 910 l 1,0,-1
659 695.5 m 128,-1,13
 735 651 735 651 765 566.5 c 128,-1,14
 795 482 795 482 777 365 c 256,15,16
 758 248 758 248 701 163.5 c 128,-1,17
 644 79 644 79 554.5 34.5 c 128,-1,18
 465 -10 465 -10 350 -10 c 256,19,20
 235 -10 235 -10 159.5 34.5 c 128,-1,21
 84 79 84 79 53.5 163.5 c 128,-1,22
 23 248 23 248 42 365 c 256,23,24
 61 482 61 482 117.5 566.5 c 128,-1,25
 174 651 174 651 264 695.5 c 128,-1,26
 354 740 354 740 469 740 c 256,27,12
 583 740 583 740 659 695.5 c 128,-1,13
576 365 m 256,29,30
 608 570 608 570 442 570 c 256,31,32
 275 570 275 570 243 365 c 256,33,34
 211 160 211 160 377 160 c 256,35,28
 544 160 544 160 576 365 c 256,29,30
EndSplineSet
EndChar

StartChar: uni1ED2
Encoding: 7890 7890 113
Width: 795
GlyphClass: 2
Flags: W
AnchorPoint: "Anchor-7" 559 690 basechar 0
AnchorPoint: "Anchor-6" 362 730 basechar 0
AnchorPoint: "Anchor-5" 435 0 basechar 0
AnchorPoint: "Anchor-4" 362 0 basechar 0
LayerCount: 2
Fore
SplineSet
341 950 m 1,0,-1
 220 950 l 1,1,-1
 136 1160 l 1,2,-1
 361 1160 l 1,3,-1
 383 980 l 1,4,-1
 656 980 l 1,5,-1
 741 770 l 1,6,-1
 535 770 l 1,7,-1
 499 910 l 1,8,-1
 497 910 l 1,9,-1
 417 770 l 1,10,-1
 211 770 l 1,11,-1
 341 950 l 1,0,-1
661.5 695.5 m 128,-1,13
 737 651 737 651 767.5 566.5 c 128,-1,14
 798 482 798 482 779 365 c 256,15,16
 760 248 760 248 703.5 163.5 c 128,-1,17
 647 79 647 79 557 34.5 c 128,-1,18
 467 -10 467 -10 352 -10 c 256,19,20
 237 -10 237 -10 161.5 34.5 c 128,-1,21
 86 79 86 79 56 163.5 c 128,-1,22
 26 248 26 248 44 365 c 256,23,24
 63 482 63 482 120 566.5 c 128,-1,25
 177 651 177 651 267 695.5 c 128,-1,26
 357 740 357 740 471 740 c 256,27,12
 586 740 586 740 661.5 695.5 c 128,-1,13
578 365 m 256,29,30
 610 570 610 570 444 570 c 256,31,32
 277 570 277 570 245 365 c 256,33,34
 213 160 213 160 379 160 c 256,35,28
 546 160 546 160 578 365 c 256,29,30
EndSplineSet
EndChar

StartChar: uni1ED4
Encoding: 7892 7892 114
Width: 793
GlyphClass: 2
Flags: W
AnchorPoint: "Anchor-7" 559 690 basechar 0
AnchorPoint: "Anchor-6" 476 1170 basechar 0
AnchorPoint: "Anchor-5" 435 0 basechar 0
AnchorPoint: "Anchor-4" 362 0 basechar 0
LayerCount: 2
Fore
SplineSet
415 770 m 1,0,-1
 209 770 l 1,1,-1
 360 980 l 1,2,-1
 635 980 l 1,3,4
 641 997 641 997 643 1010 c 0,5,6
 646 1028 646 1028 638 1034 c 128,-1,7
 630 1040 630 1040 604 1040 c 0,8,9
 571 1040 571 1040 529 1033.5 c 128,-1,10
 487 1027 487 1027 448 1015 c 1,11,-1
 454 1150 l 1,12,13
 497 1159 497 1159 550.5 1164.5 c 128,-1,14
 604 1170 604 1170 649 1170 c 0,15,16
 725 1170 725 1170 764.5 1161.5 c 128,-1,17
 804 1153 804 1153 817.5 1133 c 128,-1,18
 831 1113 831 1113 825 1075 c 0,19,20
 821 1047 821 1047 808 1012 c 128,-1,21
 795 977 795 977 780 950 c 1,22,-1
 666 950 l 1,23,-1
 738 770 l 1,24,-1
 532 770 l 1,25,-1
 497 910 l 1,26,-1
 495 910 l 1,27,-1
 415 770 l 1,0,-1
659 695.5 m 128,-1,29
 735 651 735 651 765 566.5 c 128,-1,30
 795 482 795 482 777 365 c 256,31,32
 758 248 758 248 701 163.5 c 128,-1,33
 644 79 644 79 554.5 34.5 c 128,-1,34
 465 -10 465 -10 350 -10 c 256,35,36
 235 -10 235 -10 159.5 34.5 c 128,-1,37
 84 79 84 79 53.5 163.5 c 128,-1,38
 23 248 23 248 42 365 c 256,39,40
 61 482 61 482 117.5 566.5 c 128,-1,41
 174 651 174 651 264 695.5 c 128,-1,42
 354 740 354 740 469 740 c 256,43,28
 583 740 583 740 659 695.5 c 128,-1,29
576 365 m 256,45,46
 608 570 608 570 442 570 c 256,47,48
 275 570 275 570 243 365 c 256,49,50
 211 160 211 160 377 160 c 256,51,44
 544 160 544 160 576 365 c 256,45,46
EndSplineSet
EndChar

StartChar: Ohorn
Encoding: 416 416 123
Width: 826
GlyphClass: 2
Flags: W
AnchorPoint: "Anchor-7" 819 835 basechar 0
AnchorPoint: "Anchor-6" 362 730 basechar 0
AnchorPoint: "Anchor-5" 435 0 basechar 0
AnchorPoint: "Anchor-4" 362 0 basechar 0
LayerCount: 2
Fore
SplineSet
865.5 579.5 m 128,-1,1
 831 535 831 535 777 521 c 1,2,3
 791 453 791 453 777 365 c 0,4,5
 758 248 758 248 701 163.5 c 128,-1,6
 644 79 644 79 554.5 34.5 c 128,-1,7
 465 -10 465 -10 350 -10 c 256,8,9
 235 -10 235 -10 159.5 34.5 c 128,-1,10
 84 79 84 79 53.5 163.5 c 128,-1,11
 23 248 23 248 42 365 c 256,12,13
 61 482 61 482 117.5 566.5 c 128,-1,14
 174 651 174 651 264 695.5 c 128,-1,15
 354 740 354 740 469 740 c 0,16,17
 622 740 622 740 703 662 c 1,18,19
 718 667 718 667 728 681 c 128,-1,20
 738 695 738 695 741 715 c 0,21,22
 744 737 744 737 743 773.5 c 128,-1,23
 742 810 742 810 736 835 c 1,24,-1
 912 835 l 1,25,26
 924 772 924 772 912 697 c 0,27,0
 900 624 900 624 865.5 579.5 c 128,-1,1
576 365 m 256,29,30
 608 570 608 570 442 570 c 256,31,32
 275 570 275 570 243 365 c 256,33,34
 211 160 211 160 377 160 c 256,35,28
 544 160 544 160 576 365 c 256,29,30
EndSplineSet
EndChar

StartChar: uni01EA
Encoding: 490 490 132
Width: 793
GlyphClass: 2
Flags: W
AnchorPoint: "Anchor-7" 559 690 basechar 0
AnchorPoint: "Anchor-6" 362 730 basechar 0
AnchorPoint: "Anchor-5" 435 0 basechar 0
AnchorPoint: "Anchor-4" 362 0 basechar 0
LayerCount: 2
Fore
SplineSet
344 -57 m 0,1,2
 342 -71 342 -71 353.5 -78 c 128,-1,3
 365 -85 365 -85 389 -85 c 0,4,5
 411 -85 411 -85 437.5 -79.5 c 128,-1,6
 464 -74 464 -74 488 -65 c 1,7,-1
 482 -200 l 1,8,9
 426 -220 426 -220 356 -220 c 0,10,11
 255 -220 255 -220 206 -184 c 128,-1,12
 157 -148 157 -148 167 -82 c 0,13,14
 174 -35 174 -35 216 9 c 1,15,16
 111 44 111 44 65.5 136 c 128,-1,17
 20 228 20 228 42 365 c 0,18,19
 61 482 61 482 117.5 566.5 c 128,-1,20
 174 651 174 651 264 695.5 c 128,-1,21
 354 740 354 740 469 740 c 256,22,23
 584 740 584 740 659.5 695.5 c 128,-1,24
 735 651 735 651 765 566.5 c 128,-1,25
 795 482 795 482 777 365 c 0,26,27
 751 202 751 202 653.5 105 c 128,-1,28
 556 8 556 8 404 -7 c 1,29,0
 348 -32 348 -32 344 -57 c 0,1,2
243 365 m 256,31,32
 211 160 211 160 377 160 c 256,33,34
 544 160 544 160 576 365 c 256,35,36
 608 570 608 570 442 570 c 256,37,30
 275 570 275 570 243 365 c 256,31,32
EndSplineSet
EndChar

StartChar: Oslash
Encoding: 216 216 133
Width: 793
GlyphClass: 2
Flags: W
AnchorPoint: "Anchor-7" 559 690 basechar 0
AnchorPoint: "Anchor-6" 362 730 basechar 0
AnchorPoint: "Anchor-5" 435 0 basechar 0
AnchorPoint: "Anchor-4" 362 0 basechar 0
LayerCount: 2
Fore
SplineSet
777 365 m 0,1,2
 758 248 758 248 701 163.5 c 128,-1,3
 644 79 644 79 554.5 34.5 c 128,-1,4
 465 -10 465 -10 350 -10 c 0,5,6
 262 -10 262 -10 193 18 c 1,7,-1
 127 -55 l 1,8,-1
 24 35 l 1,9,-1
 85 103 l 1,10,11
 16 201 16 201 42 365 c 0,12,13
 61 482 61 482 117.5 566.5 c 128,-1,14
 174 651 174 651 264 695.5 c 128,-1,15
 354 740 354 740 469 740 c 0,16,17
 557 740 557 740 626 712 c 1,18,-1
 692 785 l 1,19,-1
 795 695 l 1,20,-1
 734 627 l 1,21,0
 803 529 803 529 777 365 c 0,1,2
239 277 m 1,23,-1
 495 564 l 1,24,25
 471 570 471 570 442 570 c 0,26,27
 275 570 275 570 243 365 c 0,28,22
 235 313 235 313 239 277 c 1,23,-1
576 365 m 0,30,31
 584 417 584 417 580 453 c 1,32,-1
 324 166 l 1,33,34
 348 160 348 160 377 160 c 0,35,29
 544 160 544 160 576 365 c 0,30,31
EndSplineSet
EndChar

StartChar: OE
Encoding: 338 338 137
Width: 1027
GlyphClass: 2
Flags: W
AnchorPoint: "Anchor-6" 710 730 basechar 0
AnchorPoint: "Anchor-5" 955 0 basechar 0
AnchorPoint: "Anchor-4" 710 0 basechar 0
LayerCount: 2
Fore
SplineSet
739 570 m 1,0,-1
 720 453 l 1,1,-1
 985 453 l 1,2,-1
 960 298 l 1,3,-1
 696 298 l 1,4,-1
 674 160 l 1,5,-1
 958 160 l 1,6,-1
 933 0 l 1,7,-1
 454 0 l 1,8,9
 406 -10 406 -10 350 -10 c 0,10,11
 235 -10 235 -10 159.5 34.5 c 128,-1,12
 84 79 84 79 53.5 163.5 c 128,-1,13
 23 248 23 248 42 365 c 256,14,15
 61 482 61 482 117.5 566.5 c 128,-1,16
 174 651 174 651 264 695.5 c 128,-1,17
 354 740 354 740 469 740 c 0,18,19
 525 740 525 740 569 730 c 1,20,-1
 1048 730 l 1,21,-1
 1023 570 l 1,22,-1
 739 570 l 1,0,-1
377 160 m 0,24,25
 438 160 438 160 482 189 c 1,26,-1
 538 541 l 1,27,28
 502 570 502 570 442 570 c 0,29,30
 275 570 275 570 243 365 c 256,31,23
 210 160 210 160 377 160 c 0,24,25
EndSplineSet
EndChar

StartChar: P
Encoding: 80 80 138
Width: 641
Flags: W
LayerCount: 2
Fore
SplineSet
596 667 m 128,-1,1
 668 604 668 604 648 475 c 0,2,3
 628 351 628 351 542.5 285.5 c 128,-1,4
 457 220 457 220 314 220 c 2,5,-1
 245 220 l 1,6,-1
 210 0 l 1,7,-1
 14 0 l 1,8,-1
 130 730 l 1,9,-1
 355 730 l 2,10,0
 524 730 524 730 596 667 c 128,-1,1
405.5 403 m 128,-1,12
 439 426 439 426 447 475 c 256,13,14
 455 524 455 524 428.5 547 c 128,-1,15
 402 570 402 570 340 570 c 2,16,-1
 300 570 l 1,17,-1
 270 380 l 1,18,-1
 310 380 l 2,19,11
 372 380 372 380 405.5 403 c 128,-1,12
EndSplineSet
EndChar

StartChar: Thorn
Encoding: 222 222 139
Width: 641
Flags: W
LayerCount: 2
Fore
SplineSet
580.5 567 m 128,-1,1
 653 504 653 504 632 375 c 0,2,3
 612 251 612 251 526.5 185.5 c 128,-1,4
 441 120 441 120 298 120 c 2,5,-1
 229 120 l 1,6,-1
 210 0 l 1,7,-1
 14 0 l 1,8,-1
 130 730 l 1,9,-1
 326 730 l 1,10,-1
 310 630 l 1,11,-1
 339 630 l 2,12,0
 508 630 508 630 580.5 567 c 128,-1,1
389.5 303 m 128,-1,14
 423 326 423 326 431 375 c 256,15,16
 439 424 439 424 413 447 c 128,-1,17
 387 470 387 470 324 470 c 2,18,-1
 285 470 l 1,19,-1
 254 280 l 1,20,-1
 294 280 l 2,21,13
 356 280 356 280 389.5 303 c 128,-1,14
EndSplineSet
EndChar

StartChar: Q
Encoding: 81 81 140
Width: 797
Flags: W
LayerCount: 2
Fore
SplineSet
727 -40 m 1,1,-1
 553 -150 l 1,2,3
 528 -94 528 -94 502 -64.5 c 128,-1,4
 476 -35 476 -35 441 -22.5 c 128,-1,5
 406 -10 406 -10 350 -10 c 0,6,7
 235 -10 235 -10 160 34.5 c 128,-1,8
 85 79 85 79 54 163.5 c 128,-1,9
 23 248 23 248 42 365 c 256,10,11
 61 482 61 482 118 566.5 c 128,-1,12
 175 651 175 651 264.5 695.5 c 128,-1,13
 354 740 354 740 469 740 c 0,14,15
 585 740 585 740 660.5 695.5 c 128,-1,16
 736 651 736 651 765.5 566.5 c 128,-1,17
 795 482 795 482 777 365 c 0,18,19
 763 269 763 269 720 195 c 128,-1,20
 677 121 677 121 608 74 c 1,21,0
 685 30 685 30 727 -40 c 1,1,-1
510.5 211.5 m 128,-1,23
 561 263 561 263 576 365 c 0,24,25
 610 570 610 570 442 570 c 0,26,27
 277 570 277 570 243 365 c 0,28,29
 212 160 212 160 377 160 c 0,30,22
 460 160 460 160 510.5 211.5 c 128,-1,23
EndSplineSet
EndChar

StartChar: R
Encoding: 82 82 141
Width: 670
GlyphClass: 2
Flags: W
AnchorPoint: "Anchor-6" 285 730 basechar 0
AnchorPoint: "Anchor-4" 285 0 basechar 0
LayerCount: 2
Fore
SplineSet
252 255 m 1,0,-1
 251 255 l 1,1,-1
 210 0 l 1,2,-1
 14 0 l 1,3,-1
 130 730 l 1,4,-1
 355 730 l 2,5,6
 524 730 524 730 597 672 c 128,-1,7
 670 614 670 614 651 495 c 0,8,9
 637 408 637 408 586.5 351.5 c 128,-1,10
 536 295 536 295 452 272 c 1,11,-1
 602 0 l 1,12,-1
 392 0 l 1,13,-1
 252 255 l 1,0,-1
300 570 m 1,14,-1
 274 400 l 1,15,-1
 313 400 l 2,16,17
 376 400 376 400 409 421 c 128,-1,18
 442 442 442 442 449 485 c 256,19,20
 456 528 456 528 429 549 c 128,-1,21
 402 570 402 570 340 570 c 2,22,-1
 300 570 l 1,14,-1
EndSplineSet
EndChar

StartChar: S
Encoding: 83 83 147
Width: 619
GlyphClass: 2
Flags: W
AnchorPoint: "Anchor-6" 273 730 basechar 0
AnchorPoint: "Anchor-4" 273 0 basechar 0
LayerCount: 2
Fore
SplineSet
104 6.5 m 128,-1,1
 40 23 40 23 -1 54 c 1,2,-1
 83 212 l 1,3,4
 126 185 126 185 177 170 c 128,-1,5
 228 155 228 155 275 155 c 0,6,7
 315 155 315 155 338.5 169 c 128,-1,8
 362 183 362 183 367 210 c 0,9,10
 370 232 370 232 355.5 245.5 c 128,-1,11
 341 259 341 259 299 275 c 0,12,13
 208 308 208 308 157 343.5 c 128,-1,14
 106 379 106 379 87.5 422.5 c 128,-1,15
 69 466 69 466 79 525 c 0,16,17
 95 629 95 629 177 684.5 c 128,-1,18
 259 740 259 740 397 740 c 0,19,20
 463 740 463 740 525.5 727 c 128,-1,21
 588 714 588 714 631 692 c 1,22,-1
 547 534 l 1,23,24
 465 575 465 575 380 575 c 0,25,26
 292 575 292 575 284 525 c 0,27,28
 281 504 281 504 297.5 489.5 c 128,-1,29
 314 475 314 475 357 458 c 0,30,31
 447 423 447 423 496 387.5 c 128,-1,32
 545 352 545 352 563.5 309.5 c 128,-1,33
 582 267 582 267 573 210 c 0,34,35
 556 104 556 104 472 47 c 128,-1,36
 388 -10 388 -10 249 -10 c 0,37,0
 168 -10 168 -10 104 6.5 c 128,-1,1
EndSplineSet
EndChar

StartChar: Scedilla
Encoding: 350 350 150
Width: 619
GlyphClass: 2
Flags: W
AnchorPoint: "Anchor-6" 273 730 basechar 0
AnchorPoint: "Anchor-4" 273 0 basechar 0
LayerCount: 2
Fore
SplineSet
517 87 m 128,-1,1
 473 37 473 37 399 12 c 1,2,3
 428 -32 428 -32 420 -82 c 0,4,5
 410 -148 410 -148 349.5 -184 c 128,-1,6
 289 -220 289 -220 188 -220 c 0,7,8
 118 -220 118 -220 69 -200 c 1,9,-1
 105 -65 l 1,10,11
 126 -74 126 -74 151 -79.5 c 128,-1,12
 176 -85 176 -85 198 -85 c 0,13,14
 222 -85 222 -85 236 -78 c 128,-1,15
 250 -71 250 -71 252 -57 c 0,16,17
 256 -32 256 -32 210 -9 c 1,18,19
 71 -1 71 -1 -1 54 c 1,20,-1
 83 212 l 1,21,22
 126 185 126 185 177 170 c 128,-1,23
 228 155 228 155 275 155 c 0,24,25
 315 155 315 155 338.5 169 c 128,-1,26
 362 183 362 183 367 210 c 0,27,28
 370 232 370 232 355.5 245.5 c 128,-1,29
 341 259 341 259 299 275 c 0,30,31
 208 308 208 308 157 343.5 c 128,-1,32
 106 379 106 379 87.5 422.5 c 128,-1,33
 69 466 69 466 79 525 c 0,34,35
 95 629 95 629 177 684.5 c 128,-1,36
 259 740 259 740 397 740 c 0,37,38
 463 740 463 740 525.5 727 c 128,-1,39
 588 714 588 714 631 692 c 1,40,-1
 547 534 l 1,41,42
 465 575 465 575 380 575 c 0,43,44
 292 575 292 575 284 525 c 0,45,46
 281 504 281 504 297.5 489.5 c 128,-1,47
 314 475 314 475 357 458 c 0,48,49
 447 423 447 423 496 387.5 c 128,-1,50
 545 352 545 352 563.5 309.5 c 128,-1,51
 582 267 582 267 573 210 c 0,52,0
 561 137 561 137 517 87 c 128,-1,1
EndSplineSet
Substitution2: "'locl' Localized Forms in Latin lookup 4 subtable" uni0218
Substitution2: "'aalt' Access All Alternates in Latin lookup 0 subtable" uni0218
EndChar

StartChar: uni1E9E
Encoding: 7838 7838 153
Width: 697
Flags: W
LayerCount: 2
Fore
SplineSet
262 15 m 1,1,-1
 312 180 l 1,2,3
 357 160 357 160 392 160 c 0,4,5
 456 160 456 160 465 220 c 0,6,7
 469 244 469 244 460 256.5 c 128,-1,8
 451 269 451 269 425 274.5 c 128,-1,9
 399 280 399 280 348 280 c 1,10,-1
 367 400 l 1,11,-1
 456 500 l 1,12,13
 462 538 462 538 445.5 554 c 128,-1,14
 429 570 429 570 384 570 c 256,15,16
 339 570 339 570 317 554 c 128,-1,17
 295 538 295 538 289 500 c 2,18,-1
 210 0 l 1,19,-1
 14 0 l 1,20,-1
 93 500 l 2,21,22
 131 740 131 740 411 740 c 256,23,24
 690 740 690 740 652 500 c 1,25,-1
 550 397 l 1,26,-1
 550 395 l 1,27,28
 619 381 619 381 648 334 c 128,-1,29
 677 287 677 287 665 210 c 0,30,31
 648 103 648 103 578 46.5 c 128,-1,32
 508 -10 508 -10 395 -10 c 0,33,0
 323 -10 323 -10 262 15 c 1,1,-1
EndSplineSet
EndChar

StartChar: uni018F
Encoding: 399 399 154
Width: 742
Flags: W
LayerCount: 2
Fore
SplineSet
666 643 m 128,-1,1
 755 546 755 546 726 365 c 0,2,3
 708 249 708 249 652.5 164.5 c 128,-1,4
 597 80 597 80 511 35 c 128,-1,5
 425 -10 425 -10 317 -10 c 0,6,7
 212 -10 212 -10 143 32.5 c 128,-1,8
 74 75 74 75 47 156.5 c 128,-1,9
 20 238 20 238 38 351 c 0,10,11
 42 378 42 378 48 407.5 c 128,-1,12
 54 437 54 437 58 448 c 1,13,-1
 542 448 l 1,14,15
 549 514 549 514 508.5 542 c 128,-1,16
 468 570 468 570 370 570 c 0,17,18
 260 570 260 570 151 536 c 1,19,-1
 144 701 l 1,20,21
 192 719 192 719 256 729.5 c 128,-1,22
 320 740 320 740 384 740 c 0,23,0
 577 740 577 740 666 643 c 128,-1,1
455.5 191.5 m 128,-1,25
 496 223 496 223 515 290 c 1,26,-1
 227 290 l 1,27,28
 225 223 225 223 255.5 191.5 c 128,-1,29
 286 160 286 160 351 160 c 256,30,24
 415 160 415 160 455.5 191.5 c 128,-1,25
EndSplineSet
EndChar

StartChar: T
Encoding: 84 84 155
Width: 632
GlyphClass: 2
Flags: W
AnchorPoint: "Anchor-8" 177 0 basechar 0
AnchorPoint: "Anchor-6" 280 730 basechar 0
AnchorPoint: "Anchor-4" 280 0 basechar 0
LayerCount: 2
Fore
SplineSet
259 560 m 1,0,-1
 67 560 l 1,1,-1
 94 730 l 1,2,-1
 679 730 l 1,3,-1
 652 560 l 1,4,-1
 460 560 l 1,5,-1
 372 0 l 1,6,-1
 171 0 l 1,7,-1
 259 560 l 1,0,-1
EndSplineSet
EndChar

StartChar: Tbar
Encoding: 358 358 156
Width: 679
GlyphClass: 2
Flags: W
AnchorPoint: "Anchor-8" 203 0 basechar 0
AnchorPoint: "Anchor-6" 306 730 basechar 0
AnchorPoint: "Anchor-4" 306 0 basechar 0
LayerCount: 2
Fore
SplineSet
676 560 m 1,0,-1
 484 560 l 1,1,-1
 456 385 l 1,2,-1
 601 385 l 1,3,-1
 579 245 l 1,4,-1
 434 245 l 1,5,-1
 395 0 l 1,6,-1
 194 0 l 1,7,-1
 233 245 l 1,8,-1
 89 245 l 1,9,-1
 111 385 l 1,10,-1
 255 385 l 1,11,-1
 283 560 l 1,12,-1
 91 560 l 1,13,-1
 118 730 l 1,14,-1
 703 730 l 1,15,-1
 676 560 l 1,0,-1
EndSplineSet
EndChar

StartChar: uni0162
Encoding: 354 354 158
Width: 632
GlyphClass: 2
Flags: W
AnchorPoint: "Anchor-8" 177 0 basechar 0
AnchorPoint: "Anchor-6" 280 730 basechar 0
AnchorPoint: "Anchor-4" 280 0 basechar 0
LayerCount: 2
Fore
SplineSet
460 560 m 1,0,-1
 375 20 l 1,1,2
 409 -29 409 -29 401 -82 c 0,3,4
 391 -148 391 -148 330 -184 c 128,-1,5
 269 -220 269 -220 168 -220 c 0,6,7
 98 -220 98 -220 49 -200 c 1,8,-1
 85 -65 l 1,9,10
 106 -74 106 -74 131 -79.5 c 128,-1,11
 156 -85 156 -85 178 -85 c 0,12,13
 202 -85 202 -85 216 -78 c 128,-1,14
 230 -71 230 -71 232 -57 c 0,15,16
 237 -28 237 -28 171 0 c 1,17,-1
 259 560 l 1,18,-1
 67 560 l 1,19,-1
 94 730 l 1,20,-1
 679 730 l 1,21,-1
 652 560 l 1,22,-1
 460 560 l 1,0,-1
EndSplineSet
Substitution2: "'locl' Localized Forms in Latin lookup 4 subtable" uni021A
Substitution2: "'aalt' Access All Alternates in Latin lookup 0 subtable" uni021A
EndChar

StartChar: U
Encoding: 85 85 160
Width: 695
GlyphClass: 2
Flags: W
AnchorPoint: "Anchor-7" 584 690 basechar 0
AnchorPoint: "Anchor-6" 314 730 basechar 0
AnchorPoint: "Anchor-5" 447 10 basechar 0
AnchorPoint: "Anchor-4" 314 0 basechar 0
LayerCount: 2
Fore
SplineSet
94 62 m 128,-1,1
 30 134 30 134 51 270 c 2,2,-1
 124 730 l 1,3,-1
 320 730 l 1,4,-1
 251 295 l 2,5,6
 239 219 239 219 256 189.5 c 128,-1,7
 273 160 273 160 328 160 c 256,8,9
 383 160 383 160 409 189.5 c 128,-1,10
 435 219 435 219 447 295 c 2,11,-1
 516 730 l 1,12,-1
 712 730 l 1,13,-1
 639 270 l 2,14,15
 617 134 617 134 530.5 62 c 128,-1,16
 444 -10 444 -10 301 -10 c 256,17,0
 158 -10 158 -10 94 62 c 128,-1,1
EndSplineSet
EndChar

StartChar: Uhorn
Encoding: 431 431 169
Width: 857
GlyphClass: 2
Flags: W
AnchorPoint: "Anchor-7" 844 835 basechar 0
AnchorPoint: "Anchor-6" 314 730 basechar 0
AnchorPoint: "Anchor-5" 447 10 basechar 0
AnchorPoint: "Anchor-4" 314 0 basechar 0
LayerCount: 2
Fore
SplineSet
934 697 m 0,1,2
 920 608 920 608 873 561.5 c 128,-1,3
 826 515 826 515 752 515 c 0,4,5
 717 515 717 515 680 527 c 1,6,-1
 639 270 l 2,7,8
 617 134 617 134 530.5 62 c 128,-1,9
 444 -10 444 -10 301 -10 c 256,10,11
 158 -10 158 -10 94 62 c 128,-1,12
 30 134 30 134 51 270 c 2,13,-1
 124 730 l 1,14,-1
 320 730 l 1,15,-1
 251 295 l 2,16,17
 239 219 239 219 256 189.5 c 128,-1,18
 273 160 273 160 328 160 c 256,19,20
 383 160 383 160 409 189.5 c 128,-1,21
 435 219 435 219 447 295 c 2,22,-1
 516 730 l 1,23,-1
 712 730 l 1,24,-1
 701 661 l 2,25,26
 704 660 704 660 711 660 c 0,27,28
 732 660 732 660 746 674.5 c 128,-1,29
 760 689 760 689 764 715 c 0,30,31
 767 737 767 737 765.5 773.5 c 128,-1,32
 764 810 764 810 758 835 c 1,33,-1
 935 835 l 1,34,0
 946 772 946 772 934 697 c 0,1,2
EndSplineSet
EndChar

StartChar: Uogonek
Encoding: 370 370 178
Width: 695
GlyphClass: 2
Flags: W
AnchorPoint: "Anchor-7" 584 690 basechar 0
AnchorPoint: "Anchor-6" 314 730 basechar 0
AnchorPoint: "Anchor-5" 447 10 basechar 0
AnchorPoint: "Anchor-4" 314 0 basechar 0
LayerCount: 2
Fore
SplineSet
712 730 m 1,0,-1
 639 270 l 2,1,2
 623 167 623 167 569 100 c 128,-1,3
 515 33 515 33 426 7 c 1,4,5
 359 -20 359 -20 355 -47 c 0,6,7
 353 -61 353 -61 364.5 -68 c 128,-1,8
 376 -75 376 -75 401 -75 c 0,9,10
 423 -75 423 -75 449.5 -69.5 c 128,-1,11
 476 -64 476 -64 500 -55 c 1,12,-1
 493 -190 l 1,13,14
 437 -210 437 -210 367 -210 c 0,15,16
 266 -210 266 -210 217 -174 c 128,-1,17
 168 -138 168 -138 179 -72 c 0,18,19
 185 -34 185 -34 209 -1 c 1,20,21
 113 20 113 20 73.5 89 c 128,-1,22
 34 158 34 158 51 270 c 2,23,-1
 124 730 l 1,24,-1
 320 730 l 1,25,-1
 251 295 l 2,26,27
 239 219 239 219 256 189.5 c 128,-1,28
 273 160 273 160 328 160 c 256,29,30
 383 160 383 160 409 189.5 c 128,-1,31
 435 219 435 219 447 295 c 2,32,-1
 516 730 l 1,33,-1
 712 730 l 1,0,-1
EndSplineSet
EndChar

StartChar: Uring
Encoding: 366 366 179
Width: 695
GlyphClass: 2
Flags: W
AnchorPoint: "Anchor-7" 584 690 basechar 0
AnchorPoint: "Anchor-6" 314 930 basechar 0
AnchorPoint: "Anchor-5" 447 10 basechar 0
AnchorPoint: "Anchor-4" 314 0 basechar 0
LayerCount: 2
Fore
SplineSet
712 730 m 1,0,-1
 639 270 l 2,1,2
 617 134 617 134 530.5 62 c 128,-1,3
 444 -10 444 -10 301 -10 c 256,4,5
 158 -10 158 -10 94 62 c 128,-1,6
 30 134 30 134 51 270 c 2,7,-1
 124 730 l 1,8,-1
 296 730 l 1,9,10
 279 753 279 753 272 782.5 c 128,-1,11
 265 812 265 812 270 845 c 0,12,13
 277 891 277 891 306 930 c 128,-1,14
 335 969 335 969 376.5 992 c 128,-1,15
 418 1015 418 1015 463 1015 c 256,16,17
 508 1015 508 1015 543 992 c 128,-1,18
 578 969 578 969 594 930 c 128,-1,19
 610 891 610 891 603 845 c 0,20,21
 598 812 598 812 581.5 782.5 c 128,-1,22
 565 753 565 753 541 730 c 1,23,-1
 712 730 l 1,0,-1
404.5 884 m 128,-1,25
 386 868 386 868 383 845 c 256,26,27
 379 822 379 822 392 806 c 128,-1,28
 405 790 405 790 428 790 c 256,29,30
 451 790 451 790 469 806 c 128,-1,31
 487 822 487 822 490 845 c 256,32,33
 494 868 494 868 481 884 c 128,-1,34
 468 900 468 900 445 900 c 256,35,24
 423 900 423 900 404.5 884 c 128,-1,25
409 189.5 m 128,-1,37
 435 219 435 219 447 295 c 2,38,-1
 513 707 l 1,39,40
 464 675 464 675 410 675 c 256,41,42
 356 675 356 675 317 707 c 1,43,-1
 251 295 l 2,44,45
 239 219 239 219 256 189.5 c 128,-1,46
 273 160 273 160 328 160 c 256,47,36
 383 160 383 160 409 189.5 c 128,-1,37
EndSplineSet
EndChar

StartChar: V
Encoding: 86 86 181
Width: 688
Flags: W
LayerCount: 2
Fore
SplineSet
77 730 m 1,0,-1
 293 730 l 1,1,-1
 330 200 l 1,2,-1
 332 200 l 1,3,-1
 538 730 l 1,4,-1
 753 730 l 1,5,-1
 427 0 l 1,6,-1
 172 0 l 1,7,-1
 77 730 l 1,0,-1
EndSplineSet
EndChar

StartChar: W
Encoding: 87 87 182
Width: 939
GlyphClass: 2
Flags: W
AnchorPoint: "Anchor-6" 436 730 basechar 0
AnchorPoint: "Anchor-4" 436 0 basechar 0
LayerCount: 2
Fore
SplineSet
505 530 m 1,0,-1
 503 530 l 1,1,-1
 347 0 l 1,2,-1
 121 0 l 1,3,-1
 85 730 l 1,4,-1
 283 730 l 1,5,-1
 272 200 l 1,6,-1
 274 200 l 1,7,-1
 420 730 l 1,8,-1
 656 730 l 1,9,-1
 634 200 l 1,10,-1
 636 200 l 1,11,-1
 793 730 l 1,12,-1
 987 730 l 1,13,-1
 719 0 l 1,14,-1
 494 0 l 1,15,-1
 505 530 l 1,0,-1
EndSplineSet
EndChar

StartChar: X
Encoding: 88 88 187
Width: 679
Flags: W
LayerCount: 2
Fore
SplineSet
206 365 m 1,0,-1
 97 730 l 1,1,-1
 318 730 l 1,2,-1
 369 475 l 1,3,-1
 371 475 l 1,4,-1
 504 730 l 1,5,-1
 724 730 l 1,6,-1
 500 365 l 1,7,-1
 609 0 l 1,8,-1
 388 0 l 1,9,-1
 336 255 l 1,10,-1
 334 255 l 1,11,-1
 202 0 l 1,12,-1
 -19 0 l 1,13,-1
 206 365 l 1,0,-1
EndSplineSet
EndChar

StartChar: Y
Encoding: 89 89 188
Width: 673
GlyphClass: 2
Flags: W
AnchorPoint: "Anchor-6" 299 730 basechar 0
AnchorPoint: "Anchor-4" 299 0 basechar 0
LayerCount: 2
Fore
SplineSet
232 270 m 1,0,-1
 74 730 l 1,1,-1
 290 730 l 1,2,-1
 361 440 l 1,3,-1
 363 440 l 1,4,-1
 525 730 l 1,5,-1
 741 730 l 1,6,-1
 438 270 l 1,7,-1
 395 0 l 1,8,-1
 189 0 l 1,9,-1
 232 270 l 1,0,-1
EndSplineSet
EndChar

StartChar: Z
Encoding: 90 90 197
Width: 623
GlyphClass: 2
Flags: W
AnchorPoint: "Anchor-6" 277 730 basechar 0
AnchorPoint: "Anchor-4" 277 0 basechar 0
LayerCount: 2
Fore
SplineSet
28 165 m 1,0,-1
 390 563 l 1,1,-1
 391 565 l 1,2,-1
 92 565 l 1,3,-1
 118 730 l 1,4,-1
 647 730 l 1,5,-1
 621 565 l 1,6,-1
 259 167 l 1,7,-1
 259 165 l 1,8,-1
 558 165 l 1,9,-1
 532 0 l 1,10,-1
 2 0 l 1,11,-1
 28 165 l 1,0,-1
EndSplineSet
EndChar

StartChar: a
Encoding: 97 97 201
Width: 546
GlyphClass: 2
Flags: W
AnchorPoint: "Anchor-6" 236 520 basechar 0
AnchorPoint: "Anchor-5" 486 0 basechar 0
AnchorPoint: "Anchor-4" 236 0 basechar 0
LayerCount: 2
Fore
SplineSet
476 481 m 128,-1,1
 521 432 521 432 504 320 c 2,2,-1
 453 0 l 1,3,-1
 278 0 l 1,4,-1
 286 60 l 1,5,-1
 284 60 l 1,6,7
 217 -10 217 -10 131 -10 c 0,8,9
 62 -10 62 -10 25.5 34.5 c 128,-1,10
 -11 79 -11 79 1 150 c 0,11,12
 15 236 15 236 92 283 c 128,-1,13
 169 330 169 330 298 330 c 2,14,-1
 321 330 l 1,15,16
 327 367 327 367 318 378.5 c 128,-1,17
 309 390 309 390 274 390 c 0,18,19
 231 390 231 390 182 378.5 c 128,-1,20
 133 367 133 367 84 346 c 1,21,-1
 68 481 l 1,22,23
 123 505 123 505 185.5 517.5 c 128,-1,24
 248 530 248 530 311 530 c 0,25,0
 431 530 431 530 476 481 c 128,-1,1
271 144 m 128,-1,27
 294 163 294 163 300 195 c 2,28,-1
 304 225 l 1,29,-1
 281 225 l 2,30,31
 227 225 227 225 200.5 212 c 128,-1,32
 174 199 174 199 169 170 c 0,33,34
 166 148 166 148 177.5 136.5 c 128,-1,35
 189 125 189 125 214 125 c 0,36,26
 248 125 248 125 271 144 c 128,-1,27
EndSplineSet
Substitution2: "Single Substitution lookup 21 subtable" ordfeminine
Substitution2: "'aalt' Access All Alternates in Latin lookup 0 subtable" ordfeminine
EndChar

StartChar: uni1EAF
Encoding: 7855 7855 204
Width: 546
GlyphClass: 2
Flags: W
AnchorPoint: "Anchor-6" 236 520 basechar 0
AnchorPoint: "Anchor-5" 486 0 basechar 0
AnchorPoint: "Anchor-4" 236 0 basechar 0
LayerCount: 2
Fore
SplineSet
188 578.5 m 128,-1,1
 139 607 139 607 116.5 657 c 128,-1,2
 94 707 94 707 104 770 c 1,3,-1
 235 770 l 1,4,-1
 321 970 l 1,5,-1
 538 970 l 1,6,-1
 392 760 l 1,7,-1
 264 760 l 1,8,9
 264 719 264 719 279 699.5 c 128,-1,10
 294 680 294 680 326 680 c 0,11,12
 359 680 359 680 381 702 c 128,-1,13
 403 724 403 724 416 770 c 1,14,-1
 576 770 l 1,15,16
 566 707 566 707 528 657 c 128,-1,17
 490 607 490 607 431.5 578.5 c 128,-1,18
 373 550 373 550 305 550 c 256,19,0
 237 550 237 550 188 578.5 c 128,-1,1
476 481 m 128,-1,21
 521 432 521 432 504 320 c 2,22,-1
 453 0 l 1,23,-1
 278 0 l 1,24,-1
 286 60 l 1,25,-1
 284 60 l 1,26,27
 217 -10 217 -10 131 -10 c 0,28,29
 62 -10 62 -10 25.5 34.5 c 128,-1,30
 -11 79 -11 79 1 150 c 0,31,32
 15 236 15 236 92 283 c 128,-1,33
 169 330 169 330 298 330 c 2,34,-1
 321 330 l 1,35,36
 327 367 327 367 318 378.5 c 128,-1,37
 309 390 309 390 274 390 c 0,38,39
 231 390 231 390 182 378.5 c 128,-1,40
 133 367 133 367 84 346 c 1,41,-1
 68 481 l 1,42,43
 123 505 123 505 185.5 517.5 c 128,-1,44
 248 530 248 530 311 530 c 0,45,20
 431 530 431 530 476 481 c 128,-1,21
271 144 m 128,-1,47
 294 163 294 163 300 195 c 2,48,-1
 304 225 l 1,49,-1
 281 225 l 2,50,51
 227 225 227 225 200.5 212 c 128,-1,52
 174 199 174 199 169 170 c 0,53,54
 166 148 166 148 177.5 136.5 c 128,-1,55
 189 125 189 125 214 125 c 0,56,46
 248 125 248 125 271 144 c 128,-1,47
EndSplineSet
EndChar

StartChar: uni1EB1
Encoding: 7857 7857 206
Width: 546
GlyphClass: 2
Flags: W
AnchorPoint: "Anchor-6" 236 520 basechar 0
AnchorPoint: "Anchor-5" 486 0 basechar 0
AnchorPoint: "Anchor-4" 236 0 basechar 0
LayerCount: 2
Fore
SplineSet
378.5 699.5 m 128,-1,1
 400 719 400 719 413 760 c 1,2,-1
 285 760 l 1,3,-1
 206 970 l 1,4,-1
 423 970 l 1,5,-1
 445 770 l 1,6,-1
 576 770 l 1,7,8
 566 707 566 707 528 657 c 128,-1,9
 490 607 490 607 431.5 578.5 c 128,-1,10
 373 550 373 550 305 550 c 256,11,12
 237 550 237 550 188 578.5 c 128,-1,13
 139 607 139 607 116.5 657 c 128,-1,14
 94 707 94 707 104 770 c 1,15,-1
 264 770 l 1,16,17
 261 724 261 724 276.5 702 c 128,-1,18
 292 680 292 680 326 680 c 0,19,0
 357 680 357 680 378.5 699.5 c 128,-1,1
476 481 m 128,-1,21
 521 432 521 432 504 320 c 2,22,-1
 453 0 l 1,23,-1
 278 0 l 1,24,-1
 286 60 l 1,25,-1
 284 60 l 1,26,27
 217 -10 217 -10 131 -10 c 0,28,29
 62 -10 62 -10 25.5 34.5 c 128,-1,30
 -11 79 -11 79 1 150 c 0,31,32
 15 236 15 236 92 283 c 128,-1,33
 169 330 169 330 298 330 c 2,34,-1
 321 330 l 1,35,36
 327 367 327 367 318 378.5 c 128,-1,37
 309 390 309 390 274 390 c 0,38,39
 231 390 231 390 182 378.5 c 128,-1,40
 133 367 133 367 84 346 c 1,41,-1
 68 481 l 1,42,43
 123 505 123 505 185.5 517.5 c 128,-1,44
 248 530 248 530 311 530 c 0,45,20
 431 530 431 530 476 481 c 128,-1,21
271 144 m 128,-1,47
 294 163 294 163 300 195 c 2,48,-1
 304 225 l 1,49,-1
 281 225 l 2,50,51
 227 225 227 225 200.5 212 c 128,-1,52
 174 199 174 199 169 170 c 0,53,54
 166 148 166 148 177.5 136.5 c 128,-1,55
 189 125 189 125 214 125 c 0,56,46
 248 125 248 125 271 144 c 128,-1,47
EndSplineSet
EndChar

StartChar: uni1EB3
Encoding: 7859 7859 207
Width: 545
GlyphClass: 2
Flags: W
AnchorPoint: "Anchor-6" 236 980 basechar 0
AnchorPoint: "Anchor-5" 485 0 basechar 0
AnchorPoint: "Anchor-4" 236 0 basechar 0
LayerCount: 2
Fore
SplineSet
378.5 699.5 m 128,-1,1
 400 719 400 719 413 760 c 1,2,-1
 348 760 l 1,3,4
 363 797 363 797 367 820 c 0,5,6
 370 838 370 838 362.5 844 c 128,-1,7
 355 850 355 850 329 850 c 0,8,9
 297 850 297 850 257 843.5 c 128,-1,10
 217 837 217 837 179 825 c 1,11,-1
 186 960 l 1,12,13
 227 969 227 969 278.5 974.5 c 128,-1,14
 330 980 330 980 373 980 c 0,15,16
 447 980 447 980 484.5 971.5 c 128,-1,17
 522 963 522 963 535 943 c 128,-1,18
 548 923 548 923 542 885 c 0,19,20
 538 859 538 859 528 827.5 c 128,-1,21
 518 796 518 796 504 770 c 1,22,-1
 575 770 l 1,23,24
 565 707 565 707 527 657 c 128,-1,25
 489 607 489 607 431 578.5 c 128,-1,26
 373 550 373 550 305 550 c 256,27,28
 237 550 237 550 188 578.5 c 128,-1,29
 139 607 139 607 116.5 657 c 128,-1,30
 94 707 94 707 104 770 c 1,31,-1
 264 770 l 1,32,33
 261 724 261 724 276.5 702 c 128,-1,34
 292 680 292 680 326 680 c 0,35,0
 357 680 357 680 378.5 699.5 c 128,-1,1
476 481 m 128,-1,37
 521 432 521 432 503 320 c 2,38,-1
 453 0 l 1,39,-1
 278 0 l 1,40,-1
 285 60 l 1,41,-1
 283 60 l 1,42,43
 216 -10 216 -10 131 -10 c 0,44,45
 62 -10 62 -10 25.5 34.5 c 128,-1,46
 -11 79 -11 79 1 150 c 0,47,48
 15 236 15 236 92 283 c 128,-1,49
 169 330 169 330 298 330 c 2,50,-1
 321 330 l 1,51,52
 327 367 327 367 317.5 378.5 c 128,-1,53
 308 390 308 390 273 390 c 0,54,55
 231 390 231 390 182 378.5 c 128,-1,56
 133 367 133 367 84 346 c 1,57,-1
 68 481 l 1,58,59
 123 505 123 505 185.5 517.5 c 128,-1,60
 248 530 248 530 310 530 c 0,61,36
 431 530 431 530 476 481 c 128,-1,37
270.5 144 m 128,-1,63
 294 163 294 163 299 195 c 2,64,-1
 304 225 l 1,65,-1
 281 225 l 2,66,67
 227 225 227 225 200.5 212 c 128,-1,68
 174 199 174 199 169 170 c 0,69,70
 166 148 166 148 177.5 136.5 c 128,-1,71
 189 125 189 125 214 125 c 0,72,62
 247 125 247 125 270.5 144 c 128,-1,63
EndSplineSet
EndChar

StartChar: uni1EA5
Encoding: 7845 7845 210
Width: 553
GlyphClass: 2
Flags: W
AnchorPoint: "Anchor-6" 236 520 basechar 0
AnchorPoint: "Anchor-5" 486 0 basechar 0
AnchorPoint: "Anchor-4" 236 0 basechar 0
LayerCount: 2
Fore
SplineSet
757 950 m 1,0,-1
 610 740 l 1,1,-1
 494 740 l 1,2,-1
 562 560 l 1,3,-1
 364 560 l 1,4,-1
 331 700 l 1,5,-1
 329 700 l 1,6,-1
 251 560 l 1,7,-1
 53 560 l 1,8,-1
 199 770 l 1,9,-1
 463 770 l 1,10,-1
 539 950 l 1,11,-1
 757 950 l 1,0,-1
477 481 m 128,-1,13
 522 432 522 432 504 320 c 2,14,-1
 453 0 l 1,15,-1
 279 0 l 1,16,-1
 286 60 l 1,17,-1
 284 60 l 1,18,19
 217 -10 217 -10 132 -10 c 0,20,21
 63 -10 63 -10 26.5 34.5 c 128,-1,22
 -10 79 -10 79 1 150 c 0,23,24
 15 236 15 236 92 283 c 128,-1,25
 169 330 169 330 299 330 c 2,26,-1
 321 330 l 1,27,28
 327 367 327 367 318 378.5 c 128,-1,29
 309 390 309 390 274 390 c 0,30,31
 231 390 231 390 182.5 378.5 c 128,-1,32
 134 367 134 367 85 346 c 1,33,-1
 69 481 l 1,34,35
 124 505 124 505 186.5 517.5 c 128,-1,36
 249 530 249 530 311 530 c 0,37,12
 432 530 432 530 477 481 c 128,-1,13
271.5 144 m 128,-1,39
 295 163 295 163 300 195 c 2,40,-1
 305 225 l 1,41,-1
 282 225 l 2,42,43
 228 225 228 225 201 212 c 128,-1,44
 174 199 174 199 170 170 c 0,45,46
 167 148 167 148 178 136.5 c 128,-1,47
 189 125 189 125 215 125 c 0,48,38
 248 125 248 125 271.5 144 c 128,-1,39
EndSplineSet
EndChar

StartChar: uni1EA7
Encoding: 7847 7847 212
Width: 553
GlyphClass: 2
Flags: W
AnchorPoint: "Anchor-6" 236 520 basechar 0
AnchorPoint: "Anchor-5" 486 0 basechar 0
AnchorPoint: "Anchor-4" 236 0 basechar 0
LayerCount: 2
Fore
SplineSet
256 560 m 1,0,-1
 58 560 l 1,1,-1
 184 740 l 1,2,-1
 68 740 l 1,3,-1
 -13 950 l 1,4,-1
 205 950 l 1,5,-1
 224 770 l 1,6,-1
 488 770 l 1,7,-1
 568 560 l 1,8,-1
 370 560 l 1,9,-1
 336 700 l 1,10,-1
 334 700 l 1,11,-1
 256 560 l 1,0,-1
482 481 m 128,-1,13
 527 432 527 432 510 320 c 2,14,-1
 459 0 l 1,15,-1
 284 0 l 1,16,-1
 292 60 l 1,17,-1
 290 60 l 1,18,19
 223 -10 223 -10 137 -10 c 0,20,21
 68 -10 68 -10 32 34.5 c 128,-1,22
 -4 79 -4 79 7 150 c 0,23,24
 21 236 21 236 98 283 c 128,-1,25
 175 330 175 330 304 330 c 2,26,-1
 327 330 l 1,27,28
 333 367 333 367 324 378.5 c 128,-1,29
 315 390 315 390 280 390 c 0,30,31
 237 390 237 390 188 378.5 c 128,-1,32
 139 367 139 367 90 346 c 1,33,-1
 74 481 l 1,34,35
 129 505 129 505 192 517.5 c 128,-1,36
 255 530 255 530 317 530 c 0,37,12
 437 530 437 530 482 481 c 128,-1,13
277.5 144 m 128,-1,39
 301 163 301 163 306 195 c 2,40,-1
 310 225 l 1,41,-1
 288 225 l 2,42,43
 234 225 234 225 207 212 c 128,-1,44
 180 199 180 199 175 170 c 0,45,46
 172 148 172 148 183.5 136.5 c 128,-1,47
 195 125 195 125 220 125 c 0,48,38
 254 125 254 125 277.5 144 c 128,-1,39
EndSplineSet
EndChar

StartChar: uni1EA9
Encoding: 7849 7849 213
Width: 548
GlyphClass: 2
Flags: W
AnchorPoint: "Anchor-6" 351 960 basechar 0
AnchorPoint: "Anchor-5" 486 0 basechar 0
AnchorPoint: "Anchor-4" 236 0 basechar 0
LayerCount: 2
Fore
SplineSet
630 802 m 128,-1,1
 618 767 618 767 604 740 c 1,2,-1
 494 740 l 1,3,-1
 562 560 l 1,4,-1
 364 560 l 1,5,-1
 331 700 l 1,6,-1
 329 700 l 1,7,-1
 251 560 l 1,8,-1
 53 560 l 1,9,-1
 199 770 l 1,10,-1
 464 770 l 1,11,12
 470 787 470 787 472 800 c 0,13,14
 475 818 475 818 467.5 824 c 128,-1,15
 460 830 460 830 434 830 c 0,16,17
 402 830 402 830 361.5 823.5 c 128,-1,18
 321 817 321 817 284 805 c 1,19,-1
 291 940 l 1,20,21
 332 949 332 949 383.5 954.5 c 128,-1,22
 435 960 435 960 478 960 c 0,23,24
 552 960 552 960 589.5 951.5 c 128,-1,25
 627 943 627 943 640 923 c 128,-1,26
 653 903 653 903 647 865 c 0,27,0
 642 837 642 837 630 802 c 128,-1,1
477 481 m 128,-1,29
 522 432 522 432 504 320 c 2,30,-1
 453 0 l 1,31,-1
 279 0 l 1,32,-1
 286 60 l 1,33,-1
 284 60 l 1,34,35
 217 -10 217 -10 132 -10 c 0,36,37
 63 -10 63 -10 26.5 34.5 c 128,-1,38
 -10 79 -10 79 1 150 c 0,39,40
 15 236 15 236 92 283 c 128,-1,41
 169 330 169 330 299 330 c 2,42,-1
 321 330 l 1,43,44
 327 367 327 367 318 378.5 c 128,-1,45
 309 390 309 390 274 390 c 0,46,47
 231 390 231 390 182.5 378.5 c 128,-1,48
 134 367 134 367 85 346 c 1,49,-1
 69 481 l 1,50,51
 124 505 124 505 186.5 517.5 c 128,-1,52
 249 530 249 530 311 530 c 0,53,28
 432 530 432 530 477 481 c 128,-1,29
271.5 144 m 128,-1,55
 295 163 295 163 300 195 c 2,56,-1
 305 225 l 1,57,-1
 282 225 l 2,58,59
 228 225 228 225 201 212 c 128,-1,60
 174 199 174 199 170 170 c 0,61,62
 167 148 167 148 178 136.5 c 128,-1,63
 189 125 189 125 215 125 c 0,64,54
 248 125 248 125 271.5 144 c 128,-1,55
EndSplineSet
EndChar

StartChar: aogonek
Encoding: 261 261 222
Width: 549
GlyphClass: 2
Flags: W
AnchorPoint: "Anchor-6" 236 520 basechar 0
AnchorPoint: "Anchor-5" 485 0 basechar 0
AnchorPoint: "Anchor-4" 236 0 basechar 0
LayerCount: 2
Fore
SplineSet
508 -200 m 1,0,1
 454 -220 454 -220 387 -220 c 0,2,3
 290 -220 290 -220 243 -184 c 128,-1,4
 196 -148 196 -148 206 -82 c 0,5,6
 211 -50 211 -50 229.5 -21.5 c 128,-1,7
 248 7 248 7 283 38 c 1,8,-1
 285 60 l 1,9,-1
 283 60 l 1,10,11
 216 -10 216 -10 131 -10 c 0,12,13
 62 -10 62 -10 25.5 34.5 c 128,-1,14
 -11 79 -11 79 1 150 c 0,15,16
 15 236 15 236 92 283 c 128,-1,17
 169 330 169 330 298 330 c 2,18,-1
 320 330 l 1,19,20
 326 367 326 367 317 378.5 c 128,-1,21
 308 390 308 390 273 390 c 0,22,23
 231 390 231 390 182 378.5 c 128,-1,24
 133 367 133 367 84 346 c 1,25,-1
 68 481 l 1,26,27
 123 505 123 505 185.5 517.5 c 128,-1,28
 248 530 248 530 310 530 c 0,29,30
 431 530 431 530 476 481 c 128,-1,31
 521 432 521 432 503 320 c 2,32,-1
 452 0 l 1,33,34
 380 -28 380 -28 376 -57 c 0,35,36
 374 -71 374 -71 385 -78 c 128,-1,37
 396 -85 396 -85 419 -85 c 0,38,39
 440 -85 440 -85 466 -79.5 c 128,-1,40
 492 -74 492 -74 515 -65 c 1,41,-1
 508 -200 l 1,0,1
270.5 144 m 128,-1,43
 294 163 294 163 299 195 c 2,44,-1
 304 225 l 1,45,-1
 281 225 l 2,46,47
 227 225 227 225 200.5 212 c 128,-1,48
 174 199 174 199 169 170 c 0,49,50
 166 148 166 148 177.5 136.5 c 128,-1,51
 189 125 189 125 214 125 c 0,52,42
 247 125 247 125 270.5 144 c 128,-1,43
EndSplineSet
EndChar

StartChar: aring
Encoding: 229 229 223
Width: 545
GlyphClass: 2
Flags: W
AnchorPoint: "Anchor-6" 236 750 basechar 0
AnchorPoint: "Anchor-5" 485 0 basechar 0
AnchorPoint: "Anchor-4" 236 0 basechar 0
LayerCount: 2
Fore
SplineSet
491.5 460.5 m 128,-1,1
 518 412 518 412 503 320 c 2,2,-1
 453 0 l 1,3,-1
 278 0 l 1,4,-1
 285 60 l 1,5,-1
 284 60 l 1,6,7
 217 -10 217 -10 131 -10 c 0,8,9
 62 -10 62 -10 25.5 34.5 c 128,-1,10
 -11 79 -11 79 1 150 c 0,11,12
 15 236 15 236 92 283 c 128,-1,13
 169 330 169 330 298 330 c 2,14,-1
 321 330 l 1,15,16
 327 367 327 367 317.5 378.5 c 128,-1,17
 308 390 308 390 273 390 c 0,18,19
 231 390 231 390 182 378.5 c 128,-1,20
 133 367 133 367 84 346 c 1,21,-1
 68 481 l 1,22,23
 132 509 132 509 213 522 c 1,24,25
 184 546 184 546 170 583.5 c 128,-1,26
 156 621 156 621 163 665 c 0,27,28
 170 711 170 711 198 750 c 128,-1,29
 226 789 226 789 266.5 812 c 128,-1,30
 307 835 307 835 350 835 c 256,31,32
 393 835 393 835 426.5 812 c 128,-1,33
 460 789 460 789 475.5 750 c 128,-1,34
 491 711 491 711 484 665 c 0,35,36
 477 621 477 621 451.5 584 c 128,-1,37
 426 547 426 547 390 524 c 1,38,0
 465 509 465 509 491.5 460.5 c 128,-1,1
292.5 704 m 128,-1,40
 275 688 275 688 271 665 c 256,41,42
 267 642 267 642 280 626 c 128,-1,43
 293 610 293 610 315 610 c 256,44,45
 337 610 337 610 354.5 626 c 128,-1,46
 372 642 372 642 376 665 c 256,47,48
 380 688 380 688 367 704 c 128,-1,49
 354 720 354 720 332 720 c 256,50,39
 310 720 310 720 292.5 704 c 128,-1,40
270.5 144 m 128,-1,52
 294 163 294 163 299 195 c 2,53,-1
 304 225 l 1,54,-1
 281 225 l 2,55,56
 227 225 227 225 200.5 212 c 128,-1,57
 174 199 174 199 169 170 c 0,58,59
 166 148 166 148 177.5 136.5 c 128,-1,60
 189 125 189 125 214 125 c 0,61,51
 247 125 247 125 270.5 144 c 128,-1,52
EndSplineSet
EndChar

StartChar: aringacute
Encoding: 507 507 224
Width: 545
GlyphClass: 2
Flags: W
AnchorPoint: "Anchor-6" 236 750 basechar 0
AnchorPoint: "Anchor-5" 485 0 basechar 0
AnchorPoint: "Anchor-4" 236 0 basechar 0
LayerCount: 2
Fore
SplineSet
491.5 460.5 m 128,-1,1
 518 412 518 412 503 320 c 2,2,-1
 453 0 l 1,3,-1
 278 0 l 1,4,-1
 285 60 l 1,5,-1
 284 60 l 1,6,7
 217 -10 217 -10 131 -10 c 0,8,9
 62 -10 62 -10 25.5 34.5 c 128,-1,10
 -11 79 -11 79 1 150 c 0,11,12
 15 236 15 236 92 283 c 128,-1,13
 169 330 169 330 298 330 c 2,14,-1
 321 330 l 1,15,16
 327 367 327 367 317.5 378.5 c 128,-1,17
 308 390 308 390 273 390 c 0,18,19
 231 390 231 390 182 378.5 c 128,-1,20
 133 367 133 367 84 346 c 1,21,-1
 68 481 l 1,22,23
 132 509 132 509 213 522 c 1,24,25
 184 546 184 546 170 583.5 c 128,-1,26
 156 621 156 621 163 665 c 0,27,28
 169 702 169 702 188 734.5 c 128,-1,29
 207 767 207 767 236 792 c 1,30,-1
 325 1000 l 1,31,-1
 542 1000 l 1,32,-1
 416 819 l 1,33,34
 454 798 454 798 473 756.5 c 128,-1,35
 492 715 492 715 484 665 c 0,36,37
 477 621 477 621 451.5 584 c 128,-1,38
 426 547 426 547 390 524 c 1,39,0
 465 509 465 509 491.5 460.5 c 128,-1,1
292.5 704 m 128,-1,41
 275 688 275 688 271 665 c 256,42,43
 267 642 267 642 280 626 c 128,-1,44
 293 610 293 610 315 610 c 256,45,46
 337 610 337 610 354.5 626 c 128,-1,47
 372 642 372 642 376 665 c 256,48,49
 380 688 380 688 367 704 c 128,-1,50
 354 720 354 720 332 720 c 256,51,40
 310 720 310 720 292.5 704 c 128,-1,41
270.5 144 m 128,-1,53
 294 163 294 163 299 195 c 2,54,-1
 304 225 l 1,55,-1
 281 225 l 2,56,57
 227 225 227 225 200.5 212 c 128,-1,58
 174 199 174 199 169 170 c 0,59,60
 166 148 166 148 177.5 136.5 c 128,-1,61
 189 125 189 125 214 125 c 0,62,52
 247 125 247 125 270.5 144 c 128,-1,53
EndSplineSet
EndChar

StartChar: ae
Encoding: 230 230 226
AltUni2: 0004d5.ffffffff.0
Width: 842
GlyphClass: 2
Flags: W
AnchorPoint: "Anchor-6" 406 520 basechar 0
AnchorPoint: "Anchor-4" 406 0 basechar 0
LayerCount: 2
Fore
SplineSet
800 200 m 1,1,-1
 484 200 l 1,2,3
 482 160 482 160 508 142.5 c 128,-1,4
 534 125 534 125 594 125 c 0,5,6
 665 125 665 125 734 148 c 1,7,-1
 737 18 l 1,8,9
 703 5 703 5 655.5 -2.5 c 128,-1,10
 608 -10 608 -10 562 -10 c 0,11,12
 433 -10 433 -10 366 48 c 1,13,14
 289 -10 289 -10 179 -10 c 0,15,16
 -24 -10 -24 -10 1 150 c 0,17,18
 15 236 15 236 92 283 c 128,-1,19
 169 330 169 330 298 330 c 2,20,-1
 321 330 l 1,21,22
 327 367 327 367 318 378.5 c 128,-1,23
 309 390 309 390 274 390 c 0,24,25
 231 390 231 390 182 378.5 c 128,-1,26
 133 367 133 367 84 346 c 1,27,-1
 68 481 l 1,28,29
 123 505 123 505 186 517.5 c 128,-1,30
 249 530 249 530 311 530 c 0,31,32
 414 530 414 530 461 494 c 1,33,34
 526 530 526 530 609 530 c 0,35,36
 726 530 726 530 780 461.5 c 128,-1,37
 834 393 834 393 815 270 c 0,38,0
 807 222 807 222 800 200 c 1,1,-1
535 383 m 128,-1,40
 514 361 514 361 503 315 c 1,41,-1
 647 315 l 1,42,43
 650 361 650 361 636.5 383 c 128,-1,44
 623 405 623 405 589 405 c 256,45,39
 556 405 556 405 535 383 c 128,-1,40
271 144 m 128,-1,47
 294 163 294 163 300 195 c 2,48,-1
 304 225 l 1,49,-1
 281 225 l 2,50,51
 227 225 227 225 200.5 212 c 128,-1,52
 174 199 174 199 169 170 c 0,53,54
 166 148 166 148 177.5 136.5 c 128,-1,55
 189 125 189 125 214 125 c 0,56,46
 248 125 248 125 271 144 c 128,-1,47
EndSplineSet
EndChar

StartChar: b
Encoding: 98 98 228
Width: 598
Flags: W
LayerCount: 2
Fore
SplineSet
549 460.5 m 128,-1,1
 585 391 585 391 565 260 c 256,2,3
 544 129 544 129 485.5 59.5 c 128,-1,4
 427 -10 427 -10 338 -10 c 0,5,6
 295 -10 295 -10 260.5 7 c 128,-1,7
 226 24 226 24 197 60 c 1,8,-1
 195 60 l 1,9,-1
 184 0 l 1,10,-1
 9 0 l 1,11,-1
 127 750 l 1,12,-1
 312 750 l 1,13,-1
 266 460 l 1,14,-1
 268 460 l 1,15,16
 305 496 305 496 342.5 513 c 128,-1,17
 380 530 380 530 423 530 c 0,18,0
 513 530 513 530 549 460.5 c 128,-1,1
351 170.5 m 128,-1,20
 375 201 375 201 384 260 c 256,21,22
 393 319 393 319 379 349.5 c 128,-1,23
 365 380 365 380 328 380 c 0,24,25
 292 380 292 380 268 351 c 128,-1,26
 244 322 244 322 236 270 c 2,27,-1
 233 250 l 2,28,29
 225 198 225 198 239.5 169 c 128,-1,30
 254 140 254 140 290 140 c 0,31,19
 327 140 327 140 351 170.5 c 128,-1,20
EndSplineSet
EndChar

StartChar: c
Encoding: 99 99 229
Width: 519
GlyphClass: 2
Flags: W
AnchorPoint: "Anchor-6" 251 520 basechar 0
AnchorPoint: "Anchor-4" 251 0 basechar 0
LayerCount: 2
Fore
SplineSet
65.5 60 m 128,-1,1
 3 130 3 130 23 260 c 256,2,3
 44 390 44 390 129 460 c 128,-1,4
 214 530 214 530 350 530 c 0,5,6
 445 530 445 530 514 490 c 1,7,-1
 448 358 l 1,8,9
 393 390 393 390 340 390 c 0,10,11
 232 390 232 390 211 260 c 256,12,13
 190 130 190 130 299 130 c 0,14,15
 352 130 352 130 417 162 c 1,16,-1
 441 30 l 1,17,18
 359 -10 359 -10 264 -10 c 0,19,0
 128 -10 128 -10 65.5 60 c 128,-1,1
EndSplineSet
EndChar

StartChar: ccedilla
Encoding: 231 231 232
Width: 517
GlyphClass: 2
Flags: W
AnchorPoint: "Anchor-6" 251 520 basechar 0
AnchorPoint: "Anchor-4" 251 0 basechar 0
LayerCount: 2
Fore
SplineSet
439 30 m 1,0,1
 407 14 407 14 377 6 c 1,2,3
 400 -36 400 -36 393 -82 c 0,4,5
 383 -148 383 -148 324.5 -184 c 128,-1,6
 266 -220 266 -220 169 -220 c 0,7,8
 102 -220 102 -220 54 -200 c 1,9,-1
 90 -65 l 1,10,11
 110 -74 110 -74 134 -79.5 c 128,-1,12
 158 -85 158 -85 179 -85 c 0,13,14
 203 -85 203 -85 216 -78 c 128,-1,15
 229 -71 229 -71 232 -57 c 0,16,17
 237 -28 237 -28 174 0 c 1,18,19
 85 21 85 21 46 87.5 c 128,-1,20
 7 154 7 154 23 260 c 0,21,22
 44 390 44 390 128.5 460 c 128,-1,23
 213 530 213 530 349 530 c 0,24,25
 443 530 443 530 512 490 c 1,26,-1
 447 358 l 1,27,28
 393 390 393 390 340 390 c 0,29,30
 232 390 232 390 211 260 c 256,31,32
 190 130 190 130 298 130 c 0,33,34
 351 130 351 130 416 162 c 1,35,-1
 439 30 l 1,0,1
EndSplineSet
EndChar

StartChar: d
Encoding: 100 100 235
Width: 598
Flags: W
LayerCount: 2
Fore
SplineSet
619 750 m 1,0,-1
 500 0 l 1,1,-1
 325 0 l 1,2,-1
 333 60 l 1,3,-1
 331 60 l 1,4,5
 290 24 290 24 250.5 7 c 128,-1,6
 211 -10 211 -10 168 -10 c 0,7,8
 78 -10 78 -10 41.5 59.5 c 128,-1,9
 5 129 5 129 26 260 c 256,10,11
 47 391 47 391 105 460.5 c 128,-1,12
 163 530 163 530 253 530 c 0,13,14
 296 530 296 530 328.5 513 c 128,-1,15
 361 496 361 496 387 460 c 1,16,-1
 388 460 l 1,17,-1
 434 750 l 1,18,-1
 619 750 l 1,0,-1
323 169 m 128,-1,20
 347 198 347 198 355 250 c 2,21,-1
 358 270 l 2,22,23
 366 322 366 322 351.5 351 c 128,-1,24
 337 380 337 380 301 380 c 0,25,26
 264 380 264 380 240 349.5 c 128,-1,27
 216 319 216 319 207 260 c 256,28,29
 198 201 198 201 212 170.5 c 128,-1,30
 226 140 226 140 263 140 c 0,31,19
 299 140 299 140 323 169 c 128,-1,20
EndSplineSet
EndChar

StartChar: eth
Encoding: 240 240 236
Width: 583
Flags: W
LayerCount: 2
Fore
SplineSet
545 280 m 0,1,2
 522 133 522 133 446.5 61.5 c 128,-1,3
 371 -10 371 -10 240 -10 c 0,4,5
 119 -10 119 -10 61 59.5 c 128,-1,6
 3 129 3 129 22 250 c 0,7,8
 39 360 39 360 109 420 c 128,-1,9
 179 480 179 480 290 480 c 0,10,11
 337 480 337 480 373 470 c 1,12,-1
 375 471 l 1,13,14
 379 517 379 517 358 552 c 1,15,-1
 146 468 l 1,16,-1
 115 598 l 1,17,-1
 230 644 l 1,18,19
 189 657 189 657 134 660 c 1,20,-1
 192 790 l 1,21,22
 337 782 337 782 425 720 c 1,23,-1
 558 773 l 1,24,-1
 589 643 l 1,25,-1
 515 614 l 1,26,0
 578 488 578 488 545 280 c 0,1,2
324.5 155 m 128,-1,28
 348 185 348 185 358 250 c 256,29,30
 368 315 368 315 354.5 345 c 128,-1,31
 341 375 341 375 301 375 c 256,32,33
 261 375 261 375 238 345 c 128,-1,34
 215 315 215 315 204 250 c 256,35,36
 194 185 194 185 208 155 c 128,-1,37
 222 125 222 125 261 125 c 256,38,27
 301 125 301 125 324.5 155 c 128,-1,28
EndSplineSet
EndChar

StartChar: dcroat
Encoding: 273 273 238
Width: 658
Flags: W
LayerCount: 2
Fore
SplineSet
683 555 m 1,0,-1
 588 555 l 1,1,-1
 500 0 l 1,2,-1
 325 0 l 1,3,-1
 333 60 l 1,4,-1
 331 60 l 1,5,6
 290 24 290 24 250.5 7 c 128,-1,7
 211 -10 211 -10 168 -10 c 0,8,9
 78 -10 78 -10 41.5 59.5 c 128,-1,10
 5 129 5 129 26 260 c 256,11,12
 47 391 47 391 105 460.5 c 128,-1,13
 163 530 163 530 253 530 c 0,14,15
 296 530 296 530 328.5 513 c 128,-1,16
 361 496 361 496 387 460 c 1,17,-1
 388 460 l 1,18,-1
 404 555 l 1,19,-1
 286 555 l 1,20,-1
 308 695 l 1,21,-1
 426 695 l 1,22,-1
 434 750 l 1,23,-1
 619 750 l 1,24,-1
 610 695 l 1,25,-1
 705 695 l 1,26,-1
 683 555 l 1,0,-1
323 169 m 128,-1,28
 347 198 347 198 355 250 c 2,29,-1
 358 270 l 2,30,31
 366 322 366 322 351.5 351 c 128,-1,32
 337 380 337 380 301 380 c 0,33,34
 264 380 264 380 240 349.5 c 128,-1,35
 216 319 216 319 207 260 c 256,36,37
 198 201 198 201 212 170.5 c 128,-1,38
 226 140 226 140 263 140 c 0,39,27
 299 140 299 140 323 169 c 128,-1,28
EndSplineSet
EndChar

StartChar: e
Encoding: 101 101 240
Width: 550
GlyphClass: 2
Flags: W
AnchorPoint: "Anchor-6" 255 520 basechar 0
AnchorPoint: "Anchor-5" 475 18 basechar 0
AnchorPoint: "Anchor-4" 255 0 basechar 0
LayerCount: 2
Fore
SplineSet
508 200 m 1,1,-1
 195 200 l 1,2,3
 193 160 193 160 219.5 142.5 c 128,-1,4
 246 125 246 125 305 125 c 0,5,6
 375 125 375 125 443 148 c 1,7,-1
 446 18 l 1,8,9
 412 5 412 5 365 -2.5 c 128,-1,10
 318 -10 318 -10 272 -10 c 0,11,12
 131 -10 131 -10 67 59.5 c 128,-1,13
 3 129 3 129 23 260 c 0,14,15
 43 386 43 386 122.5 458 c 128,-1,16
 202 530 202 530 320 530 c 0,17,18
 436 530 436 530 489.5 461.5 c 128,-1,19
 543 393 543 393 523 270 c 0,20,0
 515 222 515 222 508 200 c 1,1,-1
246.5 383 m 128,-1,22
 226 361 226 361 215 315 c 1,23,-1
 357 315 l 1,24,25
 361 361 361 361 347 383 c 128,-1,26
 333 405 333 405 300 405 c 256,27,21
 267 405 267 405 246.5 383 c 128,-1,22
EndSplineSet
EndChar

StartChar: uni1EBF
Encoding: 7871 7871 245
Width: 556
GlyphClass: 2
Flags: W
AnchorPoint: "Anchor-6" 255 520 basechar 0
AnchorPoint: "Anchor-5" 475 18 basechar 0
AnchorPoint: "Anchor-4" 255 0 basechar 0
LayerCount: 2
Fore
SplineSet
773 950 m 1,0,-1
 626 740 l 1,1,-1
 510 740 l 1,2,-1
 579 560 l 1,3,-1
 381 560 l 1,4,-1
 348 700 l 1,5,-1
 346 700 l 1,6,-1
 268 560 l 1,7,-1
 71 560 l 1,8,-1
 217 770 l 1,9,-1
 479 770 l 1,10,-1
 556 950 l 1,11,-1
 773 950 l 1,0,-1
489.5 461.5 m 128,-1,13
 543 393 543 393 523 270 c 0,14,15
 515 222 515 222 508 200 c 1,16,-1
 195 200 l 1,17,18
 193 160 193 160 219.5 142.5 c 128,-1,19
 246 125 246 125 305 125 c 0,20,21
 375 125 375 125 443 148 c 1,22,-1
 446 18 l 1,23,24
 412 5 412 5 365 -2.5 c 128,-1,25
 318 -10 318 -10 272 -10 c 0,26,27
 131 -10 131 -10 67 59.5 c 128,-1,28
 3 129 3 129 23 260 c 0,29,30
 43 386 43 386 122.5 458 c 128,-1,31
 202 530 202 530 320 530 c 0,32,12
 436 530 436 530 489.5 461.5 c 128,-1,13
246.5 383 m 128,-1,34
 226 361 226 361 215 315 c 1,35,-1
 357 315 l 1,36,37
 361 361 361 361 347 383 c 128,-1,38
 333 405 333 405 300 405 c 256,39,33
 267 405 267 405 246.5 383 c 128,-1,34
EndSplineSet
EndChar

StartChar: uni1EC1
Encoding: 7873 7873 247
Width: 556
GlyphClass: 2
Flags: W
AnchorPoint: "Anchor-6" 255 520 basechar 0
AnchorPoint: "Anchor-5" 475 18 basechar 0
AnchorPoint: "Anchor-4" 255 0 basechar 0
LayerCount: 2
Fore
SplineSet
77 560 m 1,0,-1
 202 740 l 1,1,-1
 86 740 l 1,2,-1
 5 950 l 1,3,-1
 223 950 l 1,4,-1
 242 770 l 1,5,-1
 505 770 l 1,6,-1
 584 560 l 1,7,-1
 387 560 l 1,8,-1
 354 700 l 1,9,-1
 352 700 l 1,10,-1
 274 560 l 1,11,-1
 77 560 l 1,0,-1
494.5 461.5 m 128,-1,13
 548 393 548 393 529 270 c 0,14,15
 521 222 521 222 514 200 c 1,16,-1
 201 200 l 1,17,18
 199 160 199 160 225 142.5 c 128,-1,19
 251 125 251 125 310 125 c 0,20,21
 380 125 380 125 448 148 c 1,22,-1
 451 18 l 1,23,24
 417 5 417 5 370.5 -2.5 c 128,-1,25
 324 -10 324 -10 278 -10 c 0,26,27
 137 -10 137 -10 72.5 59.5 c 128,-1,28
 8 129 8 129 29 260 c 0,29,30
 49 386 49 386 128 458 c 128,-1,31
 207 530 207 530 326 530 c 0,32,12
 441 530 441 530 494.5 461.5 c 128,-1,13
252 383 m 128,-1,34
 231 361 231 361 220 315 c 1,35,-1
 363 315 l 1,36,37
 367 361 367 361 353 383 c 128,-1,38
 339 405 339 405 306 405 c 256,39,33
 273 405 273 405 252 383 c 128,-1,34
EndSplineSet
EndChar

StartChar: uni1EC3
Encoding: 7875 7875 248
Width: 552
GlyphClass: 2
Flags: W
AnchorPoint: "Anchor-6" 369 960 basechar 0
AnchorPoint: "Anchor-5" 475 18 basechar 0
AnchorPoint: "Anchor-4" 255 0 basechar 0
LayerCount: 2
Fore
SplineSet
647 802 m 128,-1,1
 635 767 635 767 620 740 c 1,2,-1
 510 740 l 1,3,-1
 579 560 l 1,4,-1
 381 560 l 1,5,-1
 348 700 l 1,6,-1
 346 700 l 1,7,-1
 268 560 l 1,8,-1
 71 560 l 1,9,-1
 217 770 l 1,10,-1
 481 770 l 1,11,12
 487 787 487 787 489 800 c 0,13,14
 492 818 492 818 484.5 824 c 128,-1,15
 477 830 477 830 451 830 c 0,16,17
 419 830 419 830 379 823.5 c 128,-1,18
 339 817 339 817 302 805 c 1,19,-1
 309 940 l 1,20,21
 350 949 350 949 401 954.5 c 128,-1,22
 452 960 452 960 495 960 c 0,23,24
 568 960 568 960 606 951.5 c 128,-1,25
 644 943 644 943 657 923 c 128,-1,26
 670 903 670 903 664 865 c 0,27,0
 659 837 659 837 647 802 c 128,-1,1
489.5 461.5 m 128,-1,29
 543 393 543 393 523 270 c 0,30,31
 515 222 515 222 508 200 c 1,32,-1
 195 200 l 1,33,34
 193 160 193 160 219.5 142.5 c 128,-1,35
 246 125 246 125 305 125 c 0,36,37
 375 125 375 125 443 148 c 1,38,-1
 446 18 l 1,39,40
 412 5 412 5 365 -2.5 c 128,-1,41
 318 -10 318 -10 272 -10 c 0,42,43
 131 -10 131 -10 67 59.5 c 128,-1,44
 3 129 3 129 23 260 c 0,45,46
 43 386 43 386 122.5 458 c 128,-1,47
 202 530 202 530 320 530 c 0,48,28
 436 530 436 530 489.5 461.5 c 128,-1,29
246.5 383 m 128,-1,50
 226 361 226 361 215 315 c 1,51,-1
 357 315 l 1,52,53
 361 361 361 361 347 383 c 128,-1,54
 333 405 333 405 300 405 c 256,55,49
 267 405 267 405 246.5 383 c 128,-1,50
EndSplineSet
EndChar

StartChar: eogonek
Encoding: 281 281 258
Width: 553
GlyphClass: 2
Flags: W
AnchorPoint: "Anchor-6" 255 520 basechar 0
AnchorPoint: "Anchor-5" 475 18 basechar 0
AnchorPoint: "Anchor-4" 255 0 basechar 0
LayerCount: 2
Fore
SplineSet
501 -182 m 1,0,1
 447 -202 447 -202 380 -202 c 0,2,3
 283 -202 283 -202 236 -166 c 128,-1,4
 189 -130 189 -130 200 -64 c 0,5,6
 205 -34 205 -34 221 -7 c 1,7,8
 106 5 106 5 55.5 73.5 c 128,-1,9
 5 142 5 142 23 260 c 0,10,11
 43 386 43 386 122.5 458 c 128,-1,12
 202 530 202 530 320 530 c 0,13,14
 436 530 436 530 489.5 461.5 c 128,-1,15
 543 393 543 393 523 270 c 0,16,17
 515 222 515 222 508 200 c 1,18,-1
 195 200 l 1,19,20
 193 160 193 160 219.5 142.5 c 128,-1,21
 246 125 246 125 305 125 c 0,22,23
 375 125 375 125 443 148 c 1,24,-1
 446 18 l 1,25,26
 374 -10 374 -10 369 -39 c 0,27,28
 367 -53 367 -53 378 -60 c 128,-1,29
 389 -67 389 -67 413 -67 c 0,30,31
 434 -67 434 -67 459.5 -61.5 c 128,-1,32
 485 -56 485 -56 508 -47 c 1,33,-1
 501 -182 l 1,0,1
246.5 383 m 128,-1,35
 226 361 226 361 215 315 c 1,36,-1
 357 315 l 1,37,38
 361 361 361 361 347 383 c 128,-1,39
 333 405 333 405 300 405 c 256,40,34
 267 405 267 405 246.5 383 c 128,-1,35
EndSplineSet
EndChar

StartChar: uni0259
Encoding: 601 601 260
Width: 550
GlyphClass: 2
Flags: W
AnchorPoint: "Anchor-6" 243 520 basechar 0
AnchorPoint: "Anchor-5" 23 502 basechar 0
AnchorPoint: "Anchor-4" 243 0 basechar 0
LayerCount: 2
Fore
SplineSet
476.5 460.5 m 128,-1,1
 541 391 541 391 520 260 c 0,2,3
 500 134 500 134 421 62 c 128,-1,4
 342 -10 342 -10 223 -10 c 0,5,6
 107 -10 107 -10 54 58.5 c 128,-1,7
 1 127 1 127 20 250 c 0,8,9
 28 298 28 298 35 320 c 1,10,-1
 348 320 l 1,11,12
 350 360 350 360 324 377.5 c 128,-1,13
 298 395 298 395 239 395 c 0,14,15
 169 395 169 395 100 372 c 1,16,-1
 98 502 l 1,17,18
 132 515 132 515 178.5 522.5 c 128,-1,19
 225 530 225 530 271 530 c 0,20,0
 412 530 412 530 476.5 460.5 c 128,-1,1
297 137 m 128,-1,22
 318 159 318 159 329 205 c 1,23,-1
 186 205 l 1,24,25
 182 159 182 159 196 137 c 128,-1,26
 210 115 210 115 243 115 c 256,27,21
 276 115 276 115 297 137 c 128,-1,22
EndSplineSet
EndChar

StartChar: f
Encoding: 102 102 261
Width: 480
Flags: W
LayerCount: 2
Fore
SplineSet
32 380 m 1,0,-1
 54 520 l 1,1,-1
 168 520 l 1,2,-1
 171 540 l 2,3,4
 188 647 188 647 250 703.5 c 128,-1,5
 312 760 312 760 412 760 c 0,6,7
 469 760 469 760 537 745 c 1,8,-1
 491 605 l 1,9,10
 455 620 455 620 422 620 c 0,11,12
 392 620 392 620 378 603.5 c 128,-1,13
 364 587 364 587 357 540 c 2,14,-1
 354 520 l 1,15,-1
 492 520 l 1,16,-1
 469 380 l 1,17,-1
 332 380 l 1,18,-1
 271 0 l 1,19,-1
 85 0 l 1,20,-1
 146 380 l 1,21,-1
 32 380 l 1,0,-1
EndSplineSet
EndChar

StartChar: g
Encoding: 103 103 262
Width: 598
GlyphClass: 2
Flags: W
AnchorPoint: "Anchor-6" 276 520 basechar 0
AnchorPoint: "Anchor-4" 276 -140 basechar 0
LayerCount: 2
Fore
SplineSet
582 520 m 1,0,-1
 509 60 l 2,1,2
 487 -78 487 -78 400.5 -154 c 128,-1,3
 314 -230 314 -230 179 -230 c 0,4,5
 79 -230 79 -230 -30 -190 c 1,6,-1
 23 -60 l 1,7,8
 119 -90 119 -90 174 -90 c 0,9,10
 302 -90 302 -90 325 60 c 1,11,-1
 323 60 l 1,12,13
 286 24 286 24 248.5 7 c 128,-1,14
 211 -10 211 -10 168 -10 c 0,15,16
 78 -10 78 -10 41.5 59.5 c 128,-1,17
 5 129 5 129 26 260 c 256,18,19
 47 391 47 391 105 460.5 c 128,-1,20
 163 530 163 530 253 530 c 0,21,22
 296 530 296 530 330.5 513 c 128,-1,23
 365 496 365 496 394 460 c 1,24,-1
 396 460 l 1,25,-1
 407 520 l 1,26,-1
 582 520 l 1,0,-1
323 169 m 128,-1,28
 347 198 347 198 355 250 c 2,29,-1
 358 270 l 2,30,31
 366 322 366 322 351.5 351 c 128,-1,32
 337 380 337 380 301 380 c 0,33,34
 264 380 264 380 240 349.5 c 128,-1,35
 216 319 216 319 207 260 c 256,36,37
 198 201 198 201 212 170.5 c 128,-1,38
 226 140 226 140 263 140 c 0,39,27
 299 140 299 140 323 169 c 128,-1,28
EndSplineSet
EndChar

StartChar: h
Encoding: 104 104 268
Width: 591
GlyphClass: 2
Flags: W
AnchorPoint: "Anchor-6" 266 750 basechar 0
AnchorPoint: "Anchor-4" 266 0 basechar 0
LayerCount: 2
Fore
SplineSet
536.5 480 m 128,-1,1
 567 430 567 430 549 320 c 2,2,-1
 499 0 l 1,3,-1
 315 0 l 1,4,-1
 359 280 l 2,5,6
 367 329 367 329 358 349.5 c 128,-1,7
 349 370 349 370 322 370 c 0,8,9
 292 370 292 370 268.5 350.5 c 128,-1,10
 245 331 245 331 240 300 c 2,11,-1
 193 0 l 1,12,-1
 9 0 l 1,13,-1
 127 750 l 1,14,-1
 312 750 l 1,15,-1
 266 460 l 1,16,-1
 268 460 l 1,17,18
 306 498 306 498 341.5 514 c 128,-1,19
 377 530 377 530 422 530 c 0,20,0
 506 530 506 530 536.5 480 c 128,-1,1
EndSplineSet
EndChar

StartChar: hbar
Encoding: 295 295 269
Width: 652
GlyphClass: 2
Flags: W
AnchorPoint: "Anchor-6" 329 750 basechar 0
AnchorPoint: "Anchor-4" 329 0 basechar 0
LayerCount: 2
Fore
SplineSet
597 480 m 128,-1,1
 627 430 627 430 610 320 c 2,2,-1
 559 0 l 1,3,-1
 375 0 l 1,4,-1
 419 280 l 2,5,6
 427 329 427 329 418.5 349.5 c 128,-1,7
 410 370 410 370 382 370 c 0,8,9
 352 370 352 370 329 350.5 c 128,-1,10
 306 331 306 331 301 300 c 2,11,-1
 253 0 l 1,12,-1
 69 0 l 1,13,-1
 157 555 l 1,14,-1
 62 555 l 1,15,-1
 84 695 l 1,16,-1
 179 695 l 1,17,-1
 188 750 l 1,18,-1
 372 750 l 1,19,-1
 363 695 l 1,20,-1
 481 695 l 1,21,-1
 459 555 l 1,22,-1
 341 555 l 1,23,-1
 326 460 l 1,24,-1
 328 460 l 1,25,26
 366 498 366 498 401.5 514 c 128,-1,27
 437 530 437 530 483 530 c 0,28,0
 567 530 567 530 597 480 c 128,-1,1
EndSplineSet
EndChar

StartChar: i
Encoding: 105 105 271
Width: 306
GlyphClass: 2
Flags: W
AnchorPoint: "Anchor-6" 120 520 basechar 0
AnchorPoint: "Anchor-5" 220 0 basechar 0
AnchorPoint: "Anchor-4" 120 0 basechar 0
LayerCount: 2
Fore
SplineSet
133 750 m 1,0,-1
 321 750 l 1,1,-1
 296 590 l 1,2,-1
 108 590 l 1,3,-1
 133 750 l 1,0,-1
97 520 m 1,4,-1
 285 520 l 1,5,-1
 202 0 l 1,6,-1
 14 0 l 1,7,-1
 97 520 l 1,4,-1
EndSplineSet
Substitution2: "Single Substitution lookup 19 subtable" dotlessi
Substitution2: "'locl' Localized Forms in Latin lookup 3 subtable" i.loclTRK
Substitution2: "'aalt' Access All Alternates in Latin lookup 0 subtable" i.loclTRK
EndChar

StartChar: dotlessi
Encoding: 305 305 272
Width: 306
GlyphClass: 2
Flags: W
AnchorPoint: "Anchor-6" 120 520 basechar 0
AnchorPoint: "Anchor-5" 220 0 basechar 0
AnchorPoint: "Anchor-4" 120 0 basechar 0
LayerCount: 2
Fore
SplineSet
97 520 m 1,0,-1
 285 520 l 1,1,-1
 202 0 l 1,2,-1
 14 0 l 1,3,-1
 97 520 l 1,0,-1
EndSplineSet
EndChar

StartChar: iogonek
Encoding: 303 303 284
Width: 311
GlyphClass: 2
Flags: W
AnchorPoint: "Anchor-6" 120 760 basechar 0
AnchorPoint: "Anchor-5" 220 0 basechar 0
AnchorPoint: "Anchor-4" 120 0 basechar 0
LayerCount: 2
Fore
SplineSet
319 760 m 1,0,-1
 289 570 l 1,1,-1
 111 570 l 1,2,-1
 141 760 l 1,3,-1
 319 760 l 1,0,-1
259 -200 m 1,4,5
 205 -220 205 -220 138 -220 c 0,6,7
 41 -220 41 -220 -6 -184 c 128,-1,8
 -53 -148 -53 -148 -43 -82 c 0,9,10
 -39 -54 -39 -54 -23.5 -28 c 128,-1,11
 -8 -2 -8 -2 20 25 c 1,12,-1
 98 520 l 1,13,-1
 286 520 l 1,14,-1
 204 0 l 1,15,16
 132 -28 132 -28 127 -57 c 0,17,18
 125 -71 125 -71 136 -78 c 128,-1,19
 147 -85 147 -85 171 -85 c 0,20,21
 192 -85 192 -85 217.5 -79.5 c 128,-1,22
 243 -74 243 -74 266 -65 c 1,23,-1
 259 -200 l 1,4,5
EndSplineSet
EndChar

StartChar: j
Encoding: 106 106 286
Width: 354
GlyphClass: 2
Flags: W
AnchorPoint: "Anchor-6" 144 520 basechar 0
AnchorPoint: "Anchor-4" 144 -140 basechar 0
LayerCount: 2
Fore
SplineSet
181 750 m 1,0,-1
 369 750 l 1,1,-1
 343 590 l 1,2,-1
 155 590 l 1,3,-1
 181 750 l 1,0,-1
-3 -77 m 128,-1,5
 30 -69 30 -69 44.5 -44.5 c 128,-1,6
 59 -20 59 -20 68 40 c 2,7,-1
 144 520 l 1,8,-1
 332 520 l 1,9,-1
 256 40 l 2,10,11
 239 -66 239 -66 199.5 -123.5 c 128,-1,12
 160 -181 160 -181 83.5 -205.5 c 128,-1,13
 7 -230 7 -230 -127 -230 c 1,14,-1
 -113 -85 l 1,15,4
 -36 -85 -36 -85 -3 -77 c 128,-1,5
EndSplineSet
Substitution2: "Single Substitution lookup 19 subtable" uni0237
EndChar

StartChar: uni0237
Encoding: 567 567 287
Width: 354
GlyphClass: 2
Flags: W
AnchorPoint: "Anchor-6" 144 520 basechar 0
AnchorPoint: "Anchor-4" 144 -140 basechar 0
LayerCount: 2
Fore
SplineSet
-3 -77 m 128,-1,1
 30 -69 30 -69 44.5 -44.5 c 128,-1,2
 59 -20 59 -20 68 40 c 2,3,-1
 144 520 l 1,4,-1
 332 520 l 1,5,-1
 256 40 l 2,6,7
 239 -66 239 -66 199.5 -123.5 c 128,-1,8
 160 -181 160 -181 83.5 -205.5 c 128,-1,9
 7 -230 7 -230 -127 -230 c 1,10,-1
 -113 -85 l 1,11,0
 -36 -85 -36 -85 -3 -77 c 128,-1,1
EndSplineSet
EndChar

StartChar: k
Encoding: 107 107 289
Width: 594
GlyphClass: 2
Flags: W
AnchorPoint: "Anchor-6" 256 750 basechar 0
AnchorPoint: "Anchor-4" 256 0 basechar 0
LayerCount: 2
Fore
SplineSet
127 750 m 1,0,-1
 312 750 l 1,1,-1
 244 325 l 1,2,-1
 246 325 l 1,3,-1
 403 520 l 1,4,-1
 616 520 l 1,5,-1
 391 270 l 1,6,-1
 539 0 l 1,7,-1
 325 0 l 1,8,-1
 229 215 l 1,9,-1
 227 215 l 1,10,-1
 193 0 l 1,11,-1
 9 0 l 1,12,-1
 127 750 l 1,0,-1
EndSplineSet
EndChar

StartChar: kgreenlandic
Encoding: 312 312 291
Width: 594
GlyphClass: 2
Flags: W
AnchorPoint: "Anchor-6" 256 520 basechar 0
AnchorPoint: "Anchor-4" 256 0 basechar 0
LayerCount: 2
Fore
SplineSet
91 520 m 1,0,-1
 275 520 l 1,1,-1
 244 325 l 1,2,-1
 246 325 l 1,3,-1
 403 520 l 1,4,-1
 616 520 l 1,5,-1
 391 270 l 1,6,-1
 539 0 l 1,7,-1
 325 0 l 1,8,-1
 229 215 l 1,9,-1
 227 215 l 1,10,-1
 193 0 l 1,11,-1
 9 0 l 1,12,-1
 91 520 l 1,0,-1
EndSplineSet
EndChar

StartChar: l
Encoding: 108 108 292
Width: 306
GlyphClass: 2
Flags: W
AnchorPoint: "Anchor-7" 265 750 basechar 0
AnchorPoint: "Anchor-6" 120 750 basechar 0
AnchorPoint: "Anchor-4" 120 0 basechar 0
LayerCount: 2
Fore
SplineSet
133 750 m 1,0,-1
 321 750 l 1,1,-1
 202 0 l 1,2,-1
 14 0 l 1,3,-1
 133 750 l 1,0,-1
EndSplineSet
EndChar

StartChar: lslash
Encoding: 322 322 298
Width: 508
GlyphClass: 2
Flags: W
AnchorPoint: "Anchor-7" 371 750 basechar 0
AnchorPoint: "Anchor-6" 226 750 basechar 0
AnchorPoint: "Anchor-4" 226 0 basechar 0
LayerCount: 2
Fore
SplineSet
519 393 m 1,0,-1
 355 329 l 1,1,-1
 303 0 l 1,2,-1
 115 0 l 1,3,-1
 155 249 l 1,4,-1
 46 207 l 1,5,-1
 15 337 l 1,6,-1
 179 401 l 1,7,-1
 234 750 l 1,8,-1
 422 750 l 1,9,-1
 379 481 l 1,10,-1
 488 523 l 1,11,-1
 519 393 l 1,0,-1
EndSplineSet
EndChar

StartChar: m
Encoding: 109 109 299
Width: 825
Flags: W
LayerCount: 2
Fore
SplineSet
775 480 m 128,-1,1
 801 430 801 430 783 320 c 2,2,-1
 733 0 l 1,3,-1
 552 0 l 1,4,-1
 596 280 l 2,5,6
 604 329 604 329 599 349.5 c 128,-1,7
 594 370 594 370 573 370 c 0,8,9
 550 370 550 370 531.5 350 c 128,-1,10
 513 330 513 330 508 300 c 2,11,-1
 461 0 l 1,12,-1
 280 0 l 1,13,-1
 325 280 l 2,14,15
 333 329 333 329 327.5 349.5 c 128,-1,16
 322 370 322 370 301 370 c 0,17,18
 278 370 278 370 259.5 350 c 128,-1,19
 241 330 241 330 237 300 c 2,20,-1
 189 0 l 1,21,-1
 9 0 l 1,22,-1
 91 520 l 1,23,-1
 262 520 l 1,24,-1
 255 460 l 1,25,-1
 256 460 l 1,26,27
 291 497 291 497 326 513.5 c 128,-1,28
 361 530 361 530 402 530 c 0,29,30
 490 530 490 530 511 460 c 1,31,-1
 513 460 l 1,32,33
 552 497 552 497 590 513.5 c 128,-1,34
 628 530 628 530 674 530 c 0,35,0
 749 530 749 530 775 480 c 128,-1,1
EndSplineSet
EndChar

StartChar: n
Encoding: 110 110 300
Width: 591
GlyphClass: 2
Flags: W
AnchorPoint: "Anchor-6" 272 520 basechar 0
AnchorPoint: "Anchor-4" 272 0 basechar 0
LayerCount: 2
Fore
SplineSet
536.5 480 m 128,-1,1
 567 430 567 430 549 320 c 2,2,-1
 499 0 l 1,3,-1
 315 0 l 1,4,-1
 359 280 l 2,5,6
 367 329 367 329 358 349.5 c 128,-1,7
 349 370 349 370 322 370 c 0,8,9
 292 370 292 370 268.5 350.5 c 128,-1,10
 245 331 245 331 240 300 c 2,11,-1
 193 0 l 1,12,-1
 9 0 l 1,13,-1
 91 520 l 1,14,-1
 266 520 l 1,15,-1
 258 460 l 1,16,-1
 260 460 l 1,17,18
 299 497 299 497 337.5 513.5 c 128,-1,19
 376 530 376 530 422 530 c 0,20,0
 506 530 506 530 536.5 480 c 128,-1,1
EndSplineSet
EndChar

StartChar: eng
Encoding: 331 331 304
Width: 591
GlyphClass: 2
Flags: W
AnchorPoint: "Anchor-6" 272 520 basechar 0
AnchorPoint: "Anchor-4" 272 0 basechar 0
LayerCount: 2
Fore
SplineSet
536.5 480 m 128,-1,1
 567 430 567 430 549 320 c 2,2,-1
 499 0 l 2,3,4
 485 -85 485 -85 457 -134.5 c 128,-1,5
 429 -184 429 -184 382.5 -206.5 c 128,-1,6
 336 -229 336 -229 262 -229 c 0,7,8
 200 -229 200 -229 127 -214 c 1,9,-1
 170 -59 l 1,10,11
 210 -70 210 -70 247 -70 c 0,12,13
 279 -70 279 -70 294 -53.5 c 128,-1,14
 309 -37 309 -37 316 10 c 2,15,-1
 359 280 l 2,16,17
 367 329 367 329 358 349.5 c 128,-1,18
 349 370 349 370 322 370 c 0,19,20
 292 370 292 370 268.5 350.5 c 128,-1,21
 245 331 245 331 240 300 c 2,22,-1
 193 0 l 1,23,-1
 9 0 l 1,24,-1
 91 520 l 1,25,-1
 266 520 l 1,26,-1
 258 460 l 1,27,-1
 260 460 l 1,28,29
 299 497 299 497 337.5 513.5 c 128,-1,30
 376 530 376 530 422 530 c 0,31,0
 506 530 506 530 536.5 480 c 128,-1,1
EndSplineSet
EndChar

StartChar: o
Encoding: 111 111 307
Width: 573
GlyphClass: 2
Flags: W
AnchorPoint: "Anchor-7" 442 480 basechar 0
AnchorPoint: "Anchor-6" 260 520 basechar 0
AnchorPoint: "Anchor-5" 346 0 basechar 0
AnchorPoint: "Anchor-4" 260 0 basechar 0
LayerCount: 2
Fore
SplineSet
58 59 m 128,-1,1
 3 128 3 128 23 260 c 256,2,3
 44 392 44 392 121 461 c 128,-1,4
 198 530 198 530 326 530 c 0,5,6
 452 530 452 530 507.5 461 c 128,-1,7
 563 392 563 392 542 260 c 256,8,9
 521 128 521 128 443.5 59 c 128,-1,10
 366 -10 366 -10 240 -10 c 0,11,0
 113 -10 113 -10 58 59 c 128,-1,1
324 161.5 m 128,-1,13
 347 193 347 193 358 260 c 256,14,15
 369 327 369 327 355.5 358.5 c 128,-1,16
 342 390 342 390 303 390 c 256,17,18
 264 390 264 390 241 358.5 c 128,-1,19
 218 327 218 327 208 260 c 256,20,21
 197 193 197 193 210 161.5 c 128,-1,22
 223 130 223 130 262 130 c 256,23,12
 301 130 301 130 324 161.5 c 128,-1,13
EndSplineSet
Substitution2: "Single Substitution lookup 21 subtable" ordmasculine
Substitution2: "'aalt' Access All Alternates in Latin lookup 0 subtable" ordmasculine
EndChar

StartChar: uni1ED1
Encoding: 7889 7889 311
Width: 578
GlyphClass: 2
Flags: W
AnchorPoint: "Anchor-7" 442 480 basechar 0
AnchorPoint: "Anchor-6" 260 520 basechar 0
AnchorPoint: "Anchor-5" 346 0 basechar 0
AnchorPoint: "Anchor-4" 260 0 basechar 0
LayerCount: 2
Fore
SplineSet
561 950 m 1,0,-1
 779 950 l 1,1,-1
 631 740 l 1,2,-1
 516 740 l 1,3,-1
 584 560 l 1,4,-1
 386 560 l 1,5,-1
 352 700 l 1,6,-1
 351 700 l 1,7,-1
 272 560 l 1,8,-1
 75 560 l 1,9,-1
 221 770 l 1,10,-1
 485 770 l 1,11,-1
 561 950 l 1,0,-1
507.5 461 m 128,-1,13
 563 392 563 392 542 260 c 256,14,15
 521 128 521 128 443.5 59 c 128,-1,16
 366 -10 366 -10 240 -10 c 0,17,18
 113 -10 113 -10 58 59 c 128,-1,19
 3 128 3 128 23 260 c 256,20,21
 44 392 44 392 121 461 c 128,-1,22
 198 530 198 530 326 530 c 0,23,12
 452 530 452 530 507.5 461 c 128,-1,13
324 161.5 m 128,-1,25
 347 193 347 193 358 260 c 256,26,27
 369 327 369 327 355.5 358.5 c 128,-1,28
 342 390 342 390 303 390 c 256,29,30
 264 390 264 390 241 358.5 c 128,-1,31
 218 327 218 327 208 260 c 256,32,33
 197 193 197 193 210 161.5 c 128,-1,34
 223 130 223 130 262 130 c 256,35,24
 301 130 301 130 324 161.5 c 128,-1,25
EndSplineSet
EndChar

StartChar: uni1ED3
Encoding: 7891 7891 313
Width: 578
GlyphClass: 2
Flags: W
AnchorPoint: "Anchor-7" 442 480 basechar 0
AnchorPoint: "Anchor-6" 260 520 basechar 0
AnchorPoint: "Anchor-5" 346 0 basechar 0
AnchorPoint: "Anchor-4" 260 0 basechar 0
LayerCount: 2
Fore
SplineSet
80 560 m 1,0,-1
 206 740 l 1,1,-1
 90 740 l 1,2,-1
 9 950 l 1,3,-1
 227 950 l 1,4,-1
 246 770 l 1,5,-1
 510 770 l 1,6,-1
 589 560 l 1,7,-1
 392 560 l 1,8,-1
 358 700 l 1,9,-1
 356 700 l 1,10,-1
 278 560 l 1,11,-1
 80 560 l 1,0,-1
512.5 461 m 0,12,13
 567 392 567 392 547 260 c 256,14,15
 526 128 526 128 449 59 c 128,-1,16
 372 -10 372 -10 245 -10 c 128,-1,17
 118 -10 118 -10 63 59 c 128,-1,18
 8 128 8 128 29 260 c 256,19,20
 50 392 50 392 127 461 c 128,-1,21
 204 530 204 530 331 530 c 0,22,23
 457 530 457 530 512.5 461 c 0,12,13
330 161.5 m 128,-1,25
 353 193 353 193 363 260 c 256,26,27
 374 327 374 327 361 358.5 c 128,-1,28
 348 390 348 390 309 390 c 256,29,30
 270 390 270 390 247 358.5 c 128,-1,31
 224 327 224 327 213 260 c 256,32,33
 202 193 202 193 215.5 161.5 c 128,-1,34
 229 130 229 130 268 130 c 256,35,24
 307 130 307 130 330 161.5 c 128,-1,25
EndSplineSet
EndChar

StartChar: uni1ED5
Encoding: 7893 7893 314
Width: 574
GlyphClass: 2
Flags: W
AnchorPoint: "Anchor-7" 442 480 basechar 0
AnchorPoint: "Anchor-6" 375 960 basechar 0
AnchorPoint: "Anchor-5" 346 0 basechar 0
AnchorPoint: "Anchor-4" 260 0 basechar 0
LayerCount: 2
Fore
SplineSet
611 951.5 m 128,-1,1
 649 943 649 943 662 923 c 128,-1,2
 675 903 675 903 669 865 c 0,3,4
 665 837 665 837 652.5 802 c 128,-1,5
 640 767 640 767 626 740 c 1,6,-1
 516 740 l 1,7,-1
 584 560 l 1,8,-1
 386 560 l 1,9,-1
 352 700 l 1,10,-1
 351 700 l 1,11,-1
 272 560 l 1,12,-1
 75 560 l 1,13,-1
 221 770 l 1,14,-1
 487 770 l 1,15,16
 493 787 493 787 494 800 c 0,17,18
 497 818 497 818 489.5 824 c 128,-1,19
 482 830 482 830 456 830 c 0,20,21
 424 830 424 830 383.5 823.5 c 128,-1,22
 343 817 343 817 305 805 c 1,23,-1
 313 940 l 1,24,25
 354 949 354 949 405 954.5 c 128,-1,26
 456 960 456 960 500 960 c 0,27,0
 573 960 573 960 611 951.5 c 128,-1,1
507.5 461 m 128,-1,29
 563 392 563 392 542 260 c 256,30,31
 521 128 521 128 443.5 59 c 128,-1,32
 366 -10 366 -10 240 -10 c 0,33,34
 113 -10 113 -10 58 59 c 128,-1,35
 3 128 3 128 23 260 c 256,36,37
 44 392 44 392 121 461 c 128,-1,38
 198 530 198 530 326 530 c 0,39,28
 452 530 452 530 507.5 461 c 128,-1,29
324 161.5 m 128,-1,41
 347 193 347 193 358 260 c 256,42,43
 369 327 369 327 355.5 358.5 c 128,-1,44
 342 390 342 390 303 390 c 256,45,46
 264 390 264 390 241 358.5 c 128,-1,47
 218 327 218 327 208 260 c 256,48,49
 197 193 197 193 210 161.5 c 128,-1,50
 223 130 223 130 262 130 c 256,51,40
 301 130 301 130 324 161.5 c 128,-1,41
EndSplineSet
EndChar

StartChar: ohorn
Encoding: 417 417 323
Width: 678
GlyphClass: 2
Flags: W
AnchorPoint: "Anchor-7" 702 625 basechar 0
AnchorPoint: "Anchor-6" 260 520 basechar 0
AnchorPoint: "Anchor-5" 346 0 basechar 0
AnchorPoint: "Anchor-4" 260 0 basechar 0
LayerCount: 2
Fore
SplineSet
735 487 m 0,1,2
 721 398 721 398 675.5 351.5 c 128,-1,3
 630 305 630 305 559 305 c 2,4,-1
 547 305 l 1,5,6
 544 277 544 277 542 260 c 0,7,8
 521 128 521 128 443.5 59 c 128,-1,9
 366 -10 366 -10 240 -10 c 0,10,11
 113 -10 113 -10 58 59 c 128,-1,12
 3 128 3 128 23 260 c 256,13,14
 44 392 44 392 121 461 c 128,-1,15
 198 530 198 530 326 530 c 0,16,17
 464 530 464 530 516 450 c 1,18,-1
 520 450 l 2,19,20
 540 450 540 450 553.5 464.5 c 128,-1,21
 567 479 567 479 571 505 c 0,22,23
 574 527 574 527 573 563.5 c 128,-1,24
 572 600 572 600 567 625 c 1,25,-1
 736 625 l 1,26,0
 747 562 747 562 735 487 c 0,1,2
324 161.5 m 128,-1,28
 347 193 347 193 358 260 c 256,29,30
 369 327 369 327 355.5 358.5 c 128,-1,31
 342 390 342 390 303 390 c 256,32,33
 264 390 264 390 241 358.5 c 128,-1,34
 218 327 218 327 208 260 c 256,35,36
 197 193 197 193 210 161.5 c 128,-1,37
 223 130 223 130 262 130 c 256,38,27
 301 130 301 130 324 161.5 c 128,-1,28
EndSplineSet
EndChar

StartChar: uni01EB
Encoding: 491 491 332
Width: 572
GlyphClass: 2
Flags: W
AnchorPoint: "Anchor-7" 441 480 basechar 0
AnchorPoint: "Anchor-6" 259 520 basechar 0
AnchorPoint: "Anchor-5" 345 0 basechar 0
AnchorPoint: "Anchor-4" 259 0 basechar 0
LayerCount: 2
Fore
SplineSet
243 -57 m 0,1,2
 241 -71 241 -71 252 -78 c 128,-1,3
 263 -85 263 -85 287 -85 c 0,4,5
 308 -85 308 -85 333.5 -79.5 c 128,-1,6
 359 -74 359 -74 383 -65 c 1,7,-1
 375 -200 l 1,8,9
 321 -220 321 -220 254 -220 c 0,10,11
 157 -220 157 -220 110 -184 c 128,-1,12
 63 -148 63 -148 74 -82 c 0,13,14
 82 -34 82 -34 122 11 c 1,15,16
 -7 67 -7 67 23 260 c 0,17,18
 44 392 44 392 121 461 c 128,-1,19
 198 530 198 530 325 530 c 0,20,21
 451 530 451 530 506.5 461 c 128,-1,22
 562 392 562 392 541 260 c 0,23,24
 523 148 523 148 464.5 81 c 128,-1,25
 406 14 406 14 311 -4 c 1,26,0
 247 -29 247 -29 243 -57 c 0,1,2
241 358.5 m 128,-1,28
 218 327 218 327 208 260 c 256,29,30
 197 193 197 193 210 161.5 c 128,-1,31
 223 130 223 130 262 130 c 256,32,33
 301 130 301 130 323.5 161.5 c 128,-1,34
 346 193 346 193 357 260 c 256,35,36
 368 327 368 327 355 358.5 c 128,-1,37
 342 390 342 390 303 390 c 256,38,27
 264 390 264 390 241 358.5 c 128,-1,28
EndSplineSet
EndChar

StartChar: oslash
Encoding: 248 248 333
Width: 573
GlyphClass: 2
Flags: W
AnchorPoint: "Anchor-7" 442 480 basechar 0
AnchorPoint: "Anchor-6" 261 520 basechar 0
AnchorPoint: "Anchor-5" 346 0 basechar 0
AnchorPoint: "Anchor-4" 260 0 basechar 0
LayerCount: 2
Fore
SplineSet
542 260 m 0,1,2
 521 128 521 128 443.5 59 c 128,-1,3
 366 -10 366 -10 240 -10 c 0,4,5
 173 -10 173 -10 126 9 c 1,6,-1
 84 -40 l 1,7,-1
 18 20 l 1,8,-1
 55 63 l 1,9,10
 3 132 3 132 23 260 c 0,11,12
 44 392 44 392 121 461 c 128,-1,13
 198 530 198 530 326 530 c 0,14,15
 393 530 393 530 440 511 c 1,16,-1
 481 560 l 1,17,-1
 547 500 l 1,18,-1
 510 457 l 1,19,0
 562 388 562 388 542 260 c 0,1,2
205 238 m 1,21,-1
 331 385 l 1,22,23
 318 390 318 390 303 390 c 0,24,25
 264 390 264 390 241 358.5 c 128,-1,26
 218 327 218 327 208 260 c 0,27,20
 205 245 205 245 205 238 c 1,21,-1
324 161.5 m 128,-1,29
 347 193 347 193 358 260 c 0,30,31
 360 275 360 275 360 282 c 1,32,-1
 234 135 l 1,33,34
 247 130 247 130 262 130 c 0,35,28
 301 130 301 130 324 161.5 c 128,-1,29
EndSplineSet
EndChar

StartChar: oe
Encoding: 339 339 337
Width: 885
Flags: W
LayerCount: 2
Fore
SplineSet
843 200 m 1,1,-1
 530 200 l 1,2,3
 528 160 528 160 554 142.5 c 128,-1,4
 580 125 580 125 639 125 c 0,5,6
 709 125 709 125 777 148 c 1,7,-1
 780 18 l 1,8,9
 746 5 746 5 699.5 -2.5 c 128,-1,10
 653 -10 653 -10 606 -10 c 0,11,12
 485 -10 485 -10 420 42 c 1,13,14
 347 -10 347 -10 240 -10 c 0,15,16
 113 -10 113 -10 58 59 c 128,-1,17
 3 128 3 128 23 260 c 256,18,19
 44 392 44 392 121 461 c 128,-1,20
 198 530 198 530 326 530 c 0,21,22
 431 530 431 530 486 481 c 1,23,24
 557 530 557 530 654 530 c 0,25,26
 770 530 770 530 823.5 461.5 c 128,-1,27
 877 393 877 393 858 270 c 0,28,0
 850 222 850 222 843 200 c 1,1,-1
581 383 m 128,-1,30
 560 361 560 361 549 315 c 1,31,-1
 692 315 l 1,32,33
 696 361 696 361 681.5 383 c 128,-1,34
 667 405 667 405 635 405 c 256,35,29
 602 405 602 405 581 383 c 128,-1,30
324 161.5 m 128,-1,37
 347 193 347 193 358 260 c 256,38,39
 369 327 369 327 355.5 358.5 c 128,-1,40
 342 390 342 390 303 390 c 256,41,42
 264 390 264 390 241 358.5 c 128,-1,43
 218 327 218 327 208 260 c 256,44,45
 197 193 197 193 210 161.5 c 128,-1,46
 223 130 223 130 262 130 c 256,47,36
 301 130 301 130 324 161.5 c 128,-1,37
EndSplineSet
EndChar

StartChar: p
Encoding: 112 112 338
Width: 595
Flags: W
LayerCount: 2
Fore
SplineSet
549 460.5 m 128,-1,1
 585 391 585 391 565 260 c 256,2,3
 544 129 544 129 485.5 59.5 c 128,-1,4
 427 -10 427 -10 338 -10 c 0,5,6
 295 -10 295 -10 262.5 7 c 128,-1,7
 230 24 230 24 204 60 c 1,8,-1
 202 60 l 1,9,-1
 158 -220 l 1,10,-1
 -26 -220 l 1,11,-1
 91 520 l 1,12,-1
 266 520 l 1,13,-1
 258 460 l 1,14,-1
 260 460 l 1,15,16
 301 496 301 496 340.5 513 c 128,-1,17
 380 530 380 530 423 530 c 0,18,0
 513 530 513 530 549 460.5 c 128,-1,1
351 170.5 m 128,-1,20
 375 201 375 201 384 260 c 256,21,22
 393 319 393 319 379 349.5 c 128,-1,23
 365 380 365 380 328 380 c 0,24,25
 292 380 292 380 268 351 c 128,-1,26
 244 322 244 322 236 270 c 2,27,-1
 233 250 l 2,28,29
 225 198 225 198 239.5 169 c 128,-1,30
 254 140 254 140 290 140 c 0,31,19
 327 140 327 140 351 170.5 c 128,-1,20
EndSplineSet
EndChar

StartChar: thorn
Encoding: 254 254 339
Width: 598
Flags: W
LayerCount: 2
Fore
SplineSet
549 460.5 m 128,-1,1
 585 391 585 391 565 260 c 256,2,3
 544 129 544 129 485.5 59.5 c 128,-1,4
 427 -10 427 -10 338 -10 c 0,5,6
 295 -10 295 -10 262.5 7 c 128,-1,7
 230 24 230 24 204 60 c 1,8,-1
 202 60 l 1,9,-1
 158 -220 l 1,10,-1
 -26 -220 l 1,11,-1
 127 750 l 1,12,-1
 312 750 l 1,13,-1
 266 460 l 1,14,-1
 268 460 l 1,15,16
 305 496 305 496 342.5 513 c 128,-1,17
 380 530 380 530 423 530 c 0,18,0
 513 530 513 530 549 460.5 c 128,-1,1
351 170.5 m 128,-1,20
 375 201 375 201 384 260 c 256,21,22
 393 319 393 319 379 349.5 c 128,-1,23
 365 380 365 380 328 380 c 0,24,25
 292 380 292 380 268 351 c 128,-1,26
 244 322 244 322 236 270 c 2,27,-1
 233 250 l 2,28,29
 225 198 225 198 239.5 169 c 128,-1,30
 254 140 254 140 290 140 c 0,31,19
 327 140 327 140 351 170.5 c 128,-1,20
EndSplineSet
EndChar

StartChar: q
Encoding: 113 113 340
Width: 595
Flags: W
LayerCount: 2
Fore
SplineSet
579 520 m 1,0,-1
 462 -220 l 1,1,-1
 278 -220 l 1,2,-1
 322 60 l 1,3,-1
 320 60 l 1,4,5
 283 24 283 24 245.5 7 c 128,-1,6
 208 -10 208 -10 165 -10 c 0,7,8
 75 -10 75 -10 39 59.5 c 128,-1,9
 3 129 3 129 23 260 c 256,10,11
 44 391 44 391 102.5 460.5 c 128,-1,12
 161 530 161 530 250 530 c 0,13,14
 293 530 293 530 327.5 513 c 128,-1,15
 362 496 362 496 391 460 c 1,16,-1
 393 460 l 1,17,-1
 405 520 l 1,18,-1
 579 520 l 1,0,-1
320 169 m 128,-1,20
 344 198 344 198 352 250 c 2,21,-1
 356 270 l 2,22,23
 364 322 364 322 349 351 c 128,-1,24
 334 380 334 380 298 380 c 0,25,26
 261 380 261 380 237 349.5 c 128,-1,27
 213 319 213 319 204 260 c 256,28,29
 195 201 195 201 209 170.5 c 128,-1,30
 223 140 223 140 260 140 c 0,31,19
 296 140 296 140 320 169 c 128,-1,20
EndSplineSet
EndChar

StartChar: r
Encoding: 114 114 341
Width: 467
GlyphClass: 2
Flags: W
AnchorPoint: "Anchor-6" 216 520 basechar 0
AnchorPoint: "Anchor-4" 216 0 basechar 0
LayerCount: 2
Fore
SplineSet
490 530 m 1,1,-1
 464 370 l 1,2,3
 407 370 407 370 355.5 350 c 128,-1,4
 304 330 304 330 270 295.5 c 128,-1,5
 236 261 236 261 230 220 c 2,6,-1
 195 0 l 1,7,-1
 9 0 l 1,8,-1
 91 520 l 1,9,-1
 268 520 l 1,10,-1
 255 430 l 1,11,-1
 257 430 l 1,12,0
 364 530 364 530 490 530 c 1,1,-1
EndSplineSet
EndChar

StartChar: s
Encoding: 115 115 347
Width: 510
GlyphClass: 2
Flags: W
AnchorPoint: "Anchor-6" 228 520 basechar 0
AnchorPoint: "Anchor-4" 228 0 basechar 0
LayerCount: 2
Fore
SplineSet
-13 32 m 1,1,-1
 48 165 l 1,2,3
 134 130 134 130 210 130 c 0,4,5
 242 130 242 130 256.5 136.5 c 128,-1,6
 271 143 271 143 273 158 c 0,7,8
 275 170 275 170 265.5 176.5 c 128,-1,9
 256 183 256 183 224 191 c 0,10,11
 150 210 150 210 109.5 234 c 128,-1,12
 69 258 69 258 53.5 290.5 c 128,-1,13
 38 323 38 323 46 370 c 0,14,15
 59 449 59 449 121.5 489.5 c 128,-1,16
 184 530 184 530 294 530 c 0,17,18
 399 530 399 530 507 494 c 1,19,-1
 446 361 l 1,20,21
 399 378 399 378 366 385 c 128,-1,22
 333 392 333 392 298 392 c 0,23,24
 267 392 267 392 252 386 c 128,-1,25
 237 380 237 380 235 366 c 0,26,27
 233 353 233 353 242.5 346 c 128,-1,28
 252 339 252 339 284 331 c 0,29,30
 387 307 387 307 430 264.5 c 128,-1,31
 473 222 473 222 463 155 c 0,32,33
 451 79 451 79 383 34.5 c 128,-1,34
 315 -10 315 -10 213 -10 c 0,35,0
 83 -10 83 -10 -13 32 c 1,1,-1
EndSplineSet
EndChar

StartChar: scedilla
Encoding: 351 351 350
Width: 508
GlyphClass: 2
Flags: W
AnchorPoint: "Anchor-6" 228 520 basechar 0
AnchorPoint: "Anchor-4" 228 0 basechar 0
LayerCount: 2
Fore
SplineSet
421 69 m 128,-1,1
 389 32 389 32 337 12 c 1,2,3
 365 -32 365 -32 357 -82 c 0,4,5
 347 -148 347 -148 288 -184 c 128,-1,6
 229 -220 229 -220 132 -220 c 0,7,8
 65 -220 65 -220 17 -200 c 1,9,-1
 53 -65 l 1,10,11
 73 -74 73 -74 97.5 -79.5 c 128,-1,12
 122 -85 122 -85 143 -85 c 0,13,14
 167 -85 167 -85 180 -78 c 128,-1,15
 193 -71 193 -71 196 -57 c 0,16,17
 200 -32 200 -32 152 -7 c 1,18,19
 59 1 59 1 -13 32 c 1,20,-1
 48 165 l 1,21,22
 133 130 133 130 210 130 c 0,23,24
 242 130 242 130 256 136.5 c 128,-1,25
 270 143 270 143 273 158 c 0,26,27
 275 170 275 170 265.5 176.5 c 128,-1,28
 256 183 256 183 224 191 c 0,29,30
 150 210 150 210 109.5 234 c 128,-1,31
 69 258 69 258 53.5 290.5 c 128,-1,32
 38 323 38 323 46 370 c 0,33,34
 59 449 59 449 121.5 489.5 c 128,-1,35
 184 530 184 530 293 530 c 0,36,37
 398 530 398 530 505 494 c 1,38,-1
 444 361 l 1,39,40
 398 378 398 378 365 385 c 128,-1,41
 332 392 332 392 298 392 c 0,42,43
 267 392 267 392 252 386 c 128,-1,44
 237 380 237 380 235 366 c 0,45,46
 233 353 233 353 242.5 346 c 128,-1,47
 252 339 252 339 283 331 c 0,48,49
 385 307 385 307 428.5 264.5 c 128,-1,50
 472 222 472 222 461 155 c 0,51,0
 453 106 453 106 421 69 c 128,-1,1
EndSplineSet
Substitution2: "'locl' Localized Forms in Latin lookup 4 subtable" uni0219
Substitution2: "'aalt' Access All Alternates in Latin lookup 0 subtable" uni0219
EndChar

StartChar: germandbls
Encoding: 223 223 353
Width: 595
Flags: W
LayerCount: 2
Fore
SplineSet
231 0 m 1,1,-1
 265 155 l 1,2,3
 298 145 298 145 320 145 c 0,4,5
 360 145 360 145 365 177 c 0,6,7
 367 191 367 191 359.5 211.5 c 128,-1,8
 352 232 352 232 330 274 c 0,9,10
 307 317 307 317 299.5 337 c 128,-1,11
 292 357 292 357 295 375 c 0,12,13
 298 394 298 394 312.5 415.5 c 128,-1,14
 327 437 327 437 360 474 c 0,15,16
 385 501 385 501 401 526.5 c 128,-1,17
 417 552 417 552 420 568 c 256,18,19
 423 584 423 584 408 592 c 128,-1,20
 393 600 393 600 359 600 c 0,21,22
 328 600 328 600 312 593.5 c 128,-1,23
 296 587 296 587 288 569 c 128,-1,24
 280 551 280 551 274 513 c 2,25,-1
 193 0 l 1,26,-1
 9 0 l 1,27,-1
 91 520 l 2,28,29
 110 643 110 643 179.5 701.5 c 128,-1,30
 249 760 249 760 375 760 c 0,31,32
 450 760 450 760 504 738.5 c 128,-1,33
 558 717 558 717 584 678.5 c 128,-1,34
 610 640 610 640 602 590 c 0,35,36
 598 565 598 565 582.5 536 c 128,-1,37
 567 507 567 507 535 465 c 0,38,39
 501 421 501 421 488 402.5 c 128,-1,40
 475 384 475 384 474 377 c 0,41,42
 473 368 473 368 483.5 342.5 c 128,-1,43
 494 317 494 317 511 288 c 0,44,45
 534 246 534 246 542 213 c 128,-1,46
 550 180 550 180 544 145 c 0,47,48
 532 71 532 71 475.5 30.5 c 128,-1,49
 419 -10 419 -10 328 -10 c 0,50,0
 289 -10 289 -10 231 0 c 1,1,-1
EndSplineSet
EndChar

StartChar: t
Encoding: 116 116 354
Width: 498
GlyphClass: 2
Flags: W
AnchorPoint: "Anchor-8" 191 0 basechar 0
AnchorPoint: "Anchor-7" 478 520 basechar 0
AnchorPoint: "Anchor-6" 224 520 basechar 0
AnchorPoint: "Anchor-4" 224 0 basechar 0
LayerCount: 2
Fore
SplineSet
121 34 m 128,-1,1
 85 78 85 78 101 180 c 2,2,-1
 132 380 l 1,3,-1
 28 380 l 1,4,-1
 50 520 l 1,5,-1
 155 520 l 1,6,-1
 185 710 l 1,7,-1
 371 710 l 1,8,-1
 341 520 l 1,9,-1
 488 520 l 1,10,-1
 466 380 l 1,11,-1
 319 380 l 1,12,-1
 291 205 l 2,13,14
 284 163 284 163 292 149 c 128,-1,15
 300 135 300 135 329 135 c 0,16,17
 369 135 369 135 412 150 c 1,18,-1
 409 10 l 1,19,20
 325 -10 325 -10 255 -10 c 0,21,0
 157 -10 157 -10 121 34 c 128,-1,1
EndSplineSet
EndChar

StartChar: tbar
Encoding: 359 359 355
Width: 494
GlyphClass: 2
Flags: W
AnchorPoint: "Anchor-8" 191 0 basechar 0
AnchorPoint: "Anchor-7" 478 520 basechar 0
AnchorPoint: "Anchor-6" 224 520 basechar 0
AnchorPoint: "Anchor-4" 224 0 basechar 0
LayerCount: 2
Fore
SplineSet
409 10 m 1,0,1
 325 -10 325 -10 255 -10 c 0,2,3
 157 -10 157 -10 121 34 c 128,-1,4
 85 78 85 78 101 180 c 1,5,-1
 -4 180 l 1,6,-1
 18 320 l 1,7,-1
 123 320 l 1,8,-1
 132 380 l 1,9,-1
 28 380 l 1,10,-1
 50 520 l 1,11,-1
 155 520 l 1,12,-1
 185 710 l 1,13,-1
 371 710 l 1,14,-1
 341 520 l 1,15,-1
 488 520 l 1,16,-1
 466 380 l 1,17,-1
 319 380 l 1,18,-1
 309 320 l 1,19,-1
 453 320 l 1,20,-1
 431 180 l 1,21,-1
 288 180 l 1,22,23
 286 154 286 154 294.5 144.5 c 128,-1,24
 303 135 303 135 329 135 c 0,25,26
 369 135 369 135 412 150 c 1,27,-1
 409 10 l 1,0,1
EndSplineSet
EndChar

StartChar: uni0163
Encoding: 355 355 357
Width: 496
GlyphClass: 2
Flags: W
AnchorPoint: "Anchor-8" 191 0 basechar 0
AnchorPoint: "Anchor-7" 476 520 basechar 0
AnchorPoint: "Anchor-6" 224 520 basechar 0
AnchorPoint: "Anchor-4" 224 0 basechar 0
LayerCount: 2
Fore
SplineSet
397 -82 m 0,1,2
 387 -148 387 -148 328.5 -184 c 128,-1,3
 270 -220 270 -220 173 -220 c 0,4,5
 106 -220 106 -220 58 -200 c 1,6,-1
 94 -65 l 1,7,8
 114 -74 114 -74 138 -79.5 c 128,-1,9
 162 -85 162 -85 183 -85 c 0,10,11
 207 -85 207 -85 220 -78 c 128,-1,12
 233 -71 233 -71 235 -57 c 0,13,14
 240 -28 240 -28 182 -2 c 1,15,16
 127 12 127 12 107.5 55.5 c 128,-1,17
 88 99 88 99 101 180 c 2,18,-1
 132 380 l 1,19,-1
 28 380 l 1,20,-1
 50 520 l 1,21,-1
 155 520 l 1,22,-1
 185 710 l 1,23,-1
 371 710 l 1,24,-1
 341 520 l 1,25,-1
 486 520 l 1,26,-1
 464 380 l 1,27,-1
 319 380 l 1,28,-1
 291 205 l 2,29,30
 284 163 284 163 291.5 149 c 128,-1,31
 299 135 299 135 329 135 c 0,32,33
 368 135 368 135 411 150 c 1,34,-1
 408 10 l 1,35,-1
 381 4 l 1,36,0
 404 -37 404 -37 397 -82 c 0,1,2
EndSplineSet
Substitution2: "'locl' Localized Forms in Latin lookup 4 subtable" uni021B
Substitution2: "'aalt' Access All Alternates in Latin lookup 0 subtable" uni021B
EndChar

StartChar: u
Encoding: 117 117 359
Width: 582
GlyphClass: 2
Flags: W
AnchorPoint: "Anchor-7" 490 480 basechar 0
AnchorPoint: "Anchor-6" 267 520 basechar 0
AnchorPoint: "Anchor-5" 520 0 basechar 0
AnchorPoint: "Anchor-4" 267 0 basechar 0
LayerCount: 2
Fore
SplineSet
566 520 m 1,0,-1
 484 0 l 1,1,-1
 309 0 l 1,2,-1
 317 60 l 1,3,-1
 315 60 l 1,4,5
 279 23 279 23 243 6.5 c 128,-1,6
 207 -10 207 -10 162 -10 c 0,7,8
 78 -10 78 -10 47.5 40 c 128,-1,9
 17 90 17 90 35 200 c 2,10,-1
 86 520 l 1,11,-1
 270 520 l 1,12,-1
 225 240 l 2,13,14
 217 190 217 190 224.5 170 c 128,-1,15
 232 150 232 150 258 150 c 0,16,17
 286 150 286 150 308 170 c 128,-1,18
 330 190 330 190 334 220 c 2,19,-1
 382 520 l 1,20,-1
 566 520 l 1,0,-1
EndSplineSet
EndChar

StartChar: uhorn
Encoding: 432 432 368
Width: 726
GlyphClass: 2
Flags: W
AnchorPoint: "Anchor-7" 750 625 basechar 0
AnchorPoint: "Anchor-6" 267 520 basechar 0
AnchorPoint: "Anchor-5" 520 0 basechar 0
AnchorPoint: "Anchor-4" 267 0 basechar 0
LayerCount: 2
Fore
SplineSet
780 487 m 0,1,2
 766 398 766 398 720 351.5 c 128,-1,3
 674 305 674 305 603 305 c 0,4,5
 569 305 569 305 534 317 c 1,6,-1
 484 0 l 1,7,-1
 309 0 l 1,8,-1
 317 60 l 1,9,-1
 315 60 l 1,10,11
 279 23 279 23 243 6.5 c 128,-1,12
 207 -10 207 -10 162 -10 c 0,13,14
 78 -10 78 -10 47.5 40 c 128,-1,15
 17 90 17 90 35 200 c 2,16,-1
 86 520 l 1,17,-1
 270 520 l 1,18,-1
 225 240 l 2,19,20
 217 190 217 190 224.5 170 c 128,-1,21
 232 150 232 150 258 150 c 0,22,23
 286 150 286 150 308 170 c 128,-1,24
 330 190 330 190 334 220 c 2,25,-1
 382 520 l 1,26,-1
 566 520 l 1,27,-1
 555 451 l 2,28,29
 558 450 558 450 565 450 c 0,30,31
 585 450 585 450 598.5 464.5 c 128,-1,32
 612 479 612 479 616 505 c 0,33,34
 619 527 619 527 618 563.5 c 128,-1,35
 617 600 617 600 611 625 c 1,36,-1
 781 625 l 1,37,0
 792 562 792 562 780 487 c 0,1,2
EndSplineSet
EndChar

StartChar: uogonek
Encoding: 371 371 377
Width: 585
GlyphClass: 2
Flags: W
AnchorPoint: "Anchor-7" 489 480 basechar 0
AnchorPoint: "Anchor-6" 267 520 basechar 0
AnchorPoint: "Anchor-5" 520 0 basechar 0
AnchorPoint: "Anchor-4" 267 0 basechar 0
LayerCount: 2
Fore
SplineSet
539 -200 m 1,0,1
 485 -220 485 -220 418 -220 c 0,2,3
 321 -220 321 -220 274 -184 c 128,-1,4
 227 -148 227 -148 237 -82 c 0,5,6
 242 -50 242 -50 260.5 -21.5 c 128,-1,7
 279 7 279 7 314 38 c 1,8,-1
 316 60 l 1,9,-1
 314 60 l 1,10,11
 278 23 278 23 242.5 6.5 c 128,-1,12
 207 -10 207 -10 162 -10 c 0,13,14
 78 -10 78 -10 47.5 40 c 128,-1,15
 17 90 17 90 35 200 c 2,16,-1
 86 520 l 1,17,-1
 270 520 l 1,18,-1
 225 240 l 2,19,20
 217 190 217 190 224.5 170 c 128,-1,21
 232 150 232 150 258 150 c 0,22,23
 286 150 286 150 307.5 170 c 128,-1,24
 329 190 329 190 334 220 c 2,25,-1
 381 520 l 1,26,-1
 566 520 l 1,27,-1
 483 0 l 1,28,29
 411 -28 411 -28 407 -57 c 0,30,31
 405 -71 405 -71 416 -78 c 128,-1,32
 427 -85 427 -85 450 -85 c 0,33,34
 471 -85 471 -85 497 -79.5 c 128,-1,35
 523 -74 523 -74 546 -65 c 1,36,-1
 539 -200 l 1,0,1
EndSplineSet
EndChar

StartChar: uring
Encoding: 367 367 378
Width: 582
GlyphClass: 2
Flags: W
AnchorPoint: "Anchor-7" 490 480 basechar 0
AnchorPoint: "Anchor-6" 267 750 basechar 0
AnchorPoint: "Anchor-5" 520 0 basechar 0
AnchorPoint: "Anchor-4" 267 0 basechar 0
LayerCount: 2
Fore
SplineSet
566 520 m 1,0,-1
 484 0 l 1,1,-1
 309 0 l 1,2,-1
 317 60 l 1,3,-1
 315 60 l 1,4,5
 279 23 279 23 243 6.5 c 128,-1,6
 207 -10 207 -10 162 -10 c 0,7,8
 78 -10 78 -10 47.5 40 c 128,-1,9
 17 90 17 90 35 200 c 2,10,-1
 86 520 l 1,11,-1
 244 520 l 1,12,13
 213 543 213 543 198.5 581.5 c 128,-1,14
 184 620 184 620 191 665 c 0,15,16
 198 711 198 711 226 750 c 128,-1,17
 254 789 254 789 294.5 812 c 128,-1,18
 335 835 335 835 379 835 c 256,19,20
 422 835 422 835 455 812 c 128,-1,21
 488 789 488 789 503.5 750 c 128,-1,22
 519 711 519 711 512 665 c 0,23,24
 505 620 505 620 478 581.5 c 128,-1,25
 451 543 451 543 413 520 c 1,26,-1
 566 520 l 1,0,-1
320.5 704 m 128,-1,28
 303 688 303 688 299 665 c 256,29,30
 295 642 295 642 308 626 c 128,-1,31
 321 610 321 610 343 610 c 256,32,33
 365 610 365 610 382.5 626 c 128,-1,34
 400 642 400 642 404 665 c 256,35,36
 408 688 408 688 395 704 c 128,-1,37
 382 720 382 720 360 720 c 256,38,27
 338 720 338 720 320.5 704 c 128,-1,28
308 170 m 128,-1,40
 330 190 330 190 334 220 c 2,41,-1
 379 504 l 1,42,43
 352 495 352 495 325 495 c 0,44,45
 294 495 294 495 268 507 c 1,46,-1
 225 240 l 2,47,48
 217 190 217 190 224.5 170 c 128,-1,49
 232 150 232 150 258 150 c 0,50,39
 286 150 286 150 308 170 c 128,-1,40
EndSplineSet
EndChar

StartChar: v
Encoding: 118 118 380
Width: 558
Flags: W
LayerCount: 2
Fore
SplineSet
42 520 m 1,0,-1
 234 520 l 1,1,-1
 252 120 l 1,2,-1
 254 120 l 1,3,-1
 399 520 l 1,4,-1
 591 520 l 1,5,-1
 364 0 l 1,6,-1
 104 0 l 1,7,-1
 42 520 l 1,0,-1
EndSplineSet
EndChar

StartChar: w
Encoding: 119 119 381
Width: 789
GlyphClass: 2
Flags: W
AnchorPoint: "Anchor-6" 375 520 basechar 0
AnchorPoint: "Anchor-4" 375 0 basechar 0
LayerCount: 2
Fore
SplineSet
50 520 m 1,0,-1
 234 520 l 1,1,-1
 219 170 l 1,2,-1
 221 170 l 1,3,-1
 320 520 l 1,4,-1
 544 520 l 1,5,-1
 532 170 l 1,6,-1
 534 170 l 1,7,-1
 630 520 l 1,8,-1
 814 520 l 1,9,-1
 616 0 l 1,10,-1
 392 0 l 1,11,-1
 406 350 l 1,12,-1
 404 350 l 1,13,-1
 307 0 l 1,14,-1
 84 0 l 1,15,-1
 50 520 l 1,0,-1
EndSplineSet
EndChar

StartChar: x
Encoding: 120 120 386
Width: 558
Flags: W
LayerCount: 2
Fore
SplineSet
147 260 m 1,0,-1
 59 520 l 1,1,-1
 251 520 l 1,2,-1
 290 360 l 1,3,-1
 292 360 l 1,4,-1
 382 520 l 1,5,-1
 574 520 l 1,6,-1
 404 260 l 1,7,-1
 494 0 l 1,8,-1
 302 0 l 1,9,-1
 261 160 l 1,10,-1
 259 160 l 1,11,-1
 167 0 l 1,12,-1
 -25 0 l 1,13,-1
 147 260 l 1,0,-1
EndSplineSet
EndChar

StartChar: y
Encoding: 121 121 387
Width: 562
GlyphClass: 2
Flags: W
AnchorPoint: "Anchor-6" 254 520 basechar 0
AnchorPoint: "Anchor-4" 254 0 basechar 0
LayerCount: 2
Fore
SplineSet
399 520 m 1,0,-1
 599 520 l 1,1,-1
 233 -220 l 1,2,-1
 38 -220 l 1,3,-1
 153 -27 l 1,4,-1
 38 520 l 1,5,-1
 238 520 l 1,6,-1
 266 170 l 1,7,-1
 268 170 l 1,8,-1
 399 520 l 1,0,-1
EndSplineSet
EndChar

StartChar: z
Encoding: 122 122 396
Width: 542
GlyphClass: 2
Flags: W
AnchorPoint: "Anchor-6" 246 520 basechar 0
AnchorPoint: "Anchor-4" 246 0 basechar 0
LayerCount: 2
Fore
SplineSet
25 140 m 1,0,-1
 275 378 l 1,1,-1
 275 380 l 1,2,-1
 63 380 l 1,3,-1
 86 520 l 1,4,-1
 532 520 l 1,5,-1
 510 380 l 1,6,-1
 260 142 l 1,7,-1
 260 140 l 1,8,-1
 472 140 l 1,9,-1
 450 0 l 1,10,-1
 3 0 l 1,11,-1
 25 140 l 1,0,-1
EndSplineSet
EndChar

StartChar: f_f
Encoding: 1114114 -1 400
Width: 876
GlyphClass: 3
Flags: W
LayerCount: 2
Fore
SplineSet
750 520 m 1,0,-1
 888 520 l 1,1,-1
 866 380 l 1,2,-1
 728 380 l 1,3,-1
 668 0 l 1,4,-1
 481 0 l 1,5,-1
 542 380 l 1,6,-1
 332 380 l 1,7,-1
 271 0 l 1,8,-1
 85 0 l 1,9,-1
 146 380 l 1,10,-1
 32 380 l 1,11,-1
 54 520 l 1,12,-1
 168 520 l 1,13,-1
 171 540 l 2,14,15
 188 647 188 647 250 703.5 c 128,-1,16
 312 760 312 760 412 760 c 0,17,18
 469 760 469 760 537 745 c 1,19,-1
 491 605 l 1,20,21
 455 620 455 620 422 620 c 0,22,23
 392 620 392 620 378 603.5 c 128,-1,24
 364 587 364 587 357 540 c 2,25,-1
 354 520 l 1,26,-1
 564 520 l 1,27,-1
 567 540 l 2,28,29
 584 647 584 647 646 703.5 c 128,-1,30
 708 760 708 760 808 760 c 0,31,32
 865 760 865 760 933 745 c 1,33,-1
 887 605 l 1,34,35
 851 620 851 620 818 620 c 0,36,37
 788 620 788 620 774.5 603.5 c 128,-1,38
 761 587 761 587 753 540 c 2,39,-1
 750 520 l 1,0,-1
EndSplineSet
Ligature2: "'liga' Standard Ligatures in Latin lookup 14 subtable" f f
EndChar

StartChar: ordfeminine
Encoding: 170 170 405
Width: 459
Flags: W
LayerCount: 2
Fore
SplineSet
437 698.5 m 128,-1,1
 475 659 475 659 461 570 c 2,2,-1
 421 314 l 1,3,-1
 265 314 l 1,4,-1
 270 353 l 1,5,-1
 268 353 l 1,6,7
 244 330 244 330 214 318 c 128,-1,8
 184 306 184 306 153 306 c 0,9,10
 96 306 96 306 65.5 343 c 128,-1,11
 35 380 35 380 45 439 c 0,12,13
 56 510 56 510 120.5 549 c 128,-1,14
 185 588 185 588 292 588 c 2,15,-1
 300 588 l 1,16,17
 303 611 303 611 295 618.5 c 128,-1,18
 287 626 287 626 261 626 c 0,19,20
 227 626 227 626 187 616.5 c 128,-1,21
 147 607 147 607 108 590 c 1,22,-1
 106 702 l 1,23,24
 197 738 197 738 300 738 c 0,25,0
 399 738 399 738 437 698.5 c 128,-1,1
262 437 m 128,-1,27
 279 450 279 450 282 473 c 2,28,-1
 286 494 l 1,29,-1
 268 494 l 2,30,31
 227 494 227 494 208 485 c 128,-1,32
 189 476 189 476 185 455 c 0,33,34
 180 424 180 424 219 424 c 0,35,26
 245 424 245 424 262 437 c 128,-1,27
EndSplineSet
EndChar

StartChar: ordmasculine
Encoding: 186 186 406
Width: 480
Flags: W
LayerCount: 2
Fore
SplineSet
91.5 361 m 128,-1,1
 45 416 45 416 62 522 c 256,2,3
 79 628 79 628 142.5 683 c 128,-1,4
 206 738 206 738 312 738 c 0,5,6
 417 738 417 738 463.5 683 c 128,-1,7
 510 628 510 628 493 522 c 256,8,9
 476 416 476 416 412 361 c 128,-1,10
 348 306 348 306 244 306 c 0,11,0
 138 306 138 306 91.5 361 c 128,-1,1
305.5 450.5 m 128,-1,13
 322 473 322 473 330 522 c 256,14,15
 338 571 338 571 328.5 593.5 c 128,-1,16
 319 616 319 616 293 616 c 256,17,18
 267 616 267 616 250.5 593.5 c 128,-1,19
 234 571 234 571 226 522 c 256,20,21
 218 473 218 473 227 450.5 c 128,-1,22
 236 428 236 428 263 428 c 256,23,12
 289 428 289 428 305.5 450.5 c 128,-1,13
EndSplineSet
EndChar

StartChar: zero.lf
Encoding: 1114117 -1 417
Width: 642
Flags: W
LayerCount: 2
Fore
SplineSet
65.5 80 m 128,-1,1
 9 170 9 170 40 365 c 256,2,3
 71 560 71 560 156 650 c 128,-1,4
 241 740 241 740 394 740 c 256,5,6
 547 740 547 740 603 650 c 128,-1,7
 659 560 659 560 628 365 c 256,8,9
 597 170 597 170 512.5 80 c 128,-1,10
 428 -10 428 -10 275 -10 c 256,11,0
 122 -10 122 -10 65.5 80 c 128,-1,1
381.5 207 m 128,-1,13
 410 254 410 254 427 365 c 256,14,15
 445 476 445 476 431.5 523 c 128,-1,16
 418 570 418 570 367 570 c 256,17,18
 316 570 316 570 287.5 523 c 128,-1,19
 259 476 259 476 241 365 c 256,20,21
 223 254 223 254 237 207 c 128,-1,22
 251 160 251 160 302 160 c 256,23,12
 353 160 353 160 381.5 207 c 128,-1,13
EndSplineSet
Substitution2: "'tnum' Tabular Numbers in Latin lookup 11 subtable" zero
AlternateSubs2: "'aalt' Access All Alternates in Latin lookup 1 subtable" zero
EndChar

StartChar: one.lf
Encoding: 1114118 -1 418
Width: 633
Flags: W
LayerCount: 2
Fore
SplineSet
319 484 m 1,0,-1
 317 484 l 1,1,-1
 117 323 l 1,2,-1
 59 483 l 1,3,-1
 353 730 l 1,4,-1
 559 730 l 1,5,-1
 443 0 l 1,6,-1
 242 0 l 1,7,-1
 319 484 l 1,0,-1
EndSplineSet
Substitution2: "'tnum' Tabular Numbers in Latin lookup 11 subtable" one
AlternateSubs2: "'aalt' Access All Alternates in Latin lookup 1 subtable" one
EndChar

StartChar: two.lf
Encoding: 1114119 -1 419
Width: 638
Flags: W
LayerCount: 2
Fore
SplineSet
311 364 m 128,-1,1
 394 442 394 442 403 500 c 0,2,3
 408 534 408 534 389.5 552 c 128,-1,4
 371 570 371 570 331 570 c 0,5,6
 293 570 293 570 245 552.5 c 128,-1,7
 197 535 197 535 128 495 c 1,8,-1
 105 660 l 1,9,10
 161 696 161 696 238 718 c 128,-1,11
 315 740 315 740 387 740 c 0,12,13
 505 740 505 740 564 681 c 128,-1,14
 623 622 623 622 607 520 c 0,15,16
 577 332 577 332 311 167 c 1,17,-1
 311 165 l 1,18,-1
 556 165 l 1,19,-1
 530 0 l 1,20,-1
 20 0 l 1,21,-1
 46 165 l 1,22,0
 228 286 228 286 311 364 c 128,-1,1
EndSplineSet
Substitution2: "'tnum' Tabular Numbers in Latin lookup 11 subtable" two
AlternateSubs2: "'aalt' Access All Alternates in Latin lookup 1 subtable" two
EndChar

StartChar: three.lf
Encoding: 1114120 -1 420
Width: 637
Flags: W
LayerCount: 2
Fore
SplineSet
13 50 m 1,1,-1
 86 207 l 1,2,3
 136 179 136 179 175.5 167 c 128,-1,4
 215 155 215 155 255 155 c 0,5,6
 303 155 303 155 328 172 c 128,-1,7
 353 189 353 189 359 225 c 0,8,9
 363 253 363 253 350.5 267.5 c 128,-1,10
 338 282 338 282 303.5 288.5 c 128,-1,11
 269 295 269 295 204 295 c 2,12,-1
 164 295 l 1,13,-1
 187 440 l 1,14,-1
 375 563 l 1,15,-1
 375 565 l 1,16,-1
 109 565 l 1,17,-1
 135 730 l 1,18,-1
 630 730 l 1,19,-1
 604 565 l 1,20,-1
 402 432 l 1,21,-1
 401 430 l 1,22,-1
 411 430 l 2,23,24
 496 430 496 430 536 377 c 128,-1,25
 576 324 576 324 561 230 c 0,26,27
 543 115 543 115 461.5 52.5 c 128,-1,28
 380 -10 380 -10 248 -10 c 0,29,0
 119 -10 119 -10 13 50 c 1,1,-1
EndSplineSet
Substitution2: "'tnum' Tabular Numbers in Latin lookup 11 subtable" three
AlternateSubs2: "'aalt' Access All Alternates in Latin lookup 1 subtable" three
EndChar

StartChar: four.lf
Encoding: 1114121 -1 421
Width: 643
Flags: W
LayerCount: 2
Fore
SplineSet
301 120 m 1,0,-1
 -12 120 l 1,1,-1
 14 285 l 1,2,-1
 398 730 l 1,3,-1
 594 730 l 1,4,-1
 523 285 l 1,5,-1
 612 285 l 1,6,-1
 585 120 l 1,7,-1
 497 120 l 1,8,-1
 478 0 l 1,9,-1
 282 0 l 1,10,-1
 301 120 l 1,0,-1
336 275 m 1,11,-1
 369 483 l 1,12,-1
 367 483 l 1,13,-1
 190 277 l 1,14,-1
 190 275 l 1,15,-1
 336 275 l 1,11,-1
EndSplineSet
Substitution2: "'tnum' Tabular Numbers in Latin lookup 11 subtable" four
AlternateSubs2: "'aalt' Access All Alternates in Latin lookup 1 subtable" four
EndChar

StartChar: five.lf
Encoding: 1114122 -1 422
Width: 638
Flags: W
LayerCount: 2
Fore
SplineSet
17 30 m 1,1,-1
 82 194 l 1,2,3
 129 174 129 174 166.5 164.5 c 128,-1,4
 204 155 204 155 243 155 c 0,5,6
 306 155 306 155 339.5 179.5 c 128,-1,7
 373 204 373 204 381 255 c 0,8,9
 392 325 392 325 333 325 c 0,10,11
 313 325 313 325 296 317 c 128,-1,12
 279 309 279 309 254 290 c 1,13,-1
 78 290 l 1,14,-1
 167 730 l 1,15,-1
 623 730 l 1,16,-1
 597 565 l 1,17,-1
 317 565 l 1,18,-1
 299 465 l 1,19,-1
 301 465 l 1,20,21
 322 473 322 473 340 476.5 c 128,-1,22
 358 480 358 480 382 480 c 0,23,24
 496 480 496 480 547 419.5 c 128,-1,25
 598 359 598 359 580 245 c 0,26,27
 560 117 560 117 472 53.5 c 128,-1,28
 384 -10 384 -10 226 -10 c 0,29,0
 114 -10 114 -10 17 30 c 1,1,-1
EndSplineSet
Substitution2: "'tnum' Tabular Numbers in Latin lookup 11 subtable" five
AlternateSubs2: "'aalt' Access All Alternates in Latin lookup 1 subtable" five
EndChar

StartChar: six.lf
Encoding: 1114123 -1 423
Width: 641
Flags: W
LayerCount: 2
Fore
SplineSet
71 61.5 m 128,-1,1
 12 133 12 133 36 280 c 0,2,3
 57 412 57 412 125 513 c 128,-1,4
 193 614 193 614 297.5 672.5 c 128,-1,5
 402 731 402 731 530 738 c 1,6,-1
 540 578 l 1,7,8
 441 574 441 574 381 547.5 c 128,-1,9
 321 521 321 521 284 466 c 1,10,-1
 285 464 l 1,11,12
 317 478 317 478 344 484 c 128,-1,13
 371 490 371 490 402 490 c 0,14,15
 512 490 512 490 564.5 426 c 128,-1,16
 617 362 617 362 599 250 c 0,17,18
 586 170 586 170 543 111.5 c 128,-1,19
 500 53 500 53 430.5 21.5 c 128,-1,20
 361 -10 361 -10 274 -10 c 0,21,0
 130 -10 130 -10 71 61.5 c 128,-1,1
368 171 m 128,-1,23
 395 197 395 197 403 245 c 256,24,25
 411 293 411 293 391.5 319 c 128,-1,26
 372 345 372 345 330 345 c 256,27,28
 288 345 288 345 261 319 c 128,-1,29
 234 293 234 293 226 245 c 256,30,31
 218 197 218 197 237 171 c 128,-1,32
 256 145 256 145 299 145 c 256,33,22
 341 145 341 145 368 171 c 128,-1,23
EndSplineSet
Substitution2: "'tnum' Tabular Numbers in Latin lookup 11 subtable" six
AlternateSubs2: "'aalt' Access All Alternates in Latin lookup 1 subtable" six
EndChar

StartChar: seven.lf
Encoding: 1114124 -1 424
Width: 637
Flags: W
LayerCount: 2
Fore
SplineSet
395 555 m 1,1,-1
 396 560 l 1,2,-1
 107 560 l 1,3,-1
 134 730 l 1,4,-1
 654 730 l 1,5,-1
 628 570 l 1,6,7
 525 430 525 430 448.5 300.5 c 128,-1,8
 372 171 372 171 292 0 c 1,9,-1
 77 0 l 1,10,0
 214 298 214 298 395 555 c 1,1,-1
EndSplineSet
Substitution2: "'tnum' Tabular Numbers in Latin lookup 11 subtable" seven
AlternateSubs2: "'aalt' Access All Alternates in Latin lookup 1 subtable" seven
EndChar

StartChar: eight.lf
Encoding: 1114125 -1 425
Width: 642
Flags: W
LayerCount: 2
Fore
SplineSet
122 15.5 m 128,-1,1
 59 41 59 41 31.5 88 c 128,-1,2
 4 135 4 135 14 200 c 0,3,4
 22 253 22 253 56 292.5 c 128,-1,5
 90 332 90 332 157 366 c 1,6,-1
 157 368 l 1,7,8
 116 403 116 403 98.5 451.5 c 128,-1,9
 81 500 81 500 89 550 c 0,10,11
 98 608 98 608 138.5 650.5 c 128,-1,12
 179 693 179 693 244.5 716.5 c 128,-1,13
 310 740 310 740 394 740 c 0,14,15
 475 740 475 740 533.5 716.5 c 128,-1,16
 592 693 592 693 619.5 649.5 c 128,-1,17
 647 606 647 606 638 550 c 0,18,19
 631 504 631 504 599.5 466 c 128,-1,20
 568 428 568 428 508 392 c 1,21,-1
 508 390 l 1,22,23
 622 325 622 325 602 200 c 0,24,25
 586 100 586 100 500 45 c 128,-1,26
 414 -10 414 -10 275 -10 c 0,27,0
 185 -10 185 -10 122 15.5 c 128,-1,1
415.5 485.5 m 128,-1,29
 435 505 435 505 439 530 c 0,30,31
 444 559 444 559 425.5 574.5 c 128,-1,32
 407 590 407 590 370 590 c 256,33,34
 333 590 333 590 309.5 574.5 c 128,-1,35
 286 559 286 559 282 530 c 0,36,37
 278 503 278 503 295.5 484 c 128,-1,38
 313 465 313 465 357 447 c 1,39,28
 396 466 396 466 415.5 485.5 c 128,-1,29
369.5 159.5 m 128,-1,41
 398 179 398 179 403 210 c 0,42,43
 408 239 408 239 385 260.5 c 128,-1,44
 362 282 362 282 302 306 c 1,45,46
 266 287 266 287 243.5 261.5 c 128,-1,47
 221 236 221 236 216 210 c 0,48,49
 211 178 211 178 233.5 159 c 128,-1,50
 256 140 256 140 298 140 c 256,51,40
 341 140 341 140 369.5 159.5 c 128,-1,41
EndSplineSet
Substitution2: "'tnum' Tabular Numbers in Latin lookup 11 subtable" eight
AlternateSubs2: "'aalt' Access All Alternates in Latin lookup 1 subtable" eight
EndChar

StartChar: nine.lf
Encoding: 1114126 -1 426
Width: 641
Flags: W
LayerCount: 2
Fore
SplineSet
595.5 668.5 m 128,-1,1
 654 597 654 597 631 450 c 0,2,3
 610 318 610 318 542 217 c 128,-1,4
 474 116 474 116 369.5 57.5 c 128,-1,5
 265 -1 265 -1 137 -8 c 1,6,-1
 127 152 l 1,7,8
 226 156 226 156 286 182.5 c 128,-1,9
 346 209 346 209 383 264 c 1,10,-1
 381 266 l 1,11,12
 349 252 349 252 322.5 246 c 128,-1,13
 296 240 296 240 265 240 c 0,14,15
 155 240 155 240 102.5 304 c 128,-1,16
 50 368 50 368 67 480 c 0,17,18
 80 560 80 560 123.5 618.5 c 128,-1,19
 167 677 167 677 236.5 708.5 c 128,-1,20
 306 740 306 740 393 740 c 0,21,0
 537 740 537 740 595.5 668.5 c 128,-1,1
299 559 m 128,-1,23
 272 533 272 533 264 485 c 256,24,25
 256 437 256 437 275 411 c 128,-1,26
 294 385 294 385 337 385 c 256,27,28
 379 385 379 385 406 411 c 128,-1,29
 433 437 433 437 441 485 c 256,30,31
 449 533 449 533 429.5 559 c 128,-1,32
 410 585 410 585 368 585 c 256,33,22
 326 585 326 585 299 559 c 128,-1,23
EndSplineSet
Substitution2: "'tnum' Tabular Numbers in Latin lookup 11 subtable" nine
AlternateSubs2: "'aalt' Access All Alternates in Latin lookup 1 subtable" nine
EndChar

StartChar: uni2070
Encoding: 8304 8304 427
Width: 389
Flags: W
LayerCount: 2
Fore
SplineSet
69.5 340 m 128,-1,1
 36 394 36 394 54 511 c 256,2,3
 73 628 73 628 123.5 682 c 128,-1,4
 174 736 174 736 266 736 c 256,5,6
 358 736 358 736 391.5 682 c 128,-1,7
 425 628 425 628 407 511 c 256,8,9
 388 394 388 394 337.5 340 c 128,-1,10
 287 286 287 286 195 286 c 256,11,0
 103 286 103 286 69.5 340 c 128,-1,1
246 430.5 m 128,-1,13
 258 453 258 453 267 511 c 256,14,15
 276 569 276 569 271 591.5 c 128,-1,16
 266 614 266 614 247 614 c 256,17,18
 227 614 227 614 215 591.5 c 128,-1,19
 203 569 203 569 194 511 c 256,20,21
 185 453 185 453 190 430.5 c 128,-1,22
 195 408 195 408 214 408 c 256,23,12
 234 408 234 408 246 430.5 c 128,-1,13
EndSplineSet
EndChar

StartChar: uni00B9
Encoding: 185 185 428
Width: 385
Flags: W
LayerCount: 2
Fore
SplineSet
209 555 m 1,0,-1
 207 555 l 1,1,-1
 101 467 l 1,2,-1
 60 582 l 1,3,-1
 236 730 l 1,4,-1
 379 730 l 1,5,-1
 310 292 l 1,6,-1
 167 292 l 1,7,-1
 209 555 l 1,0,-1
EndSplineSet
EndChar

StartChar: uni00B2
Encoding: 178 178 429
Width: 386
Flags: W
LayerCount: 2
Fore
SplineSet
203 508.5 m 128,-1,1
 245 545 245 545 250 575 c 0,2,3
 253 594 253 594 242.5 604 c 128,-1,4
 232 614 232 614 212 614 c 0,5,6
 174 614 174 614 104 573 c 1,7,-1
 93 688 l 1,8,9
 127 710 127 710 173 723 c 128,-1,10
 219 736 219 736 262 736 c 0,11,12
 333 736 333 736 368.5 700.5 c 128,-1,13
 404 665 404 665 394 604 c 0,14,15
 378 504 378 504 246 413 c 1,16,-1
 245 411 l 1,17,-1
 367 411 l 1,18,-1
 348 292 l 1,19,-1
 42 292 l 1,20,-1
 61 411 l 1,21,0
 161 472 161 472 203 508.5 c 128,-1,1
EndSplineSet
EndChar

StartChar: uni00B3
Encoding: 179 179 430
Width: 386
Flags: W
LayerCount: 2
Fore
SplineSet
35 322 m 1,1,-1
 80 429 l 1,2,3
 130 405 130 405 171 405 c 0,4,5
 220 405 220 405 225 437 c 0,6,7
 228 455 228 455 211.5 462 c 128,-1,8
 195 469 195 469 146 469 c 2,9,-1
 126 469 l 1,10,-1
 140 556 l 1,11,-1
 224 609 l 1,12,-1
 224 611 l 1,13,-1
 90 611 l 1,14,-1
 109 730 l 1,15,-1
 406 730 l 1,16,-1
 387 611 l 1,17,-1
 295 551 l 1,18,-1
 295 549 l 1,19,20
 334 549 334 549 353 516 c 128,-1,21
 372 483 372 483 364 430 c 0,22,23
 353 362 353 362 304 324 c 128,-1,24
 255 286 255 286 176 286 c 0,25,0
 99 286 99 286 35 322 c 1,1,-1
EndSplineSet
EndChar

StartChar: uni2074
Encoding: 8308 8308 431
Width: 389
Flags: W
LayerCount: 2
Fore
SplineSet
195 354 m 1,0,-1
 17 354 l 1,1,-1
 35 473 l 1,2,-1
 264 730 l 1,3,-1
 392 730 l 1,4,-1
 351 473 l 1,5,-1
 394 473 l 1,6,-1
 375 354 l 1,7,-1
 332 354 l 1,8,-1
 322 292 l 1,9,-1
 185 292 l 1,10,-1
 195 354 l 1,0,-1
222 463 m 1,11,-1
 238 566 l 1,12,-1
 236 566 l 1,13,-1
 147 465 l 1,14,-1
 146 463 l 1,15,-1
 222 463 l 1,11,-1
EndSplineSet
EndChar

StartChar: fraction
Encoding: 8260 8260 432
Width: 532
Flags: W
LayerCount: 2
Fore
SplineSet
449 730 m 1,0,-1
 596 730 l 1,1,-1
 108 0 l 1,2,-1
 -39 0 l 1,3,-1
 449 730 l 1,0,-1
EndSplineSet
EndChar

StartChar: onehalf
Encoding: 189 189 433
Width: 920
Flags: W
LayerCount: 2
Fore
SplineSet
206 555 m 1,0,-1
 101 467 l 1,1,-1
 59 582 l 1,2,-1
 235 730 l 1,3,-1
 378 730 l 1,4,-1
 309 292 l 1,5,-1
 166 292 l 1,6,-1
 208 555 l 1,7,-1
 206 555 l 1,0,-1
640 730 m 1,8,-1
 787 730 l 1,9,-1
 299 0 l 1,10,-1
 152 0 l 1,11,-1
 640 730 l 1,8,-1
688 216.5 m 128,-1,13
 730 253 730 253 735 283 c 0,14,15
 738 302 738 302 728 312 c 128,-1,16
 718 322 718 322 697 322 c 0,17,18
 659 322 659 322 590 281 c 1,19,-1
 578 396 l 1,20,21
 612 418 612 418 658.5 431 c 128,-1,22
 705 444 705 444 748 444 c 0,23,24
 819 444 819 444 854 408.5 c 128,-1,25
 889 373 889 373 880 312 c 0,26,27
 864 212 864 212 731 121 c 1,28,-1
 730 119 l 1,29,-1
 852 119 l 1,30,-1
 833 0 l 1,31,-1
 527 0 l 1,32,-1
 546 119 l 1,33,12
 646 180 646 180 688 216.5 c 128,-1,13
EndSplineSet
Ligature2: "'frac' Diagonal Fractions in Latin lookup 7 subtable" one slash two
EndChar

StartChar: onequarter
Encoding: 188 188 434
Width: 888
Flags: W
LayerCount: 2
Fore
SplineSet
206 555 m 1,0,-1
 101 467 l 1,1,-1
 59 582 l 1,2,-1
 235 730 l 1,3,-1
 378 730 l 1,4,-1
 309 292 l 1,5,-1
 166 292 l 1,6,-1
 208 555 l 1,7,-1
 206 555 l 1,0,-1
640 730 m 1,8,-1
 787 730 l 1,9,-1
 299 0 l 1,10,-1
 152 0 l 1,11,-1
 640 730 l 1,8,-1
465 62 m 1,12,-1
 484 181 l 1,13,-1
 712 438 l 1,14,-1
 840 438 l 1,15,-1
 799 181 l 1,16,-1
 842 181 l 1,17,-1
 823 62 l 1,18,-1
 780 62 l 1,19,-1
 770 0 l 1,20,-1
 633 0 l 1,21,-1
 643 62 l 1,22,-1
 465 62 l 1,12,-1
686 274 m 1,23,-1
 684 274 l 1,24,-1
 595 173 l 1,25,-1
 595 171 l 1,26,-1
 670 171 l 1,27,-1
 686 274 l 1,23,-1
EndSplineSet
Ligature2: "'frac' Diagonal Fractions in Latin lookup 7 subtable" one slash four
EndChar

StartChar: threequarters
Encoding: 190 190 435
Width: 866
Flags: W
LayerCount: 2
Fore
SplineSet
36 322 m 1,1,-1
 81 429 l 1,2,3
 131 405 131 405 172 405 c 0,4,5
 221 405 221 405 226 437 c 0,6,7
 229 455 229 455 212.5 462 c 128,-1,8
 196 469 196 469 147 469 c 2,9,-1
 127 469 l 1,10,-1
 141 556 l 1,11,-1
 225 609 l 1,12,-1
 225 611 l 1,13,-1
 91 611 l 1,14,-1
 109 730 l 1,15,-1
 406 730 l 1,16,-1
 388 611 l 1,17,-1
 296 551 l 1,18,-1
 295 549 l 1,19,20
 334 549 334 549 353.5 516 c 128,-1,21
 373 483 373 483 365 430 c 0,22,23
 354 362 354 362 305 324 c 128,-1,24
 256 286 256 286 177 286 c 256,25,0
 99 286 99 286 36 322 c 1,1,-1
618 730 m 1,26,-1
 765 730 l 1,27,-1
 277 0 l 1,28,-1
 130 0 l 1,29,-1
 618 730 l 1,26,-1
443 62 m 1,30,-1
 462 181 l 1,31,-1
 690 438 l 1,32,-1
 818 438 l 1,33,-1
 777 181 l 1,34,-1
 820 181 l 1,35,-1
 801 62 l 1,36,-1
 758 62 l 1,37,-1
 748 0 l 1,38,-1
 611 0 l 1,39,-1
 621 62 l 1,40,-1
 443 62 l 1,30,-1
664 274 m 1,41,-1
 662 274 l 1,42,-1
 573 173 l 1,43,-1
 573 171 l 1,44,-1
 648 171 l 1,45,-1
 664 274 l 1,41,-1
EndSplineSet
Ligature2: "'frac' Diagonal Fractions in Latin lookup 7 subtable" three slash four
EndChar

StartChar: period
Encoding: 46 46 436
Width: 317
Flags: W
LayerCount: 2
Fore
SplineSet
45 200 m 1,0,-1
 241 200 l 1,1,-1
 210 0 l 1,2,-1
 14 0 l 1,3,-1
 45 200 l 1,0,-1
EndSplineSet
EndChar

StartChar: comma
Encoding: 44 44 437
Width: 317
Flags: W
LayerCount: 2
Fore
SplineSet
58 200 m 1,0,-1
 264 200 l 1,1,-1
 99 -100 l 1,2,-1
 -48 -100 l 1,3,-1
 58 200 l 1,0,-1
EndSplineSet
EndChar

StartChar: colon
Encoding: 58 58 438
Width: 317
Flags: W
LayerCount: 2
Fore
SplineSet
96 520 m 1,0,-1
 292 520 l 1,1,-1
 260 320 l 1,2,-1
 64 320 l 1,3,-1
 96 520 l 1,0,-1
45 200 m 1,4,-1
 241 200 l 1,5,-1
 210 0 l 1,6,-1
 14 0 l 1,7,-1
 45 200 l 1,4,-1
EndSplineSet
Substitution2: "'aalt' Access All Alternates in Latin lookup 0 subtable" uniFF1A
EndChar

StartChar: semicolon
Encoding: 59 59 439
Width: 317
Flags: W
LayerCount: 2
Fore
SplineSet
109 520 m 1,0,-1
 305 520 l 1,1,-1
 274 320 l 1,2,-1
 78 320 l 1,3,-1
 109 520 l 1,0,-1
58 200 m 1,4,-1
 264 200 l 1,5,-1
 99 -100 l 1,6,-1
 -48 -100 l 1,7,-1
 58 200 l 1,4,-1
EndSplineSet
EndChar

StartChar: exclam
Encoding: 33 33 441
Width: 366
Flags: W
LayerCount: 2
Fore
SplineSet
136 730 m 1,0,-1
 371 730 l 1,1,-1
 264 240 l 1,2,-1
 88 240 l 1,3,-1
 136 730 l 1,0,-1
67 170 m 1,4,-1
 263 170 l 1,5,-1
 236 0 l 1,6,-1
 40 0 l 1,7,-1
 67 170 l 1,4,-1
EndSplineSet
Substitution2: "'aalt' Access All Alternates in Latin lookup 0 subtable" uniFF01
EndChar

StartChar: exclamdown
Encoding: 161 161 442
Width: 366
Flags: W
LayerCount: 2
Fore
SplineSet
122 520 m 1,0,-1
 318 520 l 1,1,-1
 292 350 l 1,2,-1
 96 350 l 1,3,-1
 122 520 l 1,0,-1
94 280 m 1,4,-1
 271 280 l 1,5,-1
 222 -210 l 1,6,-1
 -13 -210 l 1,7,-1
 94 280 l 1,4,-1
EndSplineSet
EndChar

StartChar: question
Encoding: 63 63 443
Width: 581
Flags: W
LayerCount: 2
Fore
SplineSet
187.5 342 m 128,-1,1
 227 391 227 391 306 446 c 0,2,3
 355 479 355 479 371.5 495 c 128,-1,4
 388 511 388 511 391 530 c 0,5,6
 395 555 395 555 377 565 c 128,-1,7
 359 575 359 575 310 575 c 0,8,9
 225 575 225 575 93 535 c 1,10,-1
 85 700 l 1,11,12
 150 719 150 719 223.5 729.5 c 128,-1,13
 297 740 297 740 366 740 c 0,14,15
 631 740 631 740 602 560 c 0,16,17
 593 502 593 502 558.5 457.5 c 128,-1,18
 524 413 524 413 450 365 c 0,19,20
 404 335 404 335 374 302 c 128,-1,21
 344 269 344 269 336 240 c 1,22,-1
 140 240 l 1,23,0
 148 293 148 293 187.5 342 c 128,-1,1
128 170 m 1,24,-1
 324 170 l 1,25,-1
 298 0 l 1,26,-1
 102 0 l 1,27,-1
 128 170 l 1,24,-1
EndSplineSet
Substitution2: "'aalt' Access All Alternates in Latin lookup 0 subtable" uniFF1F
EndChar

StartChar: questiondown
Encoding: 191 191 444
Width: 581
Flags: W
LayerCount: 2
Fore
SplineSet
250 350 m 1,0,-1
 277 520 l 1,1,-1
 473 520 l 1,2,-1
 446 350 l 1,3,-1
 250 350 l 1,0,-1
386.5 178 m 128,-1,5
 347 129 347 129 268 74 c 0,6,7
 219 41 219 41 202.5 25 c 128,-1,8
 186 9 186 9 183 -10 c 0,9,10
 179 -35 179 -35 197.5 -45 c 128,-1,11
 216 -55 216 -55 264 -55 c 0,12,13
 349 -55 349 -55 481 -15 c 1,14,-1
 489 -180 l 1,15,16
 424 -199 424 -199 350.5 -209.5 c 128,-1,17
 277 -220 277 -220 208 -220 c 0,18,19
 -57 -220 -57 -220 -28 -40 c 0,20,21
 -19 18 -19 18 15.5 62.5 c 128,-1,22
 50 107 50 107 124 155 c 0,23,24
 170 185 170 185 200 218 c 128,-1,25
 230 251 230 251 239 280 c 1,26,-1
 435 280 l 1,27,4
 426 227 426 227 386.5 178 c 128,-1,5
EndSplineSet
EndChar

StartChar: bullet
Encoding: 8226 8226 446
Width: 419
Flags: W
LayerCount: 2
Fore
SplineSet
110 151.5 m 128,-1,1
 77 173 77 173 62 210 c 128,-1,2
 47 247 47 247 54 290 c 256,3,4
 61 333 61 333 87.5 370 c 128,-1,5
 114 407 114 407 154 428.5 c 128,-1,6
 194 450 194 450 236 450 c 256,7,8
 278 450 278 450 311 428.5 c 128,-1,9
 344 407 344 407 359 370 c 128,-1,10
 374 333 374 333 367 290 c 256,11,12
 360 247 360 247 333.5 210 c 128,-1,13
 307 173 307 173 267 151.5 c 128,-1,14
 227 130 227 130 185 130 c 256,15,0
 143 130 143 130 110 151.5 c 128,-1,1
EndSplineSet
EndChar

StartChar: asterisk
Encoding: 42 42 447
Width: 521
Flags: W
LayerCount: 2
Fore
SplineSet
85 388 m 1,0,-1
 182 493 l 1,1,-1
 62 529 l 1,2,-1
 131 673 l 1,3,-1
 246 627 l 1,4,-1
 263 760 l 1,5,-1
 410 760 l 1,6,-1
 385 627 l 1,7,-1
 514 673 l 1,8,-1
 537 529 l 1,9,-1
 406 493 l 1,10,-1
 469 388 l 1,11,-1
 336 300 l 1,12,-1
 281 410 l 1,13,-1
 191 300 l 1,14,-1
 85 388 l 1,0,-1
EndSplineSet
EndChar

StartChar: numbersign
Encoding: 35 35 448
Width: 680
Flags: W
LayerCount: 2
Fore
SplineSet
676 445 m 1,0,-1
 584 445 l 1,1,-1
 537 305 l 1,2,-1
 602 305 l 1,3,-1
 578 155 l 1,4,-1
 487 155 l 1,5,-1
 436 0 l 1,6,-1
 259 0 l 1,7,-1
 310 155 l 1,8,-1
 252 155 l 1,9,-1
 201 0 l 1,10,-1
 24 0 l 1,11,-1
 75 155 l 1,12,-1
 10 155 l 1,13,-1
 33 305 l 1,14,-1
 125 305 l 1,15,-1
 172 445 l 1,16,-1
 107 445 l 1,17,-1
 131 595 l 1,18,-1
 221 595 l 1,19,-1
 266 730 l 1,20,-1
 443 730 l 1,21,-1
 398 595 l 1,22,-1
 457 595 l 1,23,-1
 501 730 l 1,24,-1
 678 730 l 1,25,-1
 633 595 l 1,26,-1
 700 595 l 1,27,-1
 676 445 l 1,0,-1
295 300 m 1,28,-1
 364 300 l 1,29,-1
 414 450 l 1,30,-1
 345 450 l 1,31,-1
 295 300 l 1,28,-1
EndSplineSet
EndChar

StartChar: slash
Encoding: 47 47 449
Width: 532
Flags: W
LayerCount: 2
Fore
SplineSet
423 750 m 1,0,-1
 600 750 l 1,1,-1
 131 -40 l 1,2,-1
 -45 -40 l 1,3,-1
 423 750 l 1,0,-1
EndSplineSet
EndChar

StartChar: backslash
Encoding: 92 92 450
Width: 532
Flags: W
LayerCount: 2
Fore
SplineSet
474 -40 m 1,0,-1
 298 -40 l 1,1,-1
 80 750 l 1,2,-1
 257 750 l 1,3,-1
 474 -40 l 1,0,-1
EndSplineSet
EndChar

StartChar: parenleft
Encoding: 40 40 451
Width: 394
Flags: W
LayerCount: 2
Fore
SplineSet
68 89 m 128,-1,1
 47 205 47 205 66 330 c 256,2,3
 86 455 86 455 144 571 c 128,-1,4
 202 687 202 687 287 770 c 1,5,-1
 448 770 l 1,6,7
 363 671 363 671 313 563.5 c 128,-1,8
 263 456 263 456 243 330 c 256,9,10
 223 204 223 204 238.5 96.5 c 128,-1,11
 254 -11 254 -11 308 -110 c 1,12,-1
 148 -110 l 1,13,0
 89 -27 89 -27 68 89 c 128,-1,1
EndSplineSet
Substitution2: "'aalt' Access All Alternates in Latin lookup 0 subtable" uniFF08
EndChar

StartChar: parenright
Encoding: 41 41 452
Width: 394
Flags: W
LayerCount: 2
Fore
SplineSet
-39 -110 m 1,0,1
 46 -11 46 -11 96 96.5 c 128,-1,2
 146 204 146 204 166 330 c 256,3,4
 186 456 186 456 170.5 563.5 c 128,-1,5
 155 671 155 671 101 770 c 1,6,-1
 261 770 l 1,7,8
 319 687 319 687 340.5 571 c 128,-1,9
 362 455 362 455 343 330 c 256,10,11
 323 205 323 205 265 89 c 128,-1,12
 207 -27 207 -27 122 -110 c 1,13,-1
 -39 -110 l 1,0,1
EndSplineSet
Substitution2: "'aalt' Access All Alternates in Latin lookup 0 subtable" uniFF09
EndChar

StartChar: braceleft
Encoding: 123 123 453
Width: 507
Flags: W
CounterMasks: 1 e0
LayerCount: 2
Fore
SplineSet
157.5 -70.5 m 128,-1,1
 125 -31 125 -31 139 60 c 2,2,-1
 152 140 l 2,3,4
 162 201 162 201 146 225.5 c 128,-1,5
 130 250 130 250 81 250 c 2,6,-1
 42 250 l 1,7,-1
 67 410 l 1,8,-1
 106 410 l 2,9,10
 155 410 155 410 178.5 434.5 c 128,-1,11
 202 459 202 459 212 520 c 2,12,-1
 225 600 l 2,13,14
 239 691 239 691 284 730.5 c 128,-1,15
 329 770 329 770 418 770 c 2,16,-1
 546 770 l 1,17,-1
 525 640 l 1,18,-1
 486 640 l 2,19,20
 442 640 442 640 424 635 c 128,-1,21
 406 630 406 630 398.5 612.5 c 128,-1,22
 391 595 391 595 383 550 c 2,23,-1
 376 505 l 2,24,25
 364 431 364 431 331 391.5 c 128,-1,26
 298 352 298 352 231 331 c 1,27,-1
 231 329 l 1,28,29
 291 308 291 308 312 268.5 c 128,-1,30
 333 229 333 229 321 155 c 2,31,-1
 314 110 l 2,32,33
 307 65 307 65 309 47.5 c 128,-1,34
 311 30 311 30 327.5 25 c 128,-1,35
 344 20 344 20 388 20 c 2,36,-1
 427 20 l 1,37,-1
 406 -110 l 1,38,-1
 279 -110 l 2,39,0
 190 -110 190 -110 157.5 -70.5 c 128,-1,1
EndSplineSet
EndChar

StartChar: braceright
Encoding: 125 125 454
Width: 507
Flags: W
CounterMasks: 1 e0
LayerCount: 2
Fore
SplineSet
-23 -110 m 1,0,-1
 -3 20 l 1,1,-1
 36 20 l 2,2,3
 80 20 80 20 98 25 c 128,-1,4
 116 30 116 30 124 47.5 c 128,-1,5
 132 65 132 65 139 110 c 2,6,-1
 146 155 l 2,7,8
 158 229 158 229 191 268.5 c 128,-1,9
 224 308 224 308 291 329 c 1,10,-1
 292 331 l 1,11,12
 232 352 232 352 211 391.5 c 128,-1,13
 190 431 190 431 202 505 c 2,14,-1
 209 550 l 2,15,16
 216 595 216 595 214 612.5 c 128,-1,17
 212 630 212 630 195.5 635 c 128,-1,18
 179 640 179 640 135 640 c 2,19,-1
 95 640 l 1,20,-1
 116 770 l 1,21,-1
 243 770 l 2,22,23
 332 770 332 770 365 730.5 c 128,-1,24
 398 691 398 691 383 600 c 2,25,-1
 370 520 l 2,26,27
 360 459 360 459 376 434.5 c 128,-1,28
 392 410 392 410 441 410 c 2,29,-1
 480 410 l 1,30,-1
 455 250 l 1,31,-1
 416 250 l 2,32,33
 367 250 367 250 343.5 225.5 c 128,-1,34
 320 201 320 201 310 140 c 2,35,-1
 298 60 l 2,36,37
 284 -31 284 -31 238.5 -70.5 c 128,-1,38
 193 -110 193 -110 104 -110 c 2,39,-1
 -23 -110 l 1,0,-1
EndSplineSet
EndChar

StartChar: bracketleft
Encoding: 91 91 455
Width: 451
Flags: W
LayerCount: 2
Fore
SplineSet
142 770 m 1,0,-1
 495 770 l 1,1,-1
 475 640 l 1,2,-1
 288 640 l 1,3,-1
 190 20 l 1,4,-1
 376 20 l 1,5,-1
 356 -110 l 1,6,-1
 3 -110 l 1,7,-1
 142 770 l 1,0,-1
EndSplineSet
EndChar

StartChar: bracketright
Encoding: 93 93 456
Width: 451
Flags: W
LayerCount: 2
Fore
SplineSet
323 -110 m 1,0,-1
 -30 -110 l 1,1,-1
 -9 20 l 1,2,-1
 177 20 l 1,3,-1
 275 640 l 1,4,-1
 89 640 l 1,5,-1
 110 770 l 1,6,-1
 463 770 l 1,7,-1
 323 -110 l 1,0,-1
EndSplineSet
EndChar

StartChar: hyphen
Encoding: 45 45 457
Width: 437
Flags: W
LayerCount: 2
Fore
SplineSet
62 375 m 1,0,-1
 405 375 l 1,1,-1
 378 205 l 1,2,-1
 35 205 l 1,3,-1
 62 375 l 1,0,-1
EndSplineSet
EndChar

StartChar: endash
Encoding: 8211 8211 459
Width: 490
Flags: W
LayerCount: 2
Fore
SplineSet
14 375 m 1,0,-1
 504 375 l 1,1,-1
 477 205 l 1,2,-1
 -13 205 l 1,3,-1
 14 375 l 1,0,-1
EndSplineSet
EndChar

StartChar: emdash
Encoding: 8212 8212 460
Width: 980
Flags: W
LayerCount: 2
Fore
SplineSet
14 375 m 1,0,-1
 994 375 l 1,1,-1
 967 205 l 1,2,-1
 -13 205 l 1,3,-1
 14 375 l 1,0,-1
EndSplineSet
EndChar

StartChar: uni2015
Encoding: 8213 8213 461
Width: 973
Flags: W
LayerCount: 2
Fore
SplineSet
71 445 m 1,0,-1
 953 445 l 1,1,-1
 926 275 l 1,2,-1
 44 275 l 1,3,-1
 71 445 l 1,0,-1
EndSplineSet
EndChar

StartChar: underscore
Encoding: 95 95 462
Width: 627
Flags: W
LayerCount: 2
Fore
SplineSet
-56 -70 m 1,0,-1
 571 -70 l 1,1,-1
 551 -200 l 1,2,-1
 -77 -200 l 1,3,-1
 -56 -70 l 1,0,-1
EndSplineSet
EndChar

StartChar: quoteleft
Encoding: 8216 8216 467
Width: 330
Flags: W
LayerCount: 2
Fore
SplineSet
259 470 m 1,0,-1
 53 470 l 1,1,-1
 218 770 l 1,2,-1
 365 770 l 1,3,-1
 259 470 l 1,0,-1
EndSplineSet
EndChar

StartChar: quoteright
Encoding: 8217 8217 468
Width: 330
Flags: W
LayerCount: 2
Fore
SplineSet
178 770 m 1,0,-1
 383 770 l 1,1,-1
 218 470 l 1,2,-1
 71 470 l 1,3,-1
 178 770 l 1,0,-1
EndSplineSet
EndChar

StartChar: guillemotleft
Encoding: 171 171 469
Width: 589
Flags: W
LayerCount: 2
Fore
SplineSet
5 290 m 1,0,-1
 192 520 l 1,1,-1
 361 520 l 1,2,-1
 170 290 l 1,3,-1
 289 60 l 1,4,-1
 119 60 l 1,5,-1
 5 290 l 1,0,-1
250 290 m 1,6,-1
 437 520 l 1,7,-1
 606 520 l 1,8,-1
 415 290 l 1,9,-1
 534 60 l 1,10,-1
 364 60 l 1,11,-1
 250 290 l 1,6,-1
EndSplineSet
EndChar

StartChar: guillemotright
Encoding: 187 187 470
Width: 589
Flags: W
LayerCount: 2
Fore
SplineSet
154 60 m 1,0,-1
 -15 60 l 1,1,-1
 176 290 l 1,2,-1
 57 520 l 1,3,-1
 227 520 l 1,4,-1
 340 290 l 1,5,-1
 154 60 l 1,0,-1
399 60 m 1,6,-1
 230 60 l 1,7,-1
 421 290 l 1,8,-1
 302 520 l 1,9,-1
 472 520 l 1,10,-1
 585 290 l 1,11,-1
 399 60 l 1,6,-1
EndSplineSet
EndChar

StartChar: guilsinglleft
Encoding: 8249 8249 471
Width: 357
Flags: W
LayerCount: 2
Fore
SplineSet
5 290 m 1,0,-1
 199 520 l 1,1,-1
 375 520 l 1,2,-1
 177 290 l 1,3,-1
 302 60 l 1,4,-1
 126 60 l 1,5,-1
 5 290 l 1,0,-1
EndSplineSet
EndChar

StartChar: guilsinglright
Encoding: 8250 8250 472
Width: 357
Flags: W
LayerCount: 2
Fore
SplineSet
161 60 m 1,0,-1
 -15 60 l 1,1,-1
 183 290 l 1,2,-1
 57 520 l 1,3,-1
 234 520 l 1,4,-1
 354 290 l 1,5,-1
 161 60 l 1,0,-1
EndSplineSet
EndChar

StartChar: quotesingle
Encoding: 39 39 474
Width: 324
Flags: W
LayerCount: 2
Fore
SplineSet
136 770 m 1,0,-1
 342 770 l 1,1,-1
 265 470 l 1,2,-1
 118 470 l 1,3,-1
 136 770 l 1,0,-1
EndSplineSet
EndChar

StartChar: uni20B5
Encoding: 8373 8373 477
Width: 706
Flags: W
LayerCount: 2
Fore
SplineSet
635 56 m 1,0,1
 544 8 544 8 437 -6 c 1,2,-1
 421 -105 l 1,3,-1
 274 -105 l 1,4,-1
 290 -6 l 1,5,6
 144 13 144 13 80 108 c 128,-1,7
 16 203 16 203 42 365 c 256,8,9
 68 527 68 527 161.5 622 c 128,-1,10
 255 717 255 717 407 736 c 1,11,-1
 423 835 l 1,12,-1
 570 835 l 1,13,-1
 554 736 l 1,14,15
 657 722 657 722 733 674 c 1,16,-1
 630 519 l 1,17,18
 577 550 577 550 527 562 c 1,19,-1
 464 168 l 1,20,21
 518 180 518 180 581 211 c 1,22,-1
 635 56 l 1,0,1
242.5 240 m 128,-1,24
 264 191 264 191 318 171 c 1,25,-1
 379 559 l 1,26,27
 319 539 319 539 282 490 c 128,-1,28
 245 441 245 441 233 365 c 256,29,23
 221 289 221 289 242.5 240 c 128,-1,24
EndSplineSet
EndChar

StartChar: cent
Encoding: 162 162 478
Width: 565
Flags: W
LayerCount: 2
Fore
SplineSet
487 30 m 1,0,1
 432 7 432 7 383 -2 c 1,2,-1
 366 -105 l 1,3,-1
 229 -105 l 1,4,-1
 245 -8 l 1,5,6
 119 3 119 3 62 72.5 c 128,-1,7
 5 142 5 142 23 260 c 256,8,9
 42 378 42 378 121 447.5 c 128,-1,10
 200 517 200 517 330 528 c 1,11,-1
 345 625 l 1,12,-1
 482 625 l 1,13,-1
 466 522 l 1,14,15
 513 513 513 513 560 490 c 1,16,-1
 499 355 l 1,17,18
 464 371 464 371 443 377 c 1,19,-1
 406 143 l 1,20,21
 429 149 429 149 469 165 c 1,22,-1
 487 30 l 1,0,1
268 137 m 1,24,-1
 307 383 l 1,25,26
 226 359 226 359 210 260 c 256,27,23
 194 161 194 161 268 137 c 1,24,-1
EndSplineSet
EndChar

StartChar: colonmonetary
Encoding: 8353 8353 479
Width: 706
Flags: W
LayerCount: 2
Fore
SplineSet
635 56 m 1,0,1
 555 13 555 13 461 -2 c 1,2,-1
 436 -105 l 1,3,-1
 318 -105 l 1,4,-1
 341 -10 l 1,5,-1
 302 -7 l 1,6,-1
 279 -105 l 1,7,-1
 162 -105 l 1,8,-1
 192 19 l 1,9,10
 98 58 98 58 59.5 146 c 128,-1,11
 21 234 21 234 42 365 c 0,12,13
 66 514 66 514 148 607 c 128,-1,14
 230 700 230 700 363 728 c 1,15,-1
 389 835 l 1,16,-1
 506 835 l 1,17,-1
 484 740 l 1,18,19
 510 740 510 740 523 739 c 1,20,-1
 546 835 l 1,21,-1
 663 835 l 1,22,-1
 635 719 l 1,23,24
 686 703 686 703 733 674 c 1,25,-1
 630 519 l 1,26,-1
 592 539 l 1,27,-1
 504 179 l 1,28,29
 535 189 535 189 581 211 c 1,30,-1
 635 56 l 1,0,1
383 160 m 1,32,-1
 481 569 l 1,33,34
 473 570 473 570 458 570 c 2,35,-1
 442 570 l 1,36,-1
 344 164 l 1,37,31
 356 162 356 162 383 160 c 1,32,-1
244 236 m 1,39,-1
 313 523 l 1,40,41
 250 470 250 470 233 365 c 0,42,38
 221 286 221 286 244 236 c 1,39,-1
EndSplineSet
EndChar

StartChar: currency
Encoding: 164 164 480
Width: 680
Flags: W
LayerCount: 2
Fore
SplineSet
552 249 m 1,1,-1
 623 163 l 1,2,-1
 502 57 l 1,3,-1
 431 143 l 1,4,5
 374 115 374 115 313 115 c 256,6,7
 252 115 252 115 204 143 c 1,8,-1
 106 57 l 1,9,-1
 19 163 l 1,10,-1
 117 249 l 1,11,12
 98 303 98 303 108 365 c 256,13,14
 118 427 118 427 154 481 c 1,15,-1
 83 567 l 1,16,-1
 204 673 l 1,17,-1
 274 587 l 1,18,19
 331 615 331 615 392 615 c 256,20,21
 453 615 453 615 502 587 c 1,22,-1
 600 673 l 1,23,-1
 687 567 l 1,24,-1
 589 481 l 1,25,26
 608 427 608 427 598 365 c 256,27,0
 588 303 588 303 552 249 c 1,1,-1
402.5 305 m 128,-1,29
 431 330 431 330 436 365 c 256,30,31
 442 400 442 400 421.5 425 c 128,-1,32
 401 450 401 450 366 450 c 256,33,34
 332 450 332 450 303.5 425 c 128,-1,35
 275 400 275 400 270 365 c 256,36,37
 264 330 264 330 284.5 305 c 128,-1,38
 305 280 305 280 339 280 c 256,39,28
 374 280 374 280 402.5 305 c 128,-1,29
EndSplineSet
EndChar

StartChar: dollar
Encoding: 36 36 481
Width: 644
Flags: W
LayerCount: 2
Fore
SplineSet
544 95.5 m 128,-1,1
 501 45 501 45 432 17.5 c 128,-1,2
 363 -10 363 -10 275 -10 c 1,3,-1
 260 -105 l 1,4,-1
 113 -105 l 1,5,-1
 131 6 l 1,6,7
 53 26 53 26 7 64 c 1,8,-1
 83 229 l 1,9,10
 114 206 114 206 159 186 c 1,11,-1
 182 329 l 1,12,13
 114 368 114 368 88.5 414 c 128,-1,14
 63 460 63 460 74 525 c 0,15,16
 90 627 90 627 172 682.5 c 128,-1,17
 254 738 254 738 394 740 c 1,18,-1
 409 835 l 1,19,-1
 556 835 l 1,20,-1
 539 726 l 1,21,22
 599 714 599 714 644 690 c 1,23,-1
 569 525 l 1,24,25
 541 541 541 541 511 552 c 1,26,-1
 488 404 l 1,27,28
 557 366 557 366 582.5 321.5 c 128,-1,29
 608 277 608 277 598 215 c 0,30,0
 587 146 587 146 544 95.5 c 128,-1,1
270 525 m 0,32,33
 267 506 267 506 284.5 492 c 128,-1,34
 302 478 302 478 350 463 c 1,35,-1
 368 574 l 1,36,31
 277 569 277 569 270 525 c 0,32,33
371 169 m 128,-1,38
 397 183 397 183 401 210 c 0,39,40
 404 230 404 230 386.5 243.5 c 128,-1,41
 369 257 369 257 320 272 c 1,42,-1
 301 155 l 1,43,37
 345 155 345 155 371 169 c 128,-1,38
EndSplineSet
EndChar

StartChar: dong
Encoding: 8363 8363 482
Width: 723
Flags: W
LayerCount: 2
Fore
SplineSet
744 706 m 1,0,-1
 727 594 l 1,1,-1
 629 594 l 1,2,-1
 558 150 l 1,3,-1
 376 150 l 1,4,-1
 380 186 l 1,5,-1
 378 186 l 1,6,7
 301 142 301 142 213 142 c 0,8,9
 122 142 122 142 81 198.5 c 128,-1,10
 40 255 40 255 56 358 c 256,11,12
 72 461 72 461 131 517.5 c 128,-1,13
 190 574 190 574 282 574 c 0,14,15
 369 574 369 574 425 530 c 1,16,-1
 427 530 l 1,17,-1
 437 594 l 1,18,-1
 315 594 l 1,19,-1
 333 706 l 1,20,-1
 454 706 l 1,21,-1
 461 750 l 1,22,-1
 653 750 l 1,23,-1
 646 706 l 1,24,-1
 744 706 l 1,0,-1
368.5 289.5 m 128,-1,26
 392 311 392 311 398 351 c 2,27,-1
 401 366 l 2,28,29
 407 405 407 405 390 426.5 c 128,-1,30
 373 448 373 448 336 448 c 256,31,32
 299 448 299 448 275 425 c 128,-1,33
 251 402 251 402 244 358 c 256,34,35
 237 314 237 314 253.5 291 c 128,-1,36
 270 268 270 268 308 268 c 256,37,25
 345 268 345 268 368.5 289.5 c 128,-1,26
4 0 m 1,38,-1
 22 112 l 1,39,-1
 650 112 l 1,40,-1
 633 0 l 1,41,-1
 4 0 l 1,38,-1
EndSplineSet
EndChar

StartChar: Euro
Encoding: 8364 8364 483
Width: 772
GlyphClass: 2
Flags: W
AnchorPoint: "Anchor-1" 432 730 basechar 0
AnchorPoint: "Anchor-0" 432 0 basechar 0
LayerCount: 2
Fore
SplineSet
557.5 172.5 m 128,-1,1
 598 185 598 185 647 211 c 1,2,-1
 701 56 l 1,3,4
 582 -10 582 -10 441 -10 c 0,5,6
 306 -10 306 -10 227.5 49 c 128,-1,7
 149 108 149 108 133 220 c 1,8,-1
 14 220 l 1,9,-1
 33 340 l 1,10,-1
 133 340 l 1,11,-1
 137 365 l 1,12,-1
 141 390 l 1,13,-1
 40 390 l 1,14,-1
 59 510 l 1,15,-1
 179 510 l 1,16,17
 230 622 230 622 327 681 c 128,-1,18
 424 740 424 740 559 740 c 0,19,20
 700 740 700 740 799 674 c 1,21,-1
 696 519 l 1,22,23
 655 545 655 545 618 557.5 c 128,-1,24
 581 570 581 570 542 570 c 0,25,26
 454 570 454 570 400 510 c 1,27,-1
 647 510 l 1,28,-1
 628 390 l 1,29,-1
 343 390 l 1,30,31
 341 382 341 382 338 365 c 256,32,33
 335 348 335 348 335 340 c 1,34,-1
 621 340 l 1,35,-1
 602 220 l 1,36,-1
 355 220 l 1,37,38
 390 160 390 160 477 160 c 0,39,0
 517 160 517 160 557.5 172.5 c 128,-1,1
EndSplineSet
EndChar

StartChar: florin
Encoding: 402 402 484
Width: 513
Flags: W
LayerCount: 2
Fore
SplineSet
-45 -105 m 1,1,-1
 1 35 l 1,2,3
 38 20 38 20 70 20 c 0,4,5
 100 20 100 20 113.5 36.5 c 128,-1,6
 127 53 127 53 134 100 c 2,7,-1
 163 280 l 1,8,-1
 52 280 l 1,9,-1
 74 420 l 1,10,-1
 185 420 l 1,11,-1
 201 520 l 2,12,13
 218 627 218 627 280 683.5 c 128,-1,14
 342 740 342 740 442 740 c 0,15,16
 499 740 499 740 567 725 c 1,17,-1
 521 585 l 1,18,19
 485 600 485 600 452 600 c 0,20,21
 422 600 422 600 408.5 583.5 c 128,-1,22
 395 567 395 567 387 520 c 2,23,-1
 371 420 l 1,24,-1
 509 420 l 1,25,-1
 487 280 l 1,26,-1
 349 280 l 1,27,-1
 321 100 l 2,28,29
 304 -7 304 -7 242 -63.5 c 128,-1,30
 180 -120 180 -120 80 -120 c 0,31,0
 23 -120 23 -120 -45 -105 c 1,1,-1
EndSplineSet
EndChar

StartChar: franc
Encoding: 8355 8355 485
Width: 647
Flags: W
LayerCount: 2
Fore
SplineSet
648 565 m 1,0,-1
 363 565 l 1,1,-1
 347 460 l 1,2,-1
 611 460 l 1,3,-1
 586 300 l 1,4,-1
 321 300 l 1,5,-1
 308 215 l 1,6,-1
 499 215 l 1,7,-1
 477 75 l 1,8,-1
 286 75 l 1,9,-1
 274 0 l 1,10,-1
 78 0 l 1,11,-1
 90 75 l 1,12,-1
 -13 75 l 1,13,-1
 9 215 l 1,14,-1
 112 215 l 1,15,-1
 194 730 l 1,16,-1
 674 730 l 1,17,-1
 648 565 l 1,0,-1
EndSplineSet
EndChar

StartChar: uni20B2
Encoding: 8370 8370 486
Width: 774
Flags: W
LayerCount: 2
Fore
SplineSet
688 50 m 1,0,1
 627 22 627 22 554 6.5 c 128,-1,2
 481 -9 481 -9 402 -10 c 1,3,-1
 387 -105 l 1,4,-1
 240 -105 l 1,5,-1
 257 5 l 1,6,7
 132 37 132 37 75.5 130 c 128,-1,8
 19 223 19 223 42 365 c 256,9,10
 64 507 64 507 150 600 c 128,-1,11
 236 693 236 693 371 725 c 1,12,-1
 389 835 l 1,13,-1
 536 835 l 1,14,-1
 521 740 l 1,15,16
 673 738 673 738 761 674 c 1,17,-1
 665 524 l 1,18,19
 587 570 587 570 495 575 c 1,20,-1
 475 452 l 1,21,-1
 752 452 l 1,22,-1
 688 50 l 1,0,1
286 186 m 1,24,-1
 343 544 l 1,25,26
 254 494 254 494 233 365 c 256,27,23
 213 236 213 236 286 186 c 1,24,-1
428 155 m 1,28,29
 473 158 473 158 511 169 c 1,30,-1
 529 287 l 1,31,-1
 449 287 l 1,32,-1
 428 155 l 1,28,29
EndSplineSet
EndChar

StartChar: uni20AD
Encoding: 8365 8365 487
Width: 787
GlyphClass: 2
Flags: W
AnchorPoint: "Anchor-1" 357 730 basechar 0
AnchorPoint: "Anchor-0" 357 0 basechar 0
LayerCount: 2
Fore
SplineSet
767 450 m 1,0,-1
 744 310 l 1,1,-1
 552 310 l 1,2,-1
 695 0 l 1,3,-1
 470 0 l 1,4,-1
 342 310 l 1,5,-1
 323 310 l 1,6,-1
 274 0 l 1,7,-1
 78 0 l 1,8,-1
 127 310 l 1,9,-1
 24 310 l 1,10,-1
 46 450 l 1,11,-1
 149 450 l 1,12,-1
 194 730 l 1,13,-1
 390 730 l 1,14,-1
 345 450 l 1,15,-1
 365 450 l 1,16,-1
 576 730 l 1,17,-1
 801 730 l 1,18,-1
 576 450 l 1,19,-1
 767 450 l 1,0,-1
EndSplineSet
EndChar

StartChar: lira
Encoding: 8356 8356 488
Width: 644
Flags: W
LayerCount: 2
Fore
SplineSet
575 160 m 1,0,-1
 550 0 l 1,1,-1
 21 0 l 1,2,-1
 46 160 l 1,3,4
 107 165 107 165 136 231 c 1,5,-1
 57 231 l 1,6,-1
 76 351 l 1,7,-1
 164 351 l 1,8,-1
 172 401 l 1,9,-1
 84 401 l 1,10,-1
 103 521 l 1,11,-1
 191 521 l 1,12,13
 208 628 208 628 283.5 684 c 128,-1,14
 359 740 359 740 486 740 c 0,15,16
 564 740 564 740 643 715 c 1,17,-1
 594 555 l 1,18,19
 566 569 566 569 541 574.5 c 128,-1,20
 516 580 516 580 485 580 c 0,21,22
 441 580 441 580 419 567 c 128,-1,23
 397 554 397 554 388 521 c 1,24,-1
 569 521 l 1,25,-1
 550 401 l 1,26,-1
 368 401 l 1,27,-1
 360 351 l 1,28,-1
 542 351 l 1,29,-1
 523 231 l 1,30,-1
 332 231 l 1,31,32
 320 205 320 205 303 187 c 128,-1,33
 286 169 286 169 267 162 c 1,34,-1
 266 160 l 1,35,-1
 575 160 l 1,0,-1
EndSplineSet
EndChar

StartChar: uni20BA
Encoding: 8378 8378 489
Width: 679
Flags: W
LayerCount: 2
Fore
SplineSet
661 340 m 1,0,1
 642 217 642 217 578.5 140 c 128,-1,2
 515 63 515 63 401.5 26.5 c 128,-1,3
 288 -10 288 -10 116 -10 c 2,4,-1
 76 -10 l 1,5,-1
 127 309 l 1,6,-1
 21 291 l 1,7,-1
 40 411 l 1,8,-1
 146 429 l 1,9,-1
 154 479 l 1,10,-1
 48 461 l 1,11,-1
 67 581 l 1,12,-1
 173 599 l 1,13,-1
 194 730 l 1,14,-1
 394 730 l 1,15,-1
 379 633 l 1,16,-1
 545 661 l 1,17,-1
 526 541 l 1,18,-1
 360 513 l 1,19,-1
 352 463 l 1,20,-1
 518 491 l 1,21,-1
 499 371 l 1,22,-1
 333 343 l 1,23,-1
 306 172 l 1,24,25
 386 172 386 172 433.5 214.5 c 128,-1,26
 481 257 481 257 494 340 c 1,27,-1
 661 340 l 1,0,1
EndSplineSet
EndChar

StartChar: uni20BC
Encoding: 8380 8380 490
Width: 783
Flags: W
CounterMasks: 1 38
LayerCount: 2
Fore
SplineSet
721.5 660 m 128,-1,1
 778 589 778 589 758 460 c 2,2,-1
 685 0 l 1,3,-1
 499 0 l 1,4,-1
 568 435 l 2,5,6
 579 504 579 504 566.5 534.5 c 128,-1,7
 554 565 554 565 510 569 c 1,8,-1
 420 0 l 1,9,-1
 273 0 l 1,10,-1
 363 569 l 1,11,12
 318 565 318 565 296.5 534.5 c 128,-1,13
 275 504 275 504 264 435 c 2,14,-1
 195 0 l 1,15,-1
 9 0 l 1,16,-1
 82 460 l 2,17,18
 102 589 102 589 181 660 c 128,-1,19
 260 731 260 731 390 739 c 1,20,-1
 406 835 l 1,21,-1
 553 835 l 1,22,-1
 537 739 l 1,23,0
 665 731 665 731 721.5 660 c 128,-1,1
EndSplineSet
EndChar

StartChar: uni20A6
Encoding: 8358 8358 491
Width: 843
GlyphClass: 2
Flags: W
AnchorPoint: "Anchor-1" 387 730 basechar 0
AnchorPoint: "Anchor-0" 387 0 basechar 0
LayerCount: 2
Fore
SplineSet
840 390 m 1,0,-1
 737 390 l 1,1,-1
 730 340 l 1,2,-1
 832 340 l 1,3,-1
 813 220 l 1,4,-1
 711 220 l 1,5,-1
 676 0 l 1,6,-1
 480 0 l 1,7,-1
 339 400 l 1,8,-1
 337 400 l 1,9,-1
 274 0 l 1,10,-1
 78 0 l 1,11,-1
 113 220 l 1,12,-1
 10 220 l 1,13,-1
 29 340 l 1,14,-1
 132 340 l 1,15,-1
 140 390 l 1,16,-1
 37 390 l 1,17,-1
 56 510 l 1,18,-1
 159 510 l 1,19,-1
 194 730 l 1,20,-1
 390 730 l 1,21,-1
 530 330 l 1,22,-1
 532 330 l 1,23,-1
 595 730 l 1,24,-1
 791 730 l 1,25,-1
 756 510 l 1,26,-1
 859 510 l 1,27,-1
 840 390 l 1,0,-1
EndSplineSet
EndChar

StartChar: peseta
Encoding: 8359 8359 492
Width: 773
Flags: W
LayerCount: 2
Fore
SplineSet
782 390 m 1,0,-1
 692 390 l 1,1,2
 657 292 657 292 576 241 c 128,-1,3
 495 190 495 190 373 190 c 2,4,-1
 304 190 l 1,5,-1
 274 0 l 1,6,-1
 78 0 l 1,7,-1
 140 390 l 1,8,-1
 37 390 l 1,9,-1
 59 530 l 1,10,-1
 162 530 l 1,11,-1
 194 730 l 1,12,-1
 419 730 l 2,13,14
 564 730 564 730 637.5 680.5 c 128,-1,15
 711 631 711 631 715 530 c 1,16,-1
 804 530 l 1,17,-1
 782 390 l 1,0,-1
358 530 m 1,18,-1
 505 530 l 1,19,20
 487 580 487 580 405 580 c 2,21,-1
 366 580 l 1,22,-1
 358 530 l 1,18,-1
483 390 m 1,24,-1
 336 390 l 1,25,-1
 328 340 l 1,26,-1
 367 340 l 2,27,23
 450 340 450 340 483 390 c 1,24,-1
EndSplineSet
EndChar

StartChar: uni20B1
Encoding: 8369 8369 493
Width: 773
Flags: W
LayerCount: 2
Fore
SplineSet
797 485 m 1,0,-1
 712 485 l 1,1,2
 712 477 712 477 709 460 c 256,3,4
 706 443 706 443 704 435 c 1,5,-1
 789 435 l 1,6,-1
 770 315 l 1,7,-1
 654 315 l 1,8,9
 611 253 611 253 540.5 221.5 c 128,-1,10
 470 190 470 190 373 190 c 2,11,-1
 304 190 l 1,12,-1
 274 0 l 1,13,-1
 78 0 l 1,14,-1
 128 315 l 1,15,-1
 25 315 l 1,16,-1
 44 435 l 1,17,-1
 147 435 l 1,18,-1
 155 485 l 1,19,-1
 52 485 l 1,20,-1
 71 605 l 1,21,-1
 174 605 l 1,22,-1
 194 730 l 1,23,-1
 419 730 l 2,24,25
 649 730 649 730 699 605 c 1,26,-1
 816 605 l 1,27,-1
 797 485 l 1,0,-1
464.5 369 m 128,-1,29
 499 398 499 398 508 460 c 256,30,31
 518 522 518 522 493 551 c 128,-1,32
 468 580 468 580 405 580 c 2,33,-1
 366 580 l 1,34,-1
 328 340 l 1,35,-1
 367 340 l 2,36,28
 430 340 430 340 464.5 369 c 128,-1,29
EndSplineSet
EndChar

StartChar: uni20BD
Encoding: 8381 8381 494
Width: 705
Flags: W
LayerCount: 2
Fore
SplineSet
315 260 m 1,0,-1
 307 210 l 1,1,-1
 498 210 l 1,2,-1
 479 90 l 1,3,-1
 288 90 l 1,4,-1
 274 0 l 1,5,-1
 78 0 l 1,6,-1
 92 90 l 1,7,-1
 -11 90 l 1,8,-1
 8 210 l 1,9,-1
 111 210 l 1,10,-1
 119 260 l 1,11,-1
 16 260 l 1,12,-1
 35 380 l 1,13,-1
 138 380 l 1,14,-1
 194 730 l 1,15,-1
 419 730 l 2,16,17
 588 730 588 730 660 667 c 128,-1,18
 732 604 732 604 712 475 c 0,19,20
 695 370 695 370 611 315 c 128,-1,21
 527 260 527 260 384 260 c 2,22,-1
 315 260 l 1,0,-1
334 380 m 1,23,-1
 373 380 l 2,24,25
 436 380 436 380 469.5 403 c 128,-1,26
 503 426 503 426 511 475 c 256,27,28
 519 524 519 524 492.5 547 c 128,-1,29
 466 570 466 570 403 570 c 2,30,-1
 364 570 l 1,31,-1
 334 380 l 1,23,-1
EndSplineSet
EndChar

StartChar: uni20B9
Encoding: 8377 8377 495
Width: 614
Flags: W
LayerCount: 2
Fore
SplineSet
530 610 m 1,0,1
 542 580 542 580 543 545 c 1,2,-1
 630 545 l 1,3,-1
 611 425 l 1,4,-1
 520 425 l 1,5,6
 474 312 474 312 346 274 c 1,7,-1
 490 0 l 1,8,-1
 274 0 l 1,9,-1
 140 255 l 1,10,-1
 40 255 l 1,11,-1
 61 390 l 1,12,-1
 228 390 l 2,13,14
 288 390 288 390 313 425 c 1,15,-1
 67 425 l 1,16,-1
 86 545 l 1,17,-1
 332 545 l 1,18,19
 318 580 318 580 258 580 c 2,20,-1
 91 580 l 1,21,-1
 115 730 l 1,22,-1
 659 730 l 1,23,-1
 640 610 l 1,24,-1
 530 610 l 1,0,1
EndSplineSet
EndChar

StartChar: sterling
Encoding: 163 163 496
Width: 644
Flags: W
LayerCount: 2
Fore
SplineSet
575 160 m 1,0,-1
 550 0 l 1,1,-1
 21 0 l 1,2,-1
 46 160 l 1,3,4
 90 163 90 163 118 198.5 c 128,-1,5
 146 234 146 234 156 298 c 2,6,-1
 157 306 l 1,7,-1
 69 306 l 1,8,-1
 91 446 l 1,9,-1
 179 446 l 1,10,-1
 191 520 l 2,11,12
 208 627 208 627 283.5 683.5 c 128,-1,13
 359 740 359 740 486 740 c 0,14,15
 564 740 564 740 643 715 c 1,16,-1
 594 555 l 1,17,18
 566 569 566 569 541 574.5 c 128,-1,19
 516 580 516 580 485 580 c 0,20,21
 435 580 435 580 413 562.5 c 128,-1,22
 391 545 391 545 384 500 c 2,23,-1
 375 446 l 1,24,-1
 557 446 l 1,25,-1
 534 306 l 1,26,-1
 353 306 l 1,27,-1
 352 298 l 2,28,29
 344 247 344 247 321 210.5 c 128,-1,30
 298 174 298 174 267 162 c 1,31,-1
 266 160 l 1,32,-1
 575 160 l 1,0,-1
EndSplineSet
EndChar

StartChar: uni20A9
Encoding: 8361 8361 497
Width: 1039
GlyphClass: 2
Flags: W
AnchorPoint: "Anchor-1" 487 730 basechar 0
AnchorPoint: "Anchor-0" 487 0 basechar 0
LayerCount: 2
Fore
SplineSet
1036 390 m 1,0,-1
 919 390 l 1,1,-1
 901 340 l 1,2,-1
 1028 340 l 1,3,-1
 1009 220 l 1,4,-1
 858 220 l 1,5,-1
 779 0 l 1,6,-1
 543 0 l 1,7,-1
 542 420 l 1,8,-1
 540 420 l 1,9,-1
 406 0 l 1,10,-1
 171 0 l 1,11,-1
 162 220 l 1,12,-1
 10 220 l 1,13,-1
 29 340 l 1,14,-1
 156 340 l 1,15,-1
 154 390 l 1,16,-1
 37 390 l 1,17,-1
 56 510 l 1,18,-1
 149 510 l 1,19,-1
 140 730 l 1,20,-1
 341 730 l 1,21,-1
 334 510 l 1,22,-1
 420 510 l 1,23,-1
 457 630 l 1,24,-1
 692 630 l 1,25,-1
 691 510 l 1,26,-1
 777 510 l 1,27,-1
 840 730 l 1,28,-1
 1041 730 l 1,29,-1
 962 510 l 1,30,-1
 1055 510 l 1,31,-1
 1036 390 l 1,0,-1
326 210 m 1,32,-1
 328 210 l 1,33,-1
 383 390 l 1,34,-1
 331 390 l 1,35,-1
 326 210 l 1,32,-1
690 210 m 1,36,-1
 742 390 l 1,37,-1
 690 390 l 1,38,-1
 688 210 l 1,39,-1
 690 210 l 1,36,-1
EndSplineSet
EndChar

StartChar: yen
Encoding: 165 165 498
Width: 673
Flags: W
LayerCount: 2
Fore
SplineSet
741 730 m 1,0,-1
 523 400 l 1,1,-1
 639 400 l 1,2,-1
 620 280 l 1,3,-1
 444 280 l 1,4,-1
 438 270 l 1,5,-1
 431 230 l 1,6,-1
 612 230 l 1,7,-1
 593 110 l 1,8,-1
 412 110 l 1,9,-1
 395 0 l 1,10,-1
 189 0 l 1,11,-1
 206 110 l 1,12,-1
 25 110 l 1,13,-1
 44 230 l 1,14,-1
 225 230 l 1,15,-1
 232 270 l 1,16,-1
 228 280 l 1,17,-1
 52 280 l 1,18,-1
 71 400 l 1,19,-1
 188 400 l 1,20,-1
 74 730 l 1,21,-1
 290 730 l 1,22,-1
 361 440 l 1,23,-1
 363 440 l 1,24,-1
 525 730 l 1,25,-1
 741 730 l 1,0,-1
EndSplineSet
EndChar

StartChar: uni2215
Encoding: 8725 8725 500
Width: 505
Flags: W
LayerCount: 2
Fore
SplineSet
394 730 m 1,0,-1
 570 730 l 1,1,-1
 138 0 l 1,2,-1
 -39 0 l 1,3,-1
 394 730 l 1,0,-1
EndSplineSet
EndChar

StartChar: plus
Encoding: 43 43 501
Width: 663
Flags: W
LayerCount: 2
Fore
SplineSet
236 205 m 1,0,-1
 35 205 l 1,1,-1
 62 375 l 1,2,-1
 263 375 l 1,3,-1
 295 580 l 1,4,-1
 462 580 l 1,5,-1
 429 375 l 1,6,-1
 630 375 l 1,7,-1
 603 205 l 1,8,-1
 402 205 l 1,9,-1
 370 0 l 1,10,-1
 203 0 l 1,11,-1
 236 205 l 1,0,-1
EndSplineSet
EndChar

StartChar: minus
Encoding: 8722 8722 502
Width: 663
Flags: W
LayerCount: 2
Fore
SplineSet
62 375 m 1,0,-1
 630 375 l 1,1,-1
 603 205 l 1,2,-1
 35 205 l 1,3,-1
 62 375 l 1,0,-1
EndSplineSet
EndChar

StartChar: multiply
Encoding: 215 215 503
Width: 614
Flags: W
LayerCount: 2
Fore
SplineSet
-6 117 m 1,0,-1
 190 290 l 1,1,-1
 48 463 l 1,2,-1
 185 583 l 1,3,-1
 327 410 l 1,4,-1
 524 583 l 1,5,-1
 623 463 l 1,6,-1
 426 290 l 1,7,-1
 568 117 l 1,8,-1
 431 -3 l 1,9,-1
 289 170 l 1,10,-1
 92 -3 l 1,11,-1
 -6 117 l 1,0,-1
EndSplineSet
EndChar

StartChar: divide
Encoding: 247 247 504
Width: 663
Flags: W
CounterMasks: 1 e0
LayerCount: 2
Fore
SplineSet
285.5 429.5 m 128,-1,1
 261 459 261 459 268 500 c 256,2,3
 274 541 274 541 307.5 570.5 c 128,-1,4
 341 600 341 600 382 600 c 256,5,6
 422 600 422 600 446 570.5 c 128,-1,7
 470 541 470 541 464 500 c 256,8,9
 458 459 458 459 424 429.5 c 128,-1,10
 390 400 390 400 350 400 c 256,11,0
 310 400 310 400 285.5 429.5 c 128,-1,1
62 375 m 1,12,-1
 630 375 l 1,13,-1
 603 205 l 1,14,-1
 35 205 l 1,15,-1
 62 375 l 1,12,-1
219 9.5 m 128,-1,17
 195 39 195 39 201 80 c 256,18,19
 207 121 207 121 241 150.5 c 128,-1,20
 275 180 275 180 315 180 c 256,21,22
 355 180 355 180 379.5 150.5 c 128,-1,23
 404 121 404 121 397 80 c 256,24,25
 391 39 391 39 357.5 9.5 c 128,-1,26
 324 -20 324 -20 283 -20 c 256,27,16
 243 -20 243 -20 219 9.5 c 128,-1,17
EndSplineSet
EndChar

StartChar: equal
Encoding: 61 61 505
Width: 699
Flags: W
LayerCount: 2
Fore
SplineSet
100 500 m 1,0,-1
 668 500 l 1,1,-1
 642 335 l 1,2,-1
 74 335 l 1,3,-1
 100 500 l 1,0,-1
59 245 m 1,4,-1
 628 245 l 1,5,-1
 602 80 l 1,6,-1
 33 80 l 1,7,-1
 59 245 l 1,4,-1
EndSplineSet
EndChar

StartChar: notequal
Encoding: 8800 8800 506
Width: 699
Flags: W
LayerCount: 2
Fore
SplineSet
642 335 m 1,0,-1
 459 335 l 1,1,-1
 417 245 l 1,2,-1
 628 245 l 1,3,-1
 602 80 l 1,4,-1
 340 80 l 1,5,-1
 277 -56 l 1,6,-1
 127 -5 l 1,7,-1
 166 80 l 1,8,-1
 33 80 l 1,9,-1
 59 245 l 1,10,-1
 243 245 l 1,11,-1
 284 335 l 1,12,-1
 74 335 l 1,13,-1
 100 500 l 1,14,-1
 361 500 l 1,15,-1
 424 636 l 1,16,-1
 575 585 l 1,17,-1
 535 500 l 1,18,-1
 668 500 l 1,19,-1
 642 335 l 1,0,-1
EndSplineSet
EndChar

StartChar: greater
Encoding: 62 62 507
Width: 674
Flags: W
LayerCount: 2
Fore
SplineSet
41 170 m 1,0,-1
 480 289 l 1,1,-1
 481 291 l 1,2,-1
 79 410 l 1,3,-1
 108 590 l 1,4,-1
 646 400 l 1,5,-1
 611 180 l 1,6,-1
 13 -10 l 1,7,-1
 41 170 l 1,0,-1
EndSplineSet
EndChar

StartChar: less
Encoding: 60 60 508
Width: 674
Flags: W
LayerCount: 2
Fore
SplineSet
31 180 m 1,0,-1
 66 400 l 1,1,-1
 664 590 l 1,2,-1
 636 410 l 1,3,-1
 196 291 l 1,4,-1
 196 289 l 1,5,-1
 598 170 l 1,6,-1
 569 -10 l 1,7,-1
 31 180 l 1,0,-1
EndSplineSet
EndChar

StartChar: greaterequal
Encoding: 8805 8805 509
Width: 670
Flags: W
LayerCount: 2
Fore
SplineSet
36 172 m 1,0,-1
 64 352 l 1,1,-1
 504 471 l 1,2,-1
 504 473 l 1,3,-1
 102 592 l 1,4,-1
 131 772 l 1,5,-1
 669 582 l 1,6,-1
 634 362 l 1,7,-1
 36 172 l 1,0,-1
9 0 m 1,8,-1
 35 165 l 1,9,-1
 603 165 l 1,10,-1
 577 0 l 1,11,-1
 9 0 l 1,8,-1
EndSplineSet
EndChar

StartChar: lessequal
Encoding: 8804 8804 510
Width: 670
Flags: W
LayerCount: 2
Fore
SplineSet
95 582 m 1,0,-1
 694 772 l 1,1,-1
 665 592 l 1,2,-1
 226 473 l 1,3,-1
 226 471 l 1,4,-1
 627 352 l 1,5,-1
 599 172 l 1,6,-1
 61 362 l 1,7,-1
 95 582 l 1,0,-1
29 165 m 1,8,-1
 598 165 l 1,9,-1
 572 0 l 1,10,-1
 3 0 l 1,11,-1
 29 165 l 1,8,-1
EndSplineSet
EndChar

StartChar: plusminus
Encoding: 177 177 511
Width: 699
Flags: W
LayerCount: 2
Fore
SplineSet
283 390 m 1,0,-1
 82 390 l 1,1,-1
 108 555 l 1,2,-1
 309 555 l 1,3,-1
 337 730 l 1,4,-1
 504 730 l 1,5,-1
 476 555 l 1,6,-1
 677 555 l 1,7,-1
 651 390 l 1,8,-1
 450 390 l 1,9,-1
 422 215 l 1,10,-1
 255 215 l 1,11,-1
 283 390 l 1,0,-1
47 165 m 1,12,-1
 615 165 l 1,13,-1
 589 0 l 1,14,-1
 21 0 l 1,15,-1
 47 165 l 1,12,-1
EndSplineSet
EndChar

StartChar: approxequal
Encoding: 8776 8776 512
Width: 732
Flags: W
LayerCount: 2
Fore
SplineSet
124 486 m 128,-1,1
 172 541 172 541 250 541 c 0,2,3
 295 541 295 541 342.5 528.5 c 128,-1,4
 390 516 390 516 448 488 c 0,5,6
 498 464 498 464 522 464 c 0,7,8
 539 464 539 464 547.5 477.5 c 128,-1,9
 556 491 556 491 562 531 c 1,10,-1
 719 531 l 1,11,12
 701 417 701 417 653 363.5 c 128,-1,13
 605 310 605 310 527 310 c 0,14,15
 482 310 482 310 434.5 322.5 c 128,-1,16
 387 335 387 335 330 363 c 0,17,18
 280 387 280 387 255 387 c 0,19,20
 238 387 238 387 229.5 372 c 128,-1,21
 221 357 221 357 214 310 c 1,22,-1
 57 310 l 1,23,0
 76 431 76 431 124 486 c 128,-1,1
81 216 m 128,-1,25
 129 271 129 271 208 271 c 0,26,27
 253 271 253 271 300.5 258.5 c 128,-1,28
 348 246 348 246 405 218 c 0,29,30
 455 194 455 194 480 194 c 0,31,32
 497 194 497 194 505 207.5 c 128,-1,33
 513 221 513 221 520 261 c 1,34,-1
 676 261 l 1,35,36
 658 147 658 147 610 93.5 c 128,-1,37
 562 40 562 40 485 40 c 0,38,39
 440 40 440 40 392 52.5 c 128,-1,40
 344 65 344 65 287 93 c 0,41,42
 237 117 237 117 213 117 c 0,43,44
 196 117 196 117 187 102 c 128,-1,45
 178 87 178 87 171 40 c 1,46,-1
 14 40 l 1,47,24
 33 161 33 161 81 216 c 128,-1,25
EndSplineSet
EndChar

StartChar: asciitilde
Encoding: 126 126 513
Width: 721
Flags: W
LayerCount: 2
Fore
SplineSet
100.5 373 m 128,-1,1
 149 430 149 430 227 430 c 0,2,3
 273 430 273 430 320.5 417 c 128,-1,4
 368 404 368 404 424 375 c 0,5,6
 473 350 473 350 499 350 c 0,7,8
 515 350 515 350 524 364.5 c 128,-1,9
 533 379 533 379 539 420 c 1,10,-1
 696 420 l 1,11,12
 677 301 677 301 628.5 245.5 c 128,-1,13
 580 190 580 190 503 190 c 0,14,15
 457 190 457 190 409.5 203 c 128,-1,16
 362 216 362 216 306 245 c 0,17,18
 257 270 257 270 231 270 c 0,19,20
 214 270 214 270 205.5 254 c 128,-1,21
 197 238 197 238 189 190 c 1,22,-1
 32 190 l 1,23,0
 52 316 52 316 100.5 373 c 128,-1,1
EndSplineSet
EndChar

StartChar: logicalnot
Encoding: 172 172 514
Width: 700
Flags: W
LayerCount: 2
Fore
SplineSet
476 330 m 1,0,-1
 55 330 l 1,1,-1
 82 500 l 1,2,-1
 670 500 l 1,3,-1
 603 80 l 1,4,-1
 436 80 l 1,5,-1
 476 330 l 1,0,-1
EndSplineSet
EndChar

StartChar: asciicircum
Encoding: 94 94 515
Width: 679
Flags: W
LayerCount: 2
Fore
SplineSet
283 730 m 1,0,-1
 538 730 l 1,1,-1
 672 280 l 1,2,-1
 457 280 l 1,3,-1
 389 590 l 1,4,-1
 387 590 l 1,5,-1
 221 280 l 1,6,-1
 6 280 l 1,7,-1
 283 730 l 1,0,-1
EndSplineSet
EndChar

StartChar: uni00B5
Encoding: 181 181 516
Width: 582
GlyphClass: 2
Flags: W
AnchorPoint: "Anchor-3" 490 480 basechar 0
AnchorPoint: "Anchor-2" 520 0 basechar 0
AnchorPoint: "Anchor-1" 267 520 basechar 0
AnchorPoint: "Anchor-0" 267 0 basechar 0
LayerCount: 2
Fore
SplineSet
566 520 m 1,0,-1
 484 0 l 1,1,-1
 309 0 l 1,2,-1
 317 60 l 1,3,-1
 315 60 l 1,4,5
 283 28 283 28 252.5 11.5 c 128,-1,6
 222 -5 222 -5 186 -9 c 1,7,-1
 153 -220 l 1,8,-1
 -32 -220 l 1,9,-1
 86 520 l 1,10,-1
 270 520 l 1,11,-1
 225 240 l 2,12,13
 217 190 217 190 224.5 170 c 128,-1,14
 232 150 232 150 258 150 c 0,15,16
 286 150 286 150 308 170 c 128,-1,17
 330 190 330 190 334 220 c 2,18,-1
 382 520 l 1,19,-1
 566 520 l 1,0,-1
EndSplineSet
EndChar

StartChar: percent
Encoding: 37 37 517
Width: 922
Flags: W
LayerCount: 2
Fore
SplineSet
81 340 m 128,-1,1
 47 394 47 394 66 511 c 256,2,3
 85 628 85 628 135.5 682 c 128,-1,4
 186 736 186 736 278 736 c 256,5,6
 370 736 370 736 403.5 682 c 128,-1,7
 437 628 437 628 419 511 c 256,8,9
 400 394 400 394 349.5 340 c 128,-1,10
 299 286 299 286 207 286 c 256,11,0
 115 286 115 286 81 340 c 128,-1,1
645 730 m 1,12,-1
 792 730 l 1,13,-1
 304 0 l 1,14,-1
 157 0 l 1,15,-1
 645 730 l 1,12,-1
257.5 430.5 m 128,-1,17
 269 453 269 453 279 511 c 256,18,19
 288 569 288 569 283 591.5 c 128,-1,20
 278 614 278 614 259 614 c 256,21,22
 239 614 239 614 227 591.5 c 128,-1,23
 215 569 215 569 206 511 c 256,24,25
 197 453 197 453 201.5 430.5 c 128,-1,26
 206 408 206 408 226 408 c 256,27,16
 246 408 246 408 257.5 430.5 c 128,-1,17
544.5 48 m 128,-1,29
 511 102 511 102 529 219 c 256,30,31
 548 336 548 336 598.5 390 c 128,-1,32
 649 444 649 444 741 444 c 256,33,34
 833 444 833 444 867 390 c 128,-1,35
 901 336 901 336 882 219 c 256,36,37
 863 102 863 102 812.5 48 c 128,-1,38
 762 -6 762 -6 670 -6 c 256,39,28
 578 -6 578 -6 544.5 48 c 128,-1,29
721 138.5 m 128,-1,41
 733 161 733 161 742 219 c 256,42,43
 751 277 751 277 746.5 299.5 c 128,-1,44
 742 322 742 322 722 322 c 256,45,46
 702 322 702 322 690.5 299.5 c 128,-1,47
 679 277 679 277 669 219 c 256,48,49
 660 161 660 161 665 138.5 c 128,-1,50
 670 116 670 116 689 116 c 256,51,40
 709 116 709 116 721 138.5 c 128,-1,41
EndSplineSet
EndChar

StartChar: filledbox
Encoding: 9632 9632 519
Width: 963
Flags: W
LayerCount: 2
Fore
SplineSet
181 740 m 1,0,-1
 926 740 l 1,1,-1
 806 -20 l 1,2,-1
 61 -20 l 1,3,-1
 181 740 l 1,0,-1
EndSplineSet
EndChar

StartChar: at
Encoding: 64 64 520
Width: 793
Flags: W
LayerCount: 2
Fore
SplineSet
610 453 m 1,0,-1
 564 167 l 1,1,-1
 634 167 l 1,2,3
 655 211 655 211 662 260 c 0,4,5
 675 340 675 340 650.5 402.5 c 128,-1,6
 626 465 626 465 570.5 500 c 128,-1,7
 515 535 515 535 436 535 c 256,8,9
 358 535 358 535 291 500 c 128,-1,10
 224 465 224 465 180 402.5 c 128,-1,11
 136 340 136 340 123 260 c 256,12,13
 110 180 110 180 134.5 117.5 c 128,-1,14
 159 55 159 55 215 20 c 128,-1,15
 271 -15 271 -15 349 -15 c 0,16,17
 454 -15 454 -15 536 46 c 1,18,-1
 582 -34 l 1,19,20
 528 -73 528 -73 464.5 -94 c 128,-1,21
 401 -115 401 -115 333 -115 c 0,22,23
 228 -115 228 -115 152 -66.5 c 128,-1,24
 76 -18 76 -18 42 67.5 c 128,-1,25
 8 153 8 153 25 260 c 256,26,27
 42 367 42 367 103 452.5 c 128,-1,28
 164 538 164 538 255.5 586.5 c 128,-1,29
 347 635 347 635 452 635 c 256,30,31
 557 635 557 635 633 586.5 c 128,-1,32
 709 538 709 538 743 452.5 c 128,-1,33
 777 367 777 367 760 260 c 0,34,35
 743 151 743 151 682 67 c 1,36,-1
 420 67 l 1,37,-1
 426 119 l 1,38,-1
 424 119 l 1,39,40
 369 60 369 60 304 60 c 0,41,42
 238 60 238 60 205 113 c 128,-1,43
 172 166 172 166 187 260 c 256,44,45
 202 354 202 354 251.5 407 c 128,-1,46
 301 460 301 460 368 460 c 0,47,48
 401 460 401 460 425.5 445.5 c 128,-1,49
 450 431 450 431 469 401 c 1,50,-1
 471 401 l 1,51,-1
 481 453 l 1,52,-1
 610 453 l 1,0,-1
445 264 m 2,53,54
 452 307 452 307 439 330 c 128,-1,55
 426 353 426 353 398 353 c 256,56,57
 370 353 370 353 349 329 c 128,-1,58
 328 305 328 305 321 260 c 256,59,60
 314 215 314 215 327 191 c 128,-1,61
 340 167 340 167 368 167 c 256,62,63
 396 167 396 167 416.5 190 c 128,-1,64
 437 213 437 213 444 256 c 2,65,-1
 445 264 l 2,53,54
EndSplineSet
EndChar

StartChar: ampersand
Encoding: 38 38 521
Width: 727
Flags: W
LayerCount: 2
Fore
SplineSet
551 -18 m 1,0,-1
 497 39 l 1,1,2
 430 13 430 13 375 1.5 c 128,-1,3
 320 -10 320 -10 263 -10 c 0,4,5
 178 -10 178 -10 118 13 c 128,-1,6
 58 36 58 36 31 79 c 128,-1,7
 4 122 4 122 14 180 c 0,8,9
 23 235 23 235 61 278.5 c 128,-1,10
 99 322 99 322 184 372 c 1,11,12
 133 427 133 427 116.5 467.5 c 128,-1,13
 100 508 100 508 107 555 c 0,14,15
 121 643 121 643 195.5 691.5 c 128,-1,16
 270 740 270 740 391 740 c 0,17,18
 469 740 469 740 524.5 717.5 c 128,-1,19
 580 695 580 695 605.5 653 c 128,-1,20
 631 611 631 611 622 555 c 0,21,22
 613 498 613 498 568 450.5 c 128,-1,23
 523 403 523 403 429 350 c 1,24,-1
 495 278 l 1,25,-1
 511 380 l 1,26,-1
 687 380 l 1,27,-1
 645 116 l 1,28,-1
 691 67 l 1,29,-1
 551 -18 l 1,0,-1
319 590.5 m 128,-1,31
 297 576 297 576 293 550 c 0,32,33
 290 531 290 531 299.5 509 c 128,-1,34
 309 487 309 487 335 454 c 1,35,36
 388 483 388 483 409.5 504 c 128,-1,37
 431 525 431 525 435 550 c 0,38,39
 444 605 444 605 375 605 c 0,40,30
 341 605 341 605 319 590.5 c 128,-1,31
385 159 m 1,42,-1
 281 270 l 1,43,44
 223 232 223 232 217 195 c 0,45,46
 213 169 213 169 233.5 154.5 c 128,-1,47
 254 140 254 140 296 140 c 0,48,41
 341 140 341 140 385 159 c 1,42,-1
EndSplineSet
EndChar

StartChar: paragraph
Encoding: 182 182 522
Width: 685
Flags: W
LayerCount: 2
Fore
SplineSet
124.5 301 m 128,-1,1
 77 332 77 332 55 385 c 128,-1,2
 33 438 33 438 43 500 c 256,3,4
 53 562 53 562 92 615 c 128,-1,5
 131 668 131 668 187.5 699 c 128,-1,6
 244 730 244 730 305 730 c 2,7,-1
 697 730 l 1,8,-1
 564 -110 l 1,9,-1
 407 -110 l 1,10,-1
 518 590 l 1,11,-1
 440 590 l 1,12,-1
 329 -110 l 1,13,-1
 172 -110 l 1,14,-1
 232 270 l 1,15,0
 172 270 172 270 124.5 301 c 128,-1,1
EndSplineSet
EndChar

StartChar: section
Encoding: 167 167 523
Width: 584
Flags: W
LayerCount: 2
Fore
SplineSet
504 140 m 128,-1,1
 510 111 510 111 503 70 c 0,2,3
 489 -16 489 -16 416.5 -68 c 128,-1,4
 344 -120 344 -120 228 -120 c 0,5,6
 109 -120 109 -120 4 -80 c 1,7,-1
 62 70 l 1,8,9
 152 30 152 30 232 30 c 0,10,11
 274 30 274 30 296.5 41 c 128,-1,12
 319 52 319 52 322 70 c 0,13,14
 325 87 325 87 311 98 c 128,-1,15
 297 109 297 109 261 115 c 0,16,17
 140 134 140 134 91.5 181.5 c 128,-1,18
 43 229 43 229 56 310 c 0,19,20
 67 382 67 382 118 429 c 1,21,22
 95 450 95 450 89 479 c 128,-1,23
 83 508 83 508 89 550 c 0,24,25
 103 636 103 636 176 688 c 128,-1,26
 249 740 249 740 365 740 c 0,27,28
 484 740 484 740 588 700 c 1,29,-1
 530 550 l 1,30,31
 440 590 440 590 360 590 c 0,32,33
 318 590 318 590 296 579 c 128,-1,34
 274 568 274 568 271 550 c 0,35,36
 268 533 268 533 282 522 c 128,-1,37
 296 511 296 511 332 505 c 0,38,39
 454 487 454 487 502 439.5 c 128,-1,40
 550 392 550 392 537 310 c 0,41,42
 526 238 526 238 475 191 c 1,43,0
 498 169 498 169 504 140 c 128,-1,1
219 300 m 128,-1,45
 224 287 224 287 243.5 278 c 128,-1,46
 263 269 263 269 303 260 c 0,47,48
 330 255 330 255 360 246 c 1,49,50
 373 264 373 264 376 285 c 0,51,52
 379 307 379 307 373.5 320 c 128,-1,53
 368 333 368 333 349 342.5 c 128,-1,54
 330 352 330 352 290 360 c 0,55,56
 282 362 282 362 233 373 c 1,57,58
 220 355 220 355 217 335 c 0,59,44
 214 313 214 313 219 300 c 128,-1,45
EndSplineSet
EndChar

StartChar: copyright
Encoding: 169 169 524
Width: 793
Flags: W
LayerCount: 2
Fore
SplineSet
174 40.5 m 128,-1,1
 98 91 98 91 62 177 c 128,-1,2
 26 263 26 263 42 365 c 256,3,4
 58 467 58 467 121 553 c 128,-1,5
 184 639 184 639 276.5 689.5 c 128,-1,6
 369 740 369 740 469 740 c 256,7,8
 569 740 569 740 645 689.5 c 128,-1,9
 721 639 721 639 757 553 c 128,-1,10
 793 467 793 467 777 365 c 256,11,12
 761 263 761 263 698 177 c 128,-1,13
 635 91 635 91 542.5 40.5 c 128,-1,14
 450 -10 450 -10 350 -10 c 256,15,0
 250 -10 250 -10 174 40.5 c 128,-1,1
512.5 114 m 128,-1,17
 584 153 584 153 632.5 219.5 c 128,-1,18
 681 286 681 286 694 365 c 256,19,20
 707 444 707 444 679 510.5 c 128,-1,21
 651 577 651 577 592 616 c 128,-1,22
 533 655 533 655 455 655 c 256,23,24
 378 655 378 655 306.5 616 c 128,-1,25
 235 577 235 577 186.5 510.5 c 128,-1,26
 138 444 138 444 125 365 c 256,27,28
 112 286 112 286 140 219.5 c 128,-1,29
 168 153 168 153 227 114 c 128,-1,30
 286 75 286 75 363 75 c 256,31,16
 441 75 441 75 512.5 114 c 128,-1,17
236.5 198 m 128,-1,33
 189 256 189 256 207 365 c 0,34,35
 224 473 224 473 289.5 531.5 c 128,-1,36
 355 590 355 590 460 590 c 0,37,38
 546 590 546 590 603 550 c 1,39,-1
 529 440 l 1,40,41
 484 468 484 468 446 468 c 0,42,43
 406 468 406 468 380.5 442 c 128,-1,44
 355 416 355 416 347 365 c 256,45,46
 339 314 339 314 356.5 288 c 128,-1,47
 374 262 374 262 414 262 c 0,48,49
 455 262 455 262 505 289 c 1,50,-1
 545 179 l 1,51,52
 474 140 474 140 388 140 c 0,53,32
 284 140 284 140 236.5 198 c 128,-1,33
EndSplineSet
EndChar

StartChar: registered
Encoding: 174 174 525
Width: 793
Flags: W
LayerCount: 2
Fore
SplineSet
645 689.5 m 128,-1,1
 721 639 721 639 757 553 c 128,-1,2
 793 467 793 467 777 365 c 256,3,4
 761 263 761 263 698 177 c 128,-1,5
 635 91 635 91 542.5 40.5 c 128,-1,6
 450 -10 450 -10 350 -10 c 256,7,8
 250 -10 250 -10 174 40.5 c 128,-1,9
 98 91 98 91 62 177 c 128,-1,10
 26 263 26 263 42 365 c 256,11,12
 58 467 58 467 121 553 c 128,-1,13
 184 639 184 639 276.5 689.5 c 128,-1,14
 369 740 369 740 469 740 c 256,15,0
 569 740 569 740 645 689.5 c 128,-1,1
650.5 247.5 m 128,-1,17
 684 303 684 303 694 365 c 0,18,19
 707 444 707 444 679 510.5 c 128,-1,20
 651 577 651 577 592 616 c 128,-1,21
 533 655 533 655 455 655 c 256,22,23
 378 655 378 655 306.5 616 c 128,-1,24
 235 577 235 577 186.5 510.5 c 128,-1,25
 138 444 138 444 125 365 c 256,26,27
 112 286 112 286 140 219.5 c 128,-1,28
 168 153 168 153 227 114 c 128,-1,29
 286 75 286 75 363 75 c 0,30,31
 416 75 416 75 466.5 93.5 c 128,-1,32
 517 112 517 112 561 146 c 1,33,-1
 416 146 l 1,34,-1
 376 288 l 1,35,-1
 353 146 l 1,36,-1
 216 146 l 1,37,-1
 285 584 l 1,38,-1
 430 584 l 2,39,40
 531 584 531 584 575 548 c 128,-1,41
 619 512 619 512 607 438 c 0,42,43
 599 390 599 390 574 357 c 128,-1,44
 549 324 549 324 508 307 c 1,45,-1
 567 151 l 1,46,16
 617 192 617 192 650.5 247.5 c 128,-1,17
466 432 m 256,48,49
 472 473 472 473 419 473 c 2,50,-1
 405 473 l 1,51,-1
 392 391 l 1,52,-1
 406 391 l 2,53,47
 460 391 460 391 466 432 c 256,48,49
EndSplineSet
EndChar

StartChar: trademark
Encoding: 8482 8482 526
Width: 763
Flags: W
LayerCount: 2
Fore
SplineSet
175 635 m 1,0,-1
 79 635 l 1,1,-1
 94 730 l 1,2,-1
 387 730 l 1,3,-1
 372 635 l 1,4,-1
 276 635 l 1,5,-1
 233 365 l 1,6,-1
 133 365 l 1,7,-1
 175 635 l 1,0,-1
432 730 m 1,8,-1
 564 730 l 1,9,-1
 594 572 l 1,10,-1
 595 572 l 1,11,-1
 674 730 l 1,12,-1
 806 730 l 1,13,-1
 748 365 l 1,14,-1
 650 365 l 1,15,-1
 682 565 l 1,16,-1
 681 565 l 1,17,-1
 618 443 l 1,18,-1
 529 443 l 1,19,-1
 505 565 l 1,20,-1
 504 565 l 1,21,-1
 473 365 l 1,22,-1
 375 365 l 1,23,-1
 432 730 l 1,8,-1
EndSplineSet
EndChar

StartChar: degree
Encoding: 176 176 527
Width: 422
Flags: W
LayerCount: 2
Fore
SplineSet
135.5 385.5 m 128,-1,1
 97 411 97 411 79 454 c 128,-1,2
 61 497 61 497 69 548 c 256,3,4
 77 599 77 599 109 642 c 128,-1,5
 141 685 141 685 187 710 c 128,-1,6
 233 735 233 735 283 735 c 256,7,8
 333 735 333 735 371 710 c 128,-1,9
 409 685 409 685 427 642 c 128,-1,10
 445 599 445 599 437 548 c 256,11,12
 429 497 429 497 397.5 454 c 128,-1,13
 366 411 366 411 320 385.5 c 128,-1,14
 274 360 274 360 224 360 c 256,15,0
 174 360 174 360 135.5 385.5 c 128,-1,1
295 496 m 128,-1,17
 319 517 319 517 324 548 c 0,18,19
 329 578 329 578 311.5 599 c 128,-1,20
 294 620 294 620 265 620 c 0,21,22
 235 620 235 620 211 599 c 128,-1,23
 187 578 187 578 182 548 c 0,24,25
 177 517 177 517 194 496 c 128,-1,26
 211 475 211 475 242 475 c 0,27,16
 271 475 271 475 295 496 c 128,-1,17
EndSplineSet
EndChar

StartChar: bar
Encoding: 124 124 528
Width: 297
Flags: W
LayerCount: 2
Fore
SplineSet
149 810 m 1,0,-1
 315 810 l 1,1,-1
 152 -220 l 1,2,-1
 -14 -220 l 1,3,-1
 149 810 l 1,0,-1
EndSplineSet
EndChar

StartChar: brokenbar
Encoding: 166 166 529
Width: 297
Flags: W
LayerCount: 2
Fore
SplineSet
149 810 m 1,0,-1
 315 810 l 1,1,-1
 246 370 l 1,2,-1
 79 370 l 1,3,-1
 149 810 l 1,0,-1
55 220 m 1,4,-1
 222 220 l 1,5,-1
 152 -220 l 1,6,-1
 -14 -220 l 1,7,-1
 55 220 l 1,4,-1
EndSplineSet
EndChar

StartChar: dagger
Encoding: 8224 8224 530
Width: 537
Flags: W
LayerCount: 2
Fore
SplineSet
201 380 m 1,0,-1
 39 380 l 1,1,-1
 61 520 l 1,2,-1
 223 520 l 1,3,-1
 256 730 l 1,4,-1
 423 730 l 1,5,-1
 389 520 l 1,6,-1
 551 520 l 1,7,-1
 529 380 l 1,8,-1
 367 380 l 1,9,-1
 290 -110 l 1,10,-1
 123 -110 l 1,11,-1
 201 380 l 1,0,-1
EndSplineSet
EndChar

StartChar: daggerdbl
Encoding: 8225 8225 531
Width: 555
Flags: W
LayerCount: 2
Fore
SplineSet
165 100 m 1,0,-1
 4 100 l 1,1,-1
 26 240 l 1,2,-1
 187 240 l 1,3,-1
 210 380 l 1,4,-1
 48 380 l 1,5,-1
 70 520 l 1,6,-1
 232 520 l 1,7,-1
 265 730 l 1,8,-1
 432 730 l 1,9,-1
 398 520 l 1,10,-1
 560 520 l 1,11,-1
 538 380 l 1,12,-1
 376 380 l 1,13,-1
 354 240 l 1,14,-1
 516 240 l 1,15,-1
 494 100 l 1,16,-1
 332 100 l 1,17,-1
 299 -110 l 1,18,-1
 132 -110 l 1,19,-1
 165 100 l 1,0,-1
EndSplineSet
EndChar

StartChar: uni2116
Encoding: 8470 8470 532
Width: 1197
GlyphClass: 2
Flags: W
AnchorPoint: "Anchor-1" 325 730 basechar 0
AnchorPoint: "Anchor-0" 325 0 basechar 0
LayerCount: 2
Fore
SplineSet
792 363 m 128,-1,1
 746 418 746 418 763 524 c 256,2,3
 780 630 780 630 843.5 685 c 128,-1,4
 907 740 907 740 1012 740 c 256,5,6
 1117 740 1117 740 1164 685 c 128,-1,7
 1211 630 1211 630 1194 524 c 256,8,9
 1177 418 1177 418 1113 363 c 128,-1,10
 1049 308 1049 308 944 308 c 0,11,0
 838 308 838 308 792 363 c 128,-1,1
326 730 m 1,12,-1
 466 330 l 1,13,-1
 468 330 l 1,14,-1
 532 730 l 1,15,-1
 728 730 l 1,16,-1
 612 0 l 1,17,-1
 416 0 l 1,18,-1
 275 400 l 1,19,-1
 274 400 l 1,20,-1
 210 0 l 1,21,-1
 14 0 l 1,22,-1
 130 730 l 1,23,-1
 326 730 l 1,12,-1
1007 453 m 128,-1,25
 1023 476 1023 476 1030 524 c 256,26,27
 1038 572 1038 572 1029 595 c 128,-1,28
 1020 618 1020 618 993 618 c 256,29,30
 966 618 966 618 950 595 c 128,-1,31
 934 572 934 572 926 524 c 256,32,33
 918 476 918 476 927 453 c 128,-1,34
 936 430 936 430 963 430 c 256,35,24
 991 430 991 430 1007 453 c 128,-1,25
732 270 m 1,36,-1
 1144 270 l 1,37,-1
 1123 140 l 1,38,-1
 712 140 l 1,39,-1
 732 270 l 1,36,-1
EndSplineSet
Ligature2: "'ordn' Ordinals in Latin lookup 9 subtable" N o period
EndChar

StartChar: uni0308
Encoding: 776 776 535
Width: 32
GlyphClass: 4
Flags: W
AnchorPoint: "Anchor-10" -351 760 basemark 0
AnchorPoint: "Anchor-10" -351 520 mark 0
AnchorPoint: "Anchor-6" -351 520 mark 0
AnchorPoint: "Anchor-1" -351 520 mark 0
LayerCount: 2
Fore
SplineSet
-417 760 m 5,0,-1
 -231 760 l 5,1,-1
 -261 570 l 5,2,-1
 -447 570 l 5,3,-1
 -417 760 l 5,0,-1
-152 760 m 5,4,-1
 34 760 l 5,5,-1
 4 570 l 5,6,-1
 -182 570 l 5,7,-1
 -152 760 l 5,4,-1
EndSplineSet
EndChar

StartChar: uni0307
Encoding: 775 775 536
Width: 13
GlyphClass: 4
Flags: W
AnchorPoint: "Anchor-10" -166 760 basemark 0
AnchorPoint: "Anchor-10" -166 520 mark 0
AnchorPoint: "Anchor-6" -166 520 mark 0
AnchorPoint: "Anchor-1" -166 520 mark 0
LayerCount: 2
Fore
SplineSet
-121 760 m 1,0,-1
 65 760 l 1,1,-1
 35 570 l 1,2,-1
 -151 570 l 1,3,-1
 -121 760 l 1,0,-1
EndSplineSet
EndChar

StartChar: gravecomb
Encoding: 768 768 537
Width: 20
GlyphClass: 4
Flags: W
AnchorPoint: "Anchor-10" -255 520 mark 0
AnchorPoint: "Anchor-6" -255 520 mark 0
AnchorPoint: "Anchor-1" -255 520 mark 0
LayerCount: 2
Fore
SplineSet
-279 770 m 5,0,-1
 -53 770 l 5,1,-1
 -28 560 l 5,2,-1
 -194 560 l 5,3,-1
 -279 770 l 5,0,-1
EndSplineSet
EndChar

StartChar: acutecomb
Encoding: 769 769 538
Width: 20
GlyphClass: 4
Flags: W
AnchorPoint: "Anchor-10" -247 520 mark 0
AnchorPoint: "Anchor-6" -247 520 mark 0
AnchorPoint: "Anchor-1" -247 520 mark 0
LayerCount: 2
Fore
SplineSet
-77 560 m 1,0,-1
 -244 560 l 1,1,-1
 -152 770 l 1,2,-1
 74 770 l 1,3,-1
 -77 560 l 1,0,-1
EndSplineSet
EndChar

StartChar: uni0302
Encoding: 770 770 540
Width: 37
GlyphClass: 4
Flags: W
AnchorPoint: "Anchor-10" -391 520 mark 0
AnchorPoint: "Anchor-6" -391 520 mark 0
AnchorPoint: "Anchor-1" -391 520 mark 0
LayerCount: 2
Fore
SplineSet
-371 770 m 1,0,-1
 -77 770 l 1,1,-1
 8 560 l 1,2,-1
 -198 560 l 1,3,-1
 -234 700 l 1,4,-1
 -236 700 l 1,5,-1
 -316 560 l 1,6,-1
 -521 560 l 1,7,-1
 -371 770 l 1,0,-1
EndSplineSet
EndChar

StartChar: uni030C
Encoding: 780 780 541
Width: 37
GlyphClass: 4
Flags: W
AnchorPoint: "Anchor-10" -401 770 basemark 0
AnchorPoint: "Anchor-10" -401 520 mark 0
AnchorPoint: "Anchor-6" -401 520 mark 0
AnchorPoint: "Anchor-1" -401 520 mark 0
LayerCount: 2
Fore
SplineSet
-498 770 m 5,0,-1
 -292 770 l 5,1,-1
 -257 630 l 5,2,-1
 -255 630 l 5,3,-1
 -175 770 l 5,4,-1
 31 770 l 5,5,-1
 -120 560 l 5,6,-1
 -414 560 l 5,7,-1
 -498 770 l 5,0,-1
EndSplineSet
EndChar

StartChar: uni0306
Encoding: 774 774 542
Width: 35
GlyphClass: 4
Flags: W
AnchorPoint: "Anchor-10" -371 520 mark 0
AnchorPoint: "Anchor-6" -371 520 mark 0
AnchorPoint: "Anchor-1" -371 520 mark 0
LayerCount: 2
Fore
SplineSet
-364.5 578.5 m 132,-1,1
 -416 607 -416 607 -439.5 657 c 132,-1,2
 -463 707 -463 707 -453 770 c 5,3,-1
 -286 770 l 5,4,5
 -288 724 -288 724 -272.5 702 c 132,-1,6
 -257 680 -257 680 -222 680 c 4,7,8
 -188 680 -188 680 -165 702 c 132,-1,9
 -142 724 -142 724 -129 770 c 5,10,-1
 37 770 l 5,11,12
 27 707 27 707 -12 657 c 132,-1,13
 -51 607 -51 607 -111.5 578.5 c 132,-1,14
 -172 550 -172 550 -242 550 c 260,15,0
 -313 550 -313 550 -364.5 578.5 c 132,-1,1
EndSplineSet
EndChar

StartChar: uni030A
Encoding: 778 778 543
Width: 23
GlyphClass: 4
Flags: W
AnchorPoint: "Anchor-10" -236 750 basemark 0
AnchorPoint: "Anchor-10" -236 520 mark 0
AnchorPoint: "Anchor-6" -236 520 mark 0
AnchorPoint: "Anchor-1" -236 520 mark 0
LayerCount: 2
Fore
SplineSet
-208.5 518 m 128,-1,1
 -243 541 -243 541 -259 580 c 128,-1,2
 -275 619 -275 619 -268 665 c 256,3,4
 -261 711 -261 711 -232 750 c 128,-1,5
 -203 789 -203 789 -161.5 812 c 128,-1,6
 -120 835 -120 835 -75 835 c 256,7,8
 -30 835 -30 835 5 812 c 128,-1,9
 40 789 40 789 56 750 c 128,-1,10
 72 711 72 711 65 665 c 256,11,12
 58 619 58 619 29 580 c 128,-1,13
 0 541 0 541 -41.5 518 c 128,-1,14
 -83 495 -83 495 -129 495 c 256,15,0
 -174 495 -174 495 -208.5 518 c 128,-1,1
-69.5 626 m 128,-1,17
 -51 642 -51 642 -48 665 c 256,18,19
 -44 688 -44 688 -57 704 c 128,-1,20
 -70 720 -70 720 -93 720 c 256,21,22
 -116 720 -116 720 -134 704 c 128,-1,23
 -152 688 -152 688 -155 665 c 256,24,25
 -159 642 -159 642 -146 626 c 128,-1,26
 -133 610 -133 610 -110 610 c 256,27,16
 -88 610 -88 610 -69.5 626 c 128,-1,17
EndSplineSet
EndChar

StartChar: tildecomb
Encoding: 771 771 544
Width: 34
GlyphClass: 4
Flags: W
AnchorPoint: "Anchor-10" -401 780 basemark 0
AnchorPoint: "Anchor-10" -401 520 mark 0
AnchorPoint: "Anchor-6" -401 520 mark 0
AnchorPoint: "Anchor-1" -401 520 mark 0
LayerCount: 2
Fore
SplineSet
-286 602 m 4,1,2
 -319 625 -319 625 -338 625 c 4,3,4
 -351 625 -351 625 -357.5 612.5 c 132,-1,5
 -364 600 -364 600 -370 560 c 5,6,-1
 -515 560 l 5,7,8
 -497 672 -497 672 -458.5 726 c 132,-1,9
 -420 780 -420 780 -358 780 c 260,10,11
 -295 780 -295 780 -221 728 c 4,12,13
 -188 705 -188 705 -169 705 c 4,14,15
 -156 705 -156 705 -149.5 717.5 c 132,-1,16
 -143 730 -143 730 -137 770 c 5,17,-1
 8 770 l 5,18,19
 -10 658 -10 658 -48 604 c 132,-1,20
 -86 550 -86 550 -149 550 c 260,21,0
 -212 550 -212 550 -286 602 c 4,1,2
EndSplineSet
EndChar

StartChar: uni0304
Encoding: 772 772 545
Width: 29
GlyphClass: 4
Flags: W
AnchorPoint: "Anchor-10" -341 735 basemark 0
AnchorPoint: "Anchor-10" -341 520 mark 0
AnchorPoint: "Anchor-6" -341 520 mark 0
AnchorPoint: "Anchor-1" -341 520 mark 0
LayerCount: 2
Fore
SplineSet
-394 735 m 5,0,-1
 17 735 l 5,1,-1
 -5 595 l 5,2,-1
 -417 595 l 5,3,-1
 -394 735 l 5,0,-1
EndSplineSet
EndChar

StartChar: uni0305
Encoding: 773 773 546
Width: 44
GlyphClass: 4
Flags: W
LayerCount: 2
Fore
SplineSet
-480 930 m 1,0,-1
 147 930 l 1,1,-1
 127 800 l 1,2,-1
 -501 800 l 1,3,-1
 -480 930 l 1,0,-1
EndSplineSet
EndChar

StartChar: hookabovecomb
Encoding: 777 777 547
Width: 27
GlyphClass: 4
Flags: W
AnchorPoint: "Anchor-10" -266 780 basemark 0
AnchorPoint: "Anchor-10" -266 520 mark 0
AnchorPoint: "Anchor-6" -266 520 mark 0
AnchorPoint: "Anchor-1" -266 520 mark 0
LayerCount: 2
Fore
SplineSet
-115 620 m 0,1,2
 -112 638 -112 638 -120 644 c 128,-1,3
 -128 650 -128 650 -154 650 c 0,4,5
 -187 650 -187 650 -229 643.5 c 128,-1,6
 -271 637 -271 637 -310 625 c 1,7,-1
 -303 760 l 1,8,9
 -260 769 -260 769 -207 774.5 c 128,-1,10
 -154 780 -154 780 -109 780 c 0,11,12
 -33 780 -33 780 6.5 771.5 c 128,-1,13
 46 763 46 763 59.5 743 c 128,-1,14
 73 723 73 723 67 685 c 0,15,16
 63 657 63 657 50.5 622 c 128,-1,17
 38 587 38 587 23 560 c 1,18,-1
 -134 560 l 1,19,0
 -119 597 -119 597 -115 620 c 0,1,2
EndSplineSet
EndChar

StartChar: uni030F
Encoding: 783 783 548
Width: 39
GlyphClass: 4
Flags: W
AnchorPoint: "Anchor-10" -417 770 basemark 0
AnchorPoint: "Anchor-10" -417 520 mark 0
AnchorPoint: "Anchor-6" -417 520 mark 0
AnchorPoint: "Anchor-1" -417 520 mark 0
LayerCount: 2
Fore
SplineSet
-555 770 m 5,0,-1
 -329 770 l 5,1,-1
 -304 560 l 5,2,-1
 -470 560 l 5,3,-1
 -555 770 l 5,0,-1
-290 770 m 5,4,-1
 -65 770 l 5,5,-1
 -39 560 l 5,6,-1
 -206 560 l 5,7,-1
 -290 770 l 5,4,-1
EndSplineSet
EndChar

StartChar: uni0311
Encoding: 785 785 549
Width: 35
GlyphClass: 4
Flags: W
AnchorPoint: "Anchor-10" -371 780 basemark 0
AnchorPoint: "Anchor-10" -371 520 mark 0
AnchorPoint: "Anchor-6" -371 520 mark 0
AnchorPoint: "Anchor-1" -371 520 mark 0
LayerCount: 2
Fore
SplineSet
-84 751.5 m 132,-1,1
 -33 723 -33 723 -9.5 673 c 132,-1,2
 14 623 14 623 4 560 c 5,3,-1
 -162 560 l 5,4,5
 -161 606 -161 606 -176.5 628 c 132,-1,6
 -192 650 -192 650 -227 650 c 132,-1,7
 -262 650 -262 650 -284.5 628 c 132,-1,8
 -307 606 -307 606 -319 560 c 5,9,-1
 -486 560 l 5,10,11
 -476 623 -476 623 -436.5 673 c 132,-1,12
 -397 723 -397 723 -337 751.5 c 132,-1,13
 -277 780 -277 780 -206 780 c 260,14,0
 -135 780 -135 780 -84 751.5 c 132,-1,1
EndSplineSet
EndChar

StartChar: uni0312
Encoding: 786 786 550
Width: 20
GlyphClass: 4
Flags: W
AnchorPoint: "Anchor-10" -236 770 basemark 0
AnchorPoint: "Anchor-10" -236 520 mark 0
AnchorPoint: "Anchor-6" -236 520 mark 0
AnchorPoint: "Anchor-1" -236 520 mark 0
LayerCount: 2
Fore
SplineSet
-111 770 m 1,0,-1
 55 770 l 1,1,-1
 -37 560 l 1,2,-1
 -262 560 l 1,3,-1
 -111 770 l 1,0,-1
EndSplineSet
EndChar

StartChar: uni031B
Encoding: 795 795 551
Width: 20
GlyphClass: 4
Flags: W
AnchorPoint: "Anchor-11" -112 770 basemark 0
AnchorPoint: "Anchor-11" -372 625 mark 0
AnchorPoint: "Anchor-7" -372 625 mark 0
AnchorPoint: "Anchor-3" -372 625 mark 0
LayerCount: 2
Fore
SplineSet
-295 489 m 1,1,-1
 -241 625 l 1,2,3
 -243 612 -243 612 -233 603.5 c 128,-1,4
 -223 595 -223 595 -207 595 c 0,5,6
 -186 595 -186 595 -172 609.5 c 128,-1,7
 -158 624 -158 624 -154 650 c 0,8,9
 -151 672 -151 672 -152.5 708.5 c 128,-1,10
 -154 745 -154 745 -160 770 c 1,11,-1
 17 770 l 1,12,13
 29 707 29 707 17 632 c 0,14,15
 3 543 3 543 -44.5 496.5 c 128,-1,16
 -92 450 -92 450 -166 450 c 0,17,0
 -229 450 -229 450 -295 489 c 1,1,-1
EndSplineSet
EndChar

StartChar: uni0326
Encoding: 806 806 554
Width: 20
GlyphClass: 4
Flags: W
AnchorPoint: "Anchor-10" -327 -290 mark 0
AnchorPoint: "Anchor-9" -296 -210 basemark 0
AnchorPoint: "Anchor-6" -327 -290 mark 0
AnchorPoint: "Anchor-1" -327 -290 mark 0
LayerCount: 2
Fore
SplineSet
-286 -250 m 1,0,-1
 -452 -250 l 1,1,-1
 -360 -40 l 1,2,-1
 -135 -40 l 1,3,-1
 -286 -250 l 1,0,-1
EndSplineSet
EndChar

StartChar: uni0327
Encoding: 807 807 555
Width: 23
GlyphClass: 4
Flags: W
AnchorPoint: "Anchor-8" -345 0 mark 0
LayerCount: 2
Fore
SplineSet
-433 -200 m 1,1,-1
 -397 -65 l 1,2,3
 -376 -74 -376 -74 -351 -79.5 c 128,-1,4
 -326 -85 -326 -85 -304 -85 c 0,5,6
 -280 -85 -280 -85 -266 -78 c 128,-1,7
 -252 -71 -252 -71 -250 -57 c 0,8,9
 -245 -28 -245 -28 -312 0 c 1,10,-1
 -132 50 l 1,11,12
 -99 14 -99 14 -87.5 -16.5 c 128,-1,13
 -76 -47 -76 -47 -82 -82 c 0,14,15
 -92 -148 -92 -148 -152.5 -184 c 128,-1,16
 -213 -220 -213 -220 -314 -220 c 0,17,0
 -383 -220 -383 -220 -433 -200 c 1,1,-1
EndSplineSet
EndChar

StartChar: uni0328
Encoding: 808 808 556
Width: 23
GlyphClass: 4
Flags: W
AnchorPoint: "Anchor-5" -189 0 mark 0
AnchorPoint: "Anchor-2" -189 0 mark 0
LayerCount: 2
Fore
SplineSet
-376 -184 m 128,-1,1
 -425 -148 -425 -148 -415 -82 c 0,2,3
 -409 -47 -409 -47 -387.5 -16.5 c 128,-1,4
 -366 14 -366 14 -322 50 c 1,5,-1
 -159 0 l 1,6,7
 -234 -28 -234 -28 -238 -57 c 0,8,9
 -240 -71 -240 -71 -228.5 -78 c 128,-1,10
 -217 -85 -217 -85 -193 -85 c 0,11,12
 -171 -85 -171 -85 -144 -79.5 c 128,-1,13
 -117 -74 -117 -74 -94 -65 c 1,14,-1
 -100 -200 l 1,15,16
 -156 -220 -156 -220 -226 -220 c 0,17,0
 -327 -220 -327 -220 -376 -184 c 128,-1,1
EndSplineSet
EndChar

StartChar: uni0370
Encoding: 880 880 572
Width: 606
Flags: W
LayerCount: 2
Fore
SplineSet
602 450 m 1,0,-1
 579 300 l 1,1,-1
 270 300 l 1,2,-1
 222 0 l 1,3,-1
 21 0 l 1,4,-1
 137 730 l 1,5,-1
 338 730 l 1,6,-1
 294 450 l 1,7,-1
 602 450 l 1,0,-1
EndSplineSet
EndChar

StartChar: uni0371
Encoding: 881 881 573
Width: 474
Flags: W
LayerCount: 2
Fore
SplineSet
452 332 m 1,0,-1
 432 202 l 1,1,-1
 228 202 l 1,2,-1
 196 0 l 1,3,-1
 12 0 l 1,4,-1
 95 520 l 1,5,-1
 278 520 l 1,6,-1
 248 332 l 1,7,-1
 452 332 l 1,0,-1
EndSplineSet
EndChar

StartChar: uni0372
Encoding: 882 882 574
Width: 743
Flags: W
CounterMasks: 1 1c
LayerCount: 2
Fore
SplineSet
318 565 m 1,0,-1
 250 565 l 1,1,-1
 209 310 l 1,2,-1
 52 310 l 1,3,-1
 119 730 l 1,4,-1
 766 730 l 1,5,-1
 699 310 l 1,6,-1
 542 310 l 1,7,-1
 583 565 l 1,8,-1
 514 565 l 1,9,-1
 425 0 l 1,10,-1
 229 0 l 1,11,-1
 318 565 l 1,0,-1
EndSplineSet
EndChar

StartChar: uni0373
Encoding: 883 883 575
Width: 614
Flags: W
CounterMasks: 1 1c
LayerCount: 2
Fore
SplineSet
267 595 m 1,0,-1
 225 595 l 1,1,-1
 195 410 l 1,2,-1
 64 410 l 1,3,-1
 114 730 l 1,4,-1
 642 730 l 1,5,-1
 591 410 l 1,6,-1
 459 410 l 1,7,-1
 489 595 l 1,8,-1
 446 595 l 1,9,-1
 352 0 l 1,10,-1
 173 0 l 1,11,-1
 267 595 l 1,0,-1
EndSplineSet
EndChar

